%TF.GenerationSoftware,KiCad,Pcbnew,9.0.5*%
%TF.CreationDate,2026-06-19T15:20:49+05:30*%
%TF.ProjectId,esp32_nichrome_wire,65737033-325f-46e6-9963-68726f6d655f,rev?*%
%TF.SameCoordinates,Original*%
%TF.FileFunction,Legend,Bot*%
%TF.FilePolarity,Positive*%
%FSLAX46Y46*%
G04 Gerber Fmt 4.6, Leading zero omitted, Abs format (unit mm)*
G04 Created by KiCad (PCBNEW 9.0.5) date 2026-06-19 15:20:49*
%MOMM*%
%LPD*%
G01*
G04 APERTURE LIST*
%ADD10C,0.100000*%
%ADD11C,0.150000*%
%ADD12C,0.120000*%
G04 APERTURE END LIST*
D10*
X145975163Y-84404800D02*
X146070401Y-84452419D01*
X146070401Y-84452419D02*
X146260877Y-84452419D01*
X146260877Y-84452419D02*
X146356115Y-84404800D01*
X146356115Y-84404800D02*
X146403734Y-84309561D01*
X146403734Y-84309561D02*
X146403734Y-83928609D01*
X146403734Y-83928609D02*
X146356115Y-83833371D01*
X146356115Y-83833371D02*
X146260877Y-83785752D01*
X146260877Y-83785752D02*
X146070401Y-83785752D01*
X146070401Y-83785752D02*
X145975163Y-83833371D01*
X145975163Y-83833371D02*
X145927544Y-83928609D01*
X145927544Y-83928609D02*
X145927544Y-84023847D01*
X145927544Y-84023847D02*
X146403734Y-84119085D01*
X145308496Y-83976228D02*
X145308496Y-84452419D01*
X145641829Y-83452419D02*
X145308496Y-83976228D01*
X145308496Y-83976228D02*
X144975163Y-83452419D01*
X144070401Y-84452419D02*
X144403734Y-83976228D01*
X144641829Y-84452419D02*
X144641829Y-83452419D01*
X144641829Y-83452419D02*
X144260877Y-83452419D01*
X144260877Y-83452419D02*
X144165639Y-83500038D01*
X144165639Y-83500038D02*
X144118020Y-83547657D01*
X144118020Y-83547657D02*
X144070401Y-83642895D01*
X144070401Y-83642895D02*
X144070401Y-83785752D01*
X144070401Y-83785752D02*
X144118020Y-83880990D01*
X144118020Y-83880990D02*
X144165639Y-83928609D01*
X144165639Y-83928609D02*
X144260877Y-83976228D01*
X144260877Y-83976228D02*
X144641829Y-83976228D01*
X143070401Y-84357180D02*
X143118020Y-84404800D01*
X143118020Y-84404800D02*
X143260877Y-84452419D01*
X143260877Y-84452419D02*
X143356115Y-84452419D01*
X143356115Y-84452419D02*
X143498972Y-84404800D01*
X143498972Y-84404800D02*
X143594210Y-84309561D01*
X143594210Y-84309561D02*
X143641829Y-84214323D01*
X143641829Y-84214323D02*
X143689448Y-84023847D01*
X143689448Y-84023847D02*
X143689448Y-83880990D01*
X143689448Y-83880990D02*
X143641829Y-83690514D01*
X143641829Y-83690514D02*
X143594210Y-83595276D01*
X143594210Y-83595276D02*
X143498972Y-83500038D01*
X143498972Y-83500038D02*
X143356115Y-83452419D01*
X143356115Y-83452419D02*
X143260877Y-83452419D01*
X143260877Y-83452419D02*
X143118020Y-83500038D01*
X143118020Y-83500038D02*
X143070401Y-83547657D01*
X142641829Y-84071466D02*
X141879925Y-84071466D01*
X141451353Y-83547657D02*
X141403734Y-83500038D01*
X141403734Y-83500038D02*
X141308496Y-83452419D01*
X141308496Y-83452419D02*
X141070401Y-83452419D01*
X141070401Y-83452419D02*
X140975163Y-83500038D01*
X140975163Y-83500038D02*
X140927544Y-83547657D01*
X140927544Y-83547657D02*
X140879925Y-83642895D01*
X140879925Y-83642895D02*
X140879925Y-83738133D01*
X140879925Y-83738133D02*
X140927544Y-83880990D01*
X140927544Y-83880990D02*
X141498972Y-84452419D01*
X141498972Y-84452419D02*
X140879925Y-84452419D01*
X140022782Y-83452419D02*
X140213258Y-83452419D01*
X140213258Y-83452419D02*
X140308496Y-83500038D01*
X140308496Y-83500038D02*
X140356115Y-83547657D01*
X140356115Y-83547657D02*
X140451353Y-83690514D01*
X140451353Y-83690514D02*
X140498972Y-83880990D01*
X140498972Y-83880990D02*
X140498972Y-84261942D01*
X140498972Y-84261942D02*
X140451353Y-84357180D01*
X140451353Y-84357180D02*
X140403734Y-84404800D01*
X140403734Y-84404800D02*
X140308496Y-84452419D01*
X140308496Y-84452419D02*
X140118020Y-84452419D01*
X140118020Y-84452419D02*
X140022782Y-84404800D01*
X140022782Y-84404800D02*
X139975163Y-84357180D01*
X139975163Y-84357180D02*
X139927544Y-84261942D01*
X139927544Y-84261942D02*
X139927544Y-84023847D01*
X139927544Y-84023847D02*
X139975163Y-83928609D01*
X139975163Y-83928609D02*
X140022782Y-83880990D01*
X140022782Y-83880990D02*
X140118020Y-83833371D01*
X140118020Y-83833371D02*
X140308496Y-83833371D01*
X140308496Y-83833371D02*
X140403734Y-83880990D01*
X140403734Y-83880990D02*
X140451353Y-83928609D01*
X140451353Y-83928609D02*
X140498972Y-84023847D01*
X138737067Y-84452419D02*
X138737067Y-83452419D01*
X138737067Y-83452419D02*
X138356115Y-83452419D01*
X138356115Y-83452419D02*
X138260877Y-83500038D01*
X138260877Y-83500038D02*
X138213258Y-83547657D01*
X138213258Y-83547657D02*
X138165639Y-83642895D01*
X138165639Y-83642895D02*
X138165639Y-83785752D01*
X138165639Y-83785752D02*
X138213258Y-83880990D01*
X138213258Y-83880990D02*
X138260877Y-83928609D01*
X138260877Y-83928609D02*
X138356115Y-83976228D01*
X138356115Y-83976228D02*
X138737067Y-83976228D01*
X137546591Y-83452419D02*
X137356115Y-83452419D01*
X137356115Y-83452419D02*
X137260877Y-83500038D01*
X137260877Y-83500038D02*
X137165639Y-83595276D01*
X137165639Y-83595276D02*
X137118020Y-83785752D01*
X137118020Y-83785752D02*
X137118020Y-84119085D01*
X137118020Y-84119085D02*
X137165639Y-84309561D01*
X137165639Y-84309561D02*
X137260877Y-84404800D01*
X137260877Y-84404800D02*
X137356115Y-84452419D01*
X137356115Y-84452419D02*
X137546591Y-84452419D01*
X137546591Y-84452419D02*
X137641829Y-84404800D01*
X137641829Y-84404800D02*
X137737067Y-84309561D01*
X137737067Y-84309561D02*
X137784686Y-84119085D01*
X137784686Y-84119085D02*
X137784686Y-83785752D01*
X137784686Y-83785752D02*
X137737067Y-83595276D01*
X137737067Y-83595276D02*
X137641829Y-83500038D01*
X137641829Y-83500038D02*
X137546591Y-83452419D01*
X136118020Y-84357180D02*
X136165639Y-84404800D01*
X136165639Y-84404800D02*
X136308496Y-84452419D01*
X136308496Y-84452419D02*
X136403734Y-84452419D01*
X136403734Y-84452419D02*
X136546591Y-84404800D01*
X136546591Y-84404800D02*
X136641829Y-84309561D01*
X136641829Y-84309561D02*
X136689448Y-84214323D01*
X136689448Y-84214323D02*
X136737067Y-84023847D01*
X136737067Y-84023847D02*
X136737067Y-83880990D01*
X136737067Y-83880990D02*
X136689448Y-83690514D01*
X136689448Y-83690514D02*
X136641829Y-83595276D01*
X136641829Y-83595276D02*
X136546591Y-83500038D01*
X136546591Y-83500038D02*
X136403734Y-83452419D01*
X136403734Y-83452419D02*
X136308496Y-83452419D01*
X136308496Y-83452419D02*
X136165639Y-83500038D01*
X136165639Y-83500038D02*
X136118020Y-83547657D01*
X135070400Y-83452419D02*
X134737067Y-84452419D01*
X134737067Y-84452419D02*
X134403734Y-83452419D01*
X133879924Y-83452419D02*
X133784686Y-83452419D01*
X133784686Y-83452419D02*
X133689448Y-83500038D01*
X133689448Y-83500038D02*
X133641829Y-83547657D01*
X133641829Y-83547657D02*
X133594210Y-83642895D01*
X133594210Y-83642895D02*
X133546591Y-83833371D01*
X133546591Y-83833371D02*
X133546591Y-84071466D01*
X133546591Y-84071466D02*
X133594210Y-84261942D01*
X133594210Y-84261942D02*
X133641829Y-84357180D01*
X133641829Y-84357180D02*
X133689448Y-84404800D01*
X133689448Y-84404800D02*
X133784686Y-84452419D01*
X133784686Y-84452419D02*
X133879924Y-84452419D01*
X133879924Y-84452419D02*
X133975162Y-84404800D01*
X133975162Y-84404800D02*
X134022781Y-84357180D01*
X134022781Y-84357180D02*
X134070400Y-84261942D01*
X134070400Y-84261942D02*
X134118019Y-84071466D01*
X134118019Y-84071466D02*
X134118019Y-83833371D01*
X134118019Y-83833371D02*
X134070400Y-83642895D01*
X134070400Y-83642895D02*
X134022781Y-83547657D01*
X134022781Y-83547657D02*
X133975162Y-83500038D01*
X133975162Y-83500038D02*
X133879924Y-83452419D01*
X133118019Y-84357180D02*
X133070400Y-84404800D01*
X133070400Y-84404800D02*
X133118019Y-84452419D01*
X133118019Y-84452419D02*
X133165638Y-84404800D01*
X133165638Y-84404800D02*
X133118019Y-84357180D01*
X133118019Y-84357180D02*
X133118019Y-84452419D01*
X132118020Y-84452419D02*
X132689448Y-84452419D01*
X132403734Y-84452419D02*
X132403734Y-83452419D01*
X132403734Y-83452419D02*
X132498972Y-83595276D01*
X132498972Y-83595276D02*
X132594210Y-83690514D01*
X132594210Y-83690514D02*
X132689448Y-83738133D01*
X131689448Y-83785752D02*
X131689448Y-84785752D01*
X131689448Y-83833371D02*
X131594210Y-83785752D01*
X131594210Y-83785752D02*
X131403734Y-83785752D01*
X131403734Y-83785752D02*
X131308496Y-83833371D01*
X131308496Y-83833371D02*
X131260877Y-83880990D01*
X131260877Y-83880990D02*
X131213258Y-83976228D01*
X131213258Y-83976228D02*
X131213258Y-84261942D01*
X131213258Y-84261942D02*
X131260877Y-84357180D01*
X131260877Y-84357180D02*
X131308496Y-84404800D01*
X131308496Y-84404800D02*
X131403734Y-84452419D01*
X131403734Y-84452419D02*
X131594210Y-84452419D01*
X131594210Y-84452419D02*
X131689448Y-84404800D01*
D11*
X165233333Y-82204819D02*
X165233333Y-82919104D01*
X165233333Y-82919104D02*
X165280952Y-83061961D01*
X165280952Y-83061961D02*
X165376190Y-83157200D01*
X165376190Y-83157200D02*
X165519047Y-83204819D01*
X165519047Y-83204819D02*
X165614285Y-83204819D01*
X164280952Y-82204819D02*
X164757142Y-82204819D01*
X164757142Y-82204819D02*
X164804761Y-82681009D01*
X164804761Y-82681009D02*
X164757142Y-82633390D01*
X164757142Y-82633390D02*
X164661904Y-82585771D01*
X164661904Y-82585771D02*
X164423809Y-82585771D01*
X164423809Y-82585771D02*
X164328571Y-82633390D01*
X164328571Y-82633390D02*
X164280952Y-82681009D01*
X164280952Y-82681009D02*
X164233333Y-82776247D01*
X164233333Y-82776247D02*
X164233333Y-83014342D01*
X164233333Y-83014342D02*
X164280952Y-83109580D01*
X164280952Y-83109580D02*
X164328571Y-83157200D01*
X164328571Y-83157200D02*
X164423809Y-83204819D01*
X164423809Y-83204819D02*
X164661904Y-83204819D01*
X164661904Y-83204819D02*
X164757142Y-83157200D01*
X164757142Y-83157200D02*
X164804761Y-83109580D01*
X130634819Y-97706666D02*
X131349104Y-97706666D01*
X131349104Y-97706666D02*
X131491961Y-97659047D01*
X131491961Y-97659047D02*
X131587200Y-97563809D01*
X131587200Y-97563809D02*
X131634819Y-97420952D01*
X131634819Y-97420952D02*
X131634819Y-97325714D01*
X131634819Y-98706666D02*
X131634819Y-98135238D01*
X131634819Y-98420952D02*
X130634819Y-98420952D01*
X130634819Y-98420952D02*
X130777676Y-98325714D01*
X130777676Y-98325714D02*
X130872914Y-98230476D01*
X130872914Y-98230476D02*
X130920533Y-98135238D01*
X139753333Y-151654819D02*
X139753333Y-152369104D01*
X139753333Y-152369104D02*
X139800952Y-152511961D01*
X139800952Y-152511961D02*
X139896190Y-152607200D01*
X139896190Y-152607200D02*
X140039047Y-152654819D01*
X140039047Y-152654819D02*
X140134285Y-152654819D01*
X139372380Y-151654819D02*
X138753333Y-151654819D01*
X138753333Y-151654819D02*
X139086666Y-152035771D01*
X139086666Y-152035771D02*
X138943809Y-152035771D01*
X138943809Y-152035771D02*
X138848571Y-152083390D01*
X138848571Y-152083390D02*
X138800952Y-152131009D01*
X138800952Y-152131009D02*
X138753333Y-152226247D01*
X138753333Y-152226247D02*
X138753333Y-152464342D01*
X138753333Y-152464342D02*
X138800952Y-152559580D01*
X138800952Y-152559580D02*
X138848571Y-152607200D01*
X138848571Y-152607200D02*
X138943809Y-152654819D01*
X138943809Y-152654819D02*
X139229523Y-152654819D01*
X139229523Y-152654819D02*
X139324761Y-152607200D01*
X139324761Y-152607200D02*
X139372380Y-152559580D01*
X123953333Y-108294819D02*
X123953333Y-109009104D01*
X123953333Y-109009104D02*
X124000952Y-109151961D01*
X124000952Y-109151961D02*
X124096190Y-109247200D01*
X124096190Y-109247200D02*
X124239047Y-109294819D01*
X124239047Y-109294819D02*
X124334285Y-109294819D01*
X123048571Y-108628152D02*
X123048571Y-109294819D01*
X123286666Y-108247200D02*
X123524761Y-108961485D01*
X123524761Y-108961485D02*
X122905714Y-108961485D01*
D12*
%TO.C,J5*%
X159540000Y-83840000D02*
X170260000Y-83840000D01*
X159540000Y-87560000D02*
X159540000Y-83840000D01*
X159740000Y-84040000D02*
X159740000Y-84900000D01*
X159740000Y-84900000D02*
X159540000Y-84900000D01*
X159740000Y-84900000D02*
X159740000Y-85600000D01*
X159740000Y-85600000D02*
X159540000Y-85600000D01*
X159740000Y-87360000D02*
X159740000Y-85600000D01*
X169310000Y-83540000D02*
X170560000Y-83540000D01*
X170060000Y-84040000D02*
X159740000Y-84040000D01*
X170060000Y-84900000D02*
X170060000Y-84040000D01*
X170060000Y-84900000D02*
X170060000Y-85600000D01*
X170060000Y-85600000D02*
X170060000Y-87360000D01*
X170060000Y-85600000D02*
X170260000Y-85600000D01*
X170060000Y-87360000D02*
X159740000Y-87360000D01*
X170260000Y-83840000D02*
X170260000Y-87560000D01*
X170260000Y-84900000D02*
X170060000Y-84900000D01*
X170260000Y-87560000D02*
X159540000Y-87560000D01*
X170560000Y-83540000D02*
X170560000Y-84790000D01*
%TO.C,J1*%
X132180000Y-96660000D02*
X132180000Y-98040000D01*
X133560000Y-96660000D02*
X132180000Y-96660000D01*
X134830000Y-96660000D02*
X134830000Y-99420000D01*
X134830000Y-96660000D02*
X145100000Y-96660000D01*
X134830000Y-99420000D02*
X145100000Y-99420000D01*
X145100000Y-96660000D02*
X145100000Y-99420000D01*
%TO.C,J3*%
X134060000Y-153290000D02*
X144780000Y-153290000D01*
X134060000Y-157010000D02*
X134060000Y-153290000D01*
X134260000Y-153490000D02*
X134260000Y-154350000D01*
X134260000Y-154350000D02*
X134060000Y-154350000D01*
X134260000Y-154350000D02*
X134260000Y-155050000D01*
X134260000Y-155050000D02*
X134060000Y-155050000D01*
X134260000Y-156810000D02*
X134260000Y-155050000D01*
X143830000Y-152990000D02*
X145080000Y-152990000D01*
X144580000Y-153490000D02*
X134260000Y-153490000D01*
X144580000Y-154350000D02*
X144580000Y-153490000D01*
X144580000Y-154350000D02*
X144580000Y-155050000D01*
X144580000Y-155050000D02*
X144580000Y-156810000D01*
X144580000Y-155050000D02*
X144780000Y-155050000D01*
X144580000Y-156810000D02*
X134260000Y-156810000D01*
X144780000Y-153290000D02*
X144780000Y-157010000D01*
X144780000Y-154350000D02*
X144580000Y-154350000D01*
X144780000Y-157010000D02*
X134060000Y-157010000D01*
X145080000Y-152990000D02*
X145080000Y-154240000D01*
%TO.C,J4*%
X113830000Y-107900000D02*
X113830000Y-106650000D01*
X114130000Y-103880000D02*
X124850000Y-103880000D01*
X114130000Y-106540000D02*
X114330000Y-106540000D01*
X114130000Y-107600000D02*
X114130000Y-103880000D01*
X114330000Y-104080000D02*
X124650000Y-104080000D01*
X114330000Y-105840000D02*
X114130000Y-105840000D01*
X114330000Y-105840000D02*
X114330000Y-104080000D01*
X114330000Y-106540000D02*
X114330000Y-105840000D01*
X114330000Y-106540000D02*
X114330000Y-107400000D01*
X114330000Y-107400000D02*
X124650000Y-107400000D01*
X115080000Y-107900000D02*
X113830000Y-107900000D01*
X124650000Y-104080000D02*
X124650000Y-105840000D01*
X124650000Y-105840000D02*
X124850000Y-105840000D01*
X124650000Y-106540000D02*
X124650000Y-105840000D01*
X124650000Y-106540000D02*
X124850000Y-106540000D01*
X124650000Y-107400000D02*
X124650000Y-106540000D01*
X124850000Y-103880000D02*
X124850000Y-107600000D01*
X124850000Y-107600000D02*
X114130000Y-107600000D01*
%TD*%
M02*
