%TF.GenerationSoftware,KiCad,Pcbnew,9.0.5*%
%TF.CreationDate,2026-06-19T15:20:49+05:30*%
%TF.ProjectId,esp32_nichrome_wire,65737033-325f-46e6-9963-68726f6d655f,rev?*%
%TF.SameCoordinates,Original*%
%TF.FileFunction,Soldermask,Top*%
%TF.FilePolarity,Negative*%
%FSLAX46Y46*%
G04 Gerber Fmt 4.6, Leading zero omitted, Abs format (unit mm)*
G04 Created by KiCad (PCBNEW 9.0.5) date 2026-06-19 15:20:49*
%MOMM*%
%LPD*%
G01*
G04 APERTURE LIST*
G04 Aperture macros list*
%AMRoundRect*
0 Rectangle with rounded corners*
0 $1 Rounding radius*
0 $2 $3 $4 $5 $6 $7 $8 $9 X,Y pos of 4 corners*
0 Add a 4 corners polygon primitive as box body*
4,1,4,$2,$3,$4,$5,$6,$7,$8,$9,$2,$3,0*
0 Add four circle primitives for the rounded corners*
1,1,$1+$1,$2,$3*
1,1,$1+$1,$4,$5*
1,1,$1+$1,$6,$7*
1,1,$1+$1,$8,$9*
0 Add four rect primitives between the rounded corners*
20,1,$1+$1,$2,$3,$4,$5,0*
20,1,$1+$1,$4,$5,$6,$7,0*
20,1,$1+$1,$6,$7,$8,$9,0*
20,1,$1+$1,$8,$9,$2,$3,0*%
%AMHorizOval*
0 Thick line with rounded ends*
0 $1 width*
0 $2 $3 position (X,Y) of the first rounded end (center of the circle)*
0 $4 $5 position (X,Y) of the second rounded end (center of the circle)*
0 Add line between two ends*
20,1,$1,$2,$3,$4,$5,0*
0 Add two circle primitives to create the rounded ends*
1,1,$1,$2,$3*
1,1,$1,$4,$5*%
G04 Aperture macros list end*
%ADD10RoundRect,0.102000X-1.387500X-1.387500X1.387500X-1.387500X1.387500X1.387500X-1.387500X1.387500X0*%
%ADD11C,2.979000*%
%ADD12RoundRect,0.250000X-0.412500X-0.650000X0.412500X-0.650000X0.412500X0.650000X-0.412500X0.650000X0*%
%ADD13RoundRect,0.250001X0.462499X0.624999X-0.462499X0.624999X-0.462499X-0.624999X0.462499X-0.624999X0*%
%ADD14RoundRect,0.375000X-0.625000X-0.375000X0.625000X-0.375000X0.625000X0.375000X-0.625000X0.375000X0*%
%ADD15RoundRect,0.500000X-0.500000X-1.400000X0.500000X-1.400000X0.500000X1.400000X-0.500000X1.400000X0*%
%ADD16RoundRect,0.250000X1.017339X-1.337917X1.667339X-0.212083X-1.017339X1.337917X-1.667339X0.212083X0*%
%ADD17HorizOval,1.800000X-0.779423X0.450000X0.779423X-0.450000X0*%
%ADD18R,1.905000X2.000000*%
%ADD19O,1.905000X2.000000*%
%ADD20R,1.700000X0.900000*%
%ADD21R,2.000000X1.905000*%
%ADD22O,2.000000X1.905000*%
%ADD23C,2.184000*%
%ADD24RoundRect,0.250000X0.312500X0.625000X-0.312500X0.625000X-0.312500X-0.625000X0.312500X-0.625000X0*%
%ADD25RoundRect,0.250000X-0.650000X0.412500X-0.650000X-0.412500X0.650000X-0.412500X0.650000X0.412500X0*%
%ADD26RoundRect,0.250000X-1.667339X-0.212083X-1.017339X-1.337917X1.667339X0.212083X1.017339X1.337917X0*%
%ADD27HorizOval,1.800000X-0.779423X-0.450000X0.779423X0.450000X0*%
%ADD28RoundRect,0.250000X-0.375000X-0.625000X0.375000X-0.625000X0.375000X0.625000X-0.375000X0.625000X0*%
%ADD29C,3.200000*%
%ADD30C,2.109000*%
%ADD31RoundRect,0.250000X-0.312500X-0.625000X0.312500X-0.625000X0.312500X0.625000X-0.312500X0.625000X0*%
%ADD32R,1.500000X0.900000*%
%ADD33R,0.900000X1.500000*%
%ADD34C,0.600000*%
%ADD35R,4.200000X4.200000*%
%ADD36RoundRect,0.250000X0.412500X0.650000X-0.412500X0.650000X-0.412500X-0.650000X0.412500X-0.650000X0*%
%ADD37RoundRect,1.500000X-1.500000X-1.500000X1.500000X-1.500000X1.500000X1.500000X-1.500000X1.500000X0*%
%ADD38C,6.000000*%
%ADD39RoundRect,0.250000X0.335000X0.685000X-0.335000X0.685000X-0.335000X-0.685000X0.335000X-0.685000X0*%
%ADD40O,1.170000X1.870000*%
%ADD41RoundRect,0.250000X-0.335000X-0.685000X0.335000X-0.685000X0.335000X0.685000X-0.335000X0.685000X0*%
G04 APERTURE END LIST*
D10*
%TO.C,SW3*%
X103210000Y-93370000D03*
D11*
X103210000Y-98070000D03*
X103210000Y-102770000D03*
%TD*%
D12*
%TO.C,C1*%
X123917500Y-88530000D03*
X127042500Y-88530000D03*
%TD*%
D13*
%TO.C,D4*%
X129795000Y-106410000D03*
X126820000Y-106410000D03*
%TD*%
D14*
%TO.C,U2*%
X117590000Y-94550000D03*
X117590000Y-96850000D03*
D15*
X123890000Y-96850000D03*
D14*
X117590000Y-99150000D03*
%TD*%
D16*
%TO.C,J7*%
X166243767Y-120668044D03*
D17*
X167993767Y-117636954D03*
%TD*%
D18*
%TO.C,Q2*%
X134150000Y-111330000D03*
D19*
X136690000Y-111330000D03*
X139230000Y-111330000D03*
%TD*%
D20*
%TO.C,SW2*%
X126250000Y-86490000D03*
X126250000Y-83090000D03*
%TD*%
D21*
%TO.C,U7*%
X111000000Y-102120000D03*
D22*
X111000000Y-99580000D03*
X111000000Y-97040000D03*
%TD*%
D23*
%TO.C,U3*%
X131880000Y-132720000D03*
X131880000Y-135260000D03*
X131880000Y-137800000D03*
X131880000Y-140340000D03*
X131880000Y-142880000D03*
X131880000Y-145420000D03*
X131880000Y-147960000D03*
X131880000Y-150500000D03*
X147120000Y-150500000D03*
X147120000Y-147960000D03*
X147120000Y-145420000D03*
X147120000Y-142880000D03*
X147120000Y-140340000D03*
X147120000Y-137800000D03*
X147120000Y-135260000D03*
X147120000Y-132720000D03*
%TD*%
D12*
%TO.C,C5*%
X108157500Y-106200000D03*
X111282500Y-106200000D03*
%TD*%
D24*
%TO.C,R15*%
X152532500Y-100260000D03*
X149607500Y-100260000D03*
%TD*%
D25*
%TO.C,C3*%
X114610000Y-96197500D03*
X114610000Y-99322500D03*
%TD*%
D26*
%TO.C,J6*%
X118830000Y-132600000D03*
D27*
X120580000Y-135631089D03*
%TD*%
D18*
%TO.C,Q3*%
X122780000Y-111360000D03*
D19*
X125320000Y-111360000D03*
X127860000Y-111360000D03*
%TD*%
D12*
%TO.C,C4*%
X122197500Y-101760000D03*
X125322500Y-101760000D03*
%TD*%
D28*
%TO.C,D1*%
X155910000Y-111920000D03*
X158710000Y-111920000D03*
%TD*%
D24*
%TO.C,R5*%
X125542500Y-114990000D03*
X122617500Y-114990000D03*
%TD*%
%TO.C,R4*%
X143092500Y-106500000D03*
X140167500Y-106500000D03*
%TD*%
D29*
%TO.C,U5*%
X147780000Y-127710000D03*
X131660000Y-127710000D03*
D30*
X133370000Y-115950000D03*
X146070000Y-115950000D03*
X130830000Y-115950000D03*
X143530000Y-115950000D03*
X140990000Y-115950000D03*
X148610000Y-115950000D03*
X135910000Y-115950000D03*
X138450000Y-115950000D03*
%TD*%
D24*
%TO.C,R2*%
X152732500Y-90910000D03*
X149807500Y-90910000D03*
%TD*%
D31*
%TO.C,R1*%
X124097500Y-91350000D03*
X127022500Y-91350000D03*
%TD*%
D32*
%TO.C,U1*%
X130020000Y-83350000D03*
X130020000Y-84620000D03*
X130020000Y-85890000D03*
X130020000Y-87160000D03*
X130020000Y-88430000D03*
X130020000Y-89700000D03*
X130020000Y-90970000D03*
X130020000Y-92240000D03*
X130020000Y-93510000D03*
X130020000Y-94780000D03*
X130020000Y-96050000D03*
X130020000Y-97320000D03*
X130020000Y-98590000D03*
X130020000Y-99860000D03*
D33*
X133060000Y-101110000D03*
X134330000Y-101110000D03*
X135600000Y-101110000D03*
X136870000Y-101110000D03*
X138140000Y-101110000D03*
X139410000Y-101110000D03*
X140680000Y-101110000D03*
X141950000Y-101110000D03*
X143220000Y-101110000D03*
X144490000Y-101110000D03*
D32*
X147520000Y-99860000D03*
X147520000Y-98590000D03*
X147520000Y-97320000D03*
X147520000Y-96050000D03*
X147520000Y-94780000D03*
X147520000Y-93510000D03*
X147520000Y-92240000D03*
X147520000Y-90970000D03*
X147520000Y-89700000D03*
X147520000Y-88430000D03*
X147520000Y-87160000D03*
X147520000Y-85890000D03*
X147520000Y-84620000D03*
X147520000Y-83350000D03*
D34*
X136565000Y-89927500D03*
X136565000Y-91452500D03*
X137327500Y-89165000D03*
X137327500Y-90690000D03*
X137327500Y-92215000D03*
X138090000Y-89927500D03*
D35*
X138090000Y-90690000D03*
D34*
X138090000Y-91452500D03*
X138852500Y-89165000D03*
X138852500Y-90690000D03*
X138852500Y-92215000D03*
X139615000Y-89927500D03*
X139615000Y-91452500D03*
%TD*%
D36*
%TO.C,C6*%
X117572500Y-101830000D03*
X114447500Y-101830000D03*
%TD*%
D31*
%TO.C,R14*%
X155827500Y-114920000D03*
X158752500Y-114920000D03*
%TD*%
D18*
%TO.C,Q1*%
X145140000Y-111400000D03*
D19*
X147680000Y-111400000D03*
X150220000Y-111400000D03*
%TD*%
D13*
%TO.C,D2*%
X147995000Y-106480000D03*
X145020000Y-106480000D03*
%TD*%
D31*
%TO.C,R3*%
X149807500Y-88280000D03*
X152732500Y-88280000D03*
%TD*%
D23*
%TO.C,U4*%
X156930000Y-90506600D03*
X156930000Y-93046600D03*
X156930000Y-95586600D03*
X156930000Y-98126600D03*
X156930000Y-100666600D03*
X156930000Y-103206600D03*
X156930000Y-105746600D03*
X156930000Y-108286600D03*
X172170000Y-108286600D03*
X172170000Y-105746600D03*
X172170000Y-103206600D03*
X172170000Y-100666600D03*
X172170000Y-98126600D03*
X172170000Y-95586600D03*
X172170000Y-93046600D03*
X172170000Y-90506600D03*
%TD*%
D26*
%TO.C,J8*%
X110833734Y-118094456D03*
D27*
X112583734Y-121125545D03*
%TD*%
D37*
%TO.C,J2*%
X110350000Y-87180000D03*
D38*
X117550000Y-87180000D03*
%TD*%
D12*
%TO.C,C2*%
X147457500Y-103440000D03*
X150582500Y-103440000D03*
%TD*%
D20*
%TO.C,SW1*%
X150860000Y-82880000D03*
X150860000Y-86280000D03*
%TD*%
D13*
%TO.C,D3*%
X136835000Y-106460000D03*
X133860000Y-106460000D03*
%TD*%
D39*
%TO.C,J5*%
X168650000Y-85250000D03*
D40*
X167150000Y-85250000D03*
X165650000Y-85250000D03*
X164150000Y-85250000D03*
X162650000Y-85250000D03*
X161150000Y-85250000D03*
%TD*%
D39*
%TO.C,J3*%
X143170000Y-154700000D03*
D40*
X141670000Y-154700000D03*
X140170000Y-154700000D03*
X138670000Y-154700000D03*
X137170000Y-154700000D03*
X135670000Y-154700000D03*
%TD*%
D41*
%TO.C,J4*%
X115740000Y-106190000D03*
D40*
X117240000Y-106190000D03*
X118740000Y-106190000D03*
X120240000Y-106190000D03*
X121740000Y-106190000D03*
X123240000Y-106190000D03*
%TD*%
M02*
