%TF.GenerationSoftware,KiCad,Pcbnew,9.0.5*%
%TF.CreationDate,2026-06-19T15:20:49+05:30*%
%TF.ProjectId,esp32_nichrome_wire,65737033-325f-46e6-9963-68726f6d655f,rev?*%
%TF.SameCoordinates,Original*%
%TF.FileFunction,Profile,NP*%
%FSLAX46Y46*%
G04 Gerber Fmt 4.6, Leading zero omitted, Abs format (unit mm)*
G04 Created by KiCad (PCBNEW 9.0.5) date 2026-06-19 15:20:49*
%MOMM*%
%LPD*%
G01*
G04 APERTURE LIST*
%TA.AperFunction,Profile*%
%ADD10C,0.200000*%
%TD*%
%TA.AperFunction,Profile*%
%ADD11C,0.050000*%
%TD*%
G04 APERTURE END LIST*
D10*
X167708566Y-81957693D02*
G75*
G02*
X177234873Y-87457676I34J-11000007D01*
G01*
X180348092Y-92849996D02*
X177234844Y-87457693D01*
X101353249Y-87457691D02*
X98240000Y-92849996D01*
X136180795Y-158565388D02*
X142407300Y-158565388D01*
X98240000Y-103850000D02*
X126654520Y-153065392D01*
D11*
X166600000Y-99370000D02*
G75*
G02*
X163100000Y-99370000I-1750000J0D01*
G01*
X163100000Y-99370000D02*
G75*
G02*
X166600000Y-99370000I1750000J0D01*
G01*
X141900000Y-146640000D02*
G75*
G02*
X138400000Y-146640000I-1750000J0D01*
G01*
X138400000Y-146640000D02*
G75*
G02*
X141900000Y-146640000I1750000J0D01*
G01*
D10*
X151933571Y-153065394D02*
X180348092Y-103850000D01*
D11*
X157795674Y-122112220D02*
G75*
G02*
X154295674Y-122112220I-1750000J0D01*
G01*
X154295674Y-122112220D02*
G75*
G02*
X157795674Y-122112220I1750000J0D01*
G01*
D10*
X136180795Y-158565388D02*
G75*
G02*
X126654527Y-153065388I5J10999988D01*
G01*
X98240000Y-103850000D02*
G75*
G02*
X98240002Y-92849997I9526300J5500000D01*
G01*
X101353249Y-87457691D02*
G75*
G02*
X110879528Y-81957720I9526251J-5500009D01*
G01*
X151933571Y-153065394D02*
G75*
G02*
X142407300Y-158565390I-9526271J5499994D01*
G01*
D11*
X125240000Y-122070000D02*
G75*
G02*
X121740000Y-122070000I-1750000J0D01*
G01*
X121740000Y-122070000D02*
G75*
G02*
X125240000Y-122070000I1750000J0D01*
G01*
D10*
X167708566Y-81957693D02*
X110879528Y-81957693D01*
X180348092Y-92849996D02*
G75*
G02*
X180348094Y-103850001I-9526292J-5500004D01*
G01*
D11*
X108830000Y-111850000D02*
G75*
G02*
X105330000Y-111850000I-1750000J0D01*
G01*
X105330000Y-111850000D02*
G75*
G02*
X108830000Y-111850000I1750000J0D01*
G01*
M02*
