%TF.GenerationSoftware,KiCad,Pcbnew,9.0.5*%
%TF.CreationDate,2026-06-19T15:20:49+05:30*%
%TF.ProjectId,esp32_nichrome_wire,65737033-325f-46e6-9963-68726f6d655f,rev?*%
%TF.SameCoordinates,Original*%
%TF.FileFunction,Legend,Top*%
%TF.FilePolarity,Positive*%
%FSLAX46Y46*%
G04 Gerber Fmt 4.6, Leading zero omitted, Abs format (unit mm)*
G04 Created by KiCad (PCBNEW 9.0.5) date 2026-06-19 15:20:49*
%MOMM*%
%LPD*%
G01*
G04 APERTURE LIST*
%ADD10C,0.150000*%
%ADD11C,0.125000*%
%ADD12C,0.127000*%
%ADD13C,0.200000*%
%ADD14C,0.120000*%
G04 APERTURE END LIST*
D10*
X153251905Y-84541009D02*
X153585238Y-84541009D01*
X153728095Y-85064819D02*
X153251905Y-85064819D01*
X153251905Y-85064819D02*
X153251905Y-84064819D01*
X153251905Y-84064819D02*
X153728095Y-84064819D01*
X154156667Y-85064819D02*
X154156667Y-84064819D01*
X154156667Y-84064819D02*
X154728095Y-85064819D01*
X154728095Y-85064819D02*
X154728095Y-84064819D01*
D11*
X122971428Y-84692904D02*
X123042856Y-84716714D01*
X123042856Y-84716714D02*
X123066666Y-84740523D01*
X123066666Y-84740523D02*
X123090475Y-84788142D01*
X123090475Y-84788142D02*
X123090475Y-84859571D01*
X123090475Y-84859571D02*
X123066666Y-84907190D01*
X123066666Y-84907190D02*
X123042856Y-84931000D01*
X123042856Y-84931000D02*
X122995237Y-84954809D01*
X122995237Y-84954809D02*
X122804761Y-84954809D01*
X122804761Y-84954809D02*
X122804761Y-84454809D01*
X122804761Y-84454809D02*
X122971428Y-84454809D01*
X122971428Y-84454809D02*
X123019047Y-84478619D01*
X123019047Y-84478619D02*
X123042856Y-84502428D01*
X123042856Y-84502428D02*
X123066666Y-84550047D01*
X123066666Y-84550047D02*
X123066666Y-84597666D01*
X123066666Y-84597666D02*
X123042856Y-84645285D01*
X123042856Y-84645285D02*
X123019047Y-84669095D01*
X123019047Y-84669095D02*
X122971428Y-84692904D01*
X122971428Y-84692904D02*
X122804761Y-84692904D01*
X123399999Y-84454809D02*
X123495237Y-84454809D01*
X123495237Y-84454809D02*
X123542856Y-84478619D01*
X123542856Y-84478619D02*
X123590475Y-84526238D01*
X123590475Y-84526238D02*
X123614285Y-84621476D01*
X123614285Y-84621476D02*
X123614285Y-84788142D01*
X123614285Y-84788142D02*
X123590475Y-84883380D01*
X123590475Y-84883380D02*
X123542856Y-84931000D01*
X123542856Y-84931000D02*
X123495237Y-84954809D01*
X123495237Y-84954809D02*
X123399999Y-84954809D01*
X123399999Y-84954809D02*
X123352380Y-84931000D01*
X123352380Y-84931000D02*
X123304761Y-84883380D01*
X123304761Y-84883380D02*
X123280952Y-84788142D01*
X123280952Y-84788142D02*
X123280952Y-84621476D01*
X123280952Y-84621476D02*
X123304761Y-84526238D01*
X123304761Y-84526238D02*
X123352380Y-84478619D01*
X123352380Y-84478619D02*
X123399999Y-84454809D01*
X123923809Y-84454809D02*
X124019047Y-84454809D01*
X124019047Y-84454809D02*
X124066666Y-84478619D01*
X124066666Y-84478619D02*
X124114285Y-84526238D01*
X124114285Y-84526238D02*
X124138095Y-84621476D01*
X124138095Y-84621476D02*
X124138095Y-84788142D01*
X124138095Y-84788142D02*
X124114285Y-84883380D01*
X124114285Y-84883380D02*
X124066666Y-84931000D01*
X124066666Y-84931000D02*
X124019047Y-84954809D01*
X124019047Y-84954809D02*
X123923809Y-84954809D01*
X123923809Y-84954809D02*
X123876190Y-84931000D01*
X123876190Y-84931000D02*
X123828571Y-84883380D01*
X123828571Y-84883380D02*
X123804762Y-84788142D01*
X123804762Y-84788142D02*
X123804762Y-84621476D01*
X123804762Y-84621476D02*
X123828571Y-84526238D01*
X123828571Y-84526238D02*
X123876190Y-84478619D01*
X123876190Y-84478619D02*
X123923809Y-84454809D01*
X124280953Y-84454809D02*
X124566667Y-84454809D01*
X124423810Y-84954809D02*
X124423810Y-84454809D01*
D10*
X101551667Y-90842200D02*
X101694524Y-90889819D01*
X101694524Y-90889819D02*
X101932619Y-90889819D01*
X101932619Y-90889819D02*
X102027857Y-90842200D01*
X102027857Y-90842200D02*
X102075476Y-90794580D01*
X102075476Y-90794580D02*
X102123095Y-90699342D01*
X102123095Y-90699342D02*
X102123095Y-90604104D01*
X102123095Y-90604104D02*
X102075476Y-90508866D01*
X102075476Y-90508866D02*
X102027857Y-90461247D01*
X102027857Y-90461247D02*
X101932619Y-90413628D01*
X101932619Y-90413628D02*
X101742143Y-90366009D01*
X101742143Y-90366009D02*
X101646905Y-90318390D01*
X101646905Y-90318390D02*
X101599286Y-90270771D01*
X101599286Y-90270771D02*
X101551667Y-90175533D01*
X101551667Y-90175533D02*
X101551667Y-90080295D01*
X101551667Y-90080295D02*
X101599286Y-89985057D01*
X101599286Y-89985057D02*
X101646905Y-89937438D01*
X101646905Y-89937438D02*
X101742143Y-89889819D01*
X101742143Y-89889819D02*
X101980238Y-89889819D01*
X101980238Y-89889819D02*
X102123095Y-89937438D01*
X102456429Y-89889819D02*
X102694524Y-90889819D01*
X102694524Y-90889819D02*
X102885000Y-90175533D01*
X102885000Y-90175533D02*
X103075476Y-90889819D01*
X103075476Y-90889819D02*
X103313572Y-89889819D01*
X103599286Y-89889819D02*
X104218333Y-89889819D01*
X104218333Y-89889819D02*
X103885000Y-90270771D01*
X103885000Y-90270771D02*
X104027857Y-90270771D01*
X104027857Y-90270771D02*
X104123095Y-90318390D01*
X104123095Y-90318390D02*
X104170714Y-90366009D01*
X104170714Y-90366009D02*
X104218333Y-90461247D01*
X104218333Y-90461247D02*
X104218333Y-90699342D01*
X104218333Y-90699342D02*
X104170714Y-90794580D01*
X104170714Y-90794580D02*
X104123095Y-90842200D01*
X104123095Y-90842200D02*
X104027857Y-90889819D01*
X104027857Y-90889819D02*
X103742143Y-90889819D01*
X103742143Y-90889819D02*
X103646905Y-90842200D01*
X103646905Y-90842200D02*
X103599286Y-90794580D01*
X123473333Y-87049580D02*
X123425714Y-87097200D01*
X123425714Y-87097200D02*
X123282857Y-87144819D01*
X123282857Y-87144819D02*
X123187619Y-87144819D01*
X123187619Y-87144819D02*
X123044762Y-87097200D01*
X123044762Y-87097200D02*
X122949524Y-87001961D01*
X122949524Y-87001961D02*
X122901905Y-86906723D01*
X122901905Y-86906723D02*
X122854286Y-86716247D01*
X122854286Y-86716247D02*
X122854286Y-86573390D01*
X122854286Y-86573390D02*
X122901905Y-86382914D01*
X122901905Y-86382914D02*
X122949524Y-86287676D01*
X122949524Y-86287676D02*
X123044762Y-86192438D01*
X123044762Y-86192438D02*
X123187619Y-86144819D01*
X123187619Y-86144819D02*
X123282857Y-86144819D01*
X123282857Y-86144819D02*
X123425714Y-86192438D01*
X123425714Y-86192438D02*
X123473333Y-86240057D01*
X124425714Y-87144819D02*
X123854286Y-87144819D01*
X124140000Y-87144819D02*
X124140000Y-86144819D01*
X124140000Y-86144819D02*
X124044762Y-86287676D01*
X124044762Y-86287676D02*
X123949524Y-86382914D01*
X123949524Y-86382914D02*
X123854286Y-86430533D01*
X128201905Y-104924819D02*
X128201905Y-103924819D01*
X128201905Y-103924819D02*
X128440000Y-103924819D01*
X128440000Y-103924819D02*
X128582857Y-103972438D01*
X128582857Y-103972438D02*
X128678095Y-104067676D01*
X128678095Y-104067676D02*
X128725714Y-104162914D01*
X128725714Y-104162914D02*
X128773333Y-104353390D01*
X128773333Y-104353390D02*
X128773333Y-104496247D01*
X128773333Y-104496247D02*
X128725714Y-104686723D01*
X128725714Y-104686723D02*
X128678095Y-104781961D01*
X128678095Y-104781961D02*
X128582857Y-104877200D01*
X128582857Y-104877200D02*
X128440000Y-104924819D01*
X128440000Y-104924819D02*
X128201905Y-104924819D01*
X129630476Y-104258152D02*
X129630476Y-104924819D01*
X129392381Y-103877200D02*
X129154286Y-104591485D01*
X129154286Y-104591485D02*
X129773333Y-104591485D01*
X119978095Y-91804819D02*
X119978095Y-92614342D01*
X119978095Y-92614342D02*
X120025714Y-92709580D01*
X120025714Y-92709580D02*
X120073333Y-92757200D01*
X120073333Y-92757200D02*
X120168571Y-92804819D01*
X120168571Y-92804819D02*
X120359047Y-92804819D01*
X120359047Y-92804819D02*
X120454285Y-92757200D01*
X120454285Y-92757200D02*
X120501904Y-92709580D01*
X120501904Y-92709580D02*
X120549523Y-92614342D01*
X120549523Y-92614342D02*
X120549523Y-91804819D01*
X120978095Y-91900057D02*
X121025714Y-91852438D01*
X121025714Y-91852438D02*
X121120952Y-91804819D01*
X121120952Y-91804819D02*
X121359047Y-91804819D01*
X121359047Y-91804819D02*
X121454285Y-91852438D01*
X121454285Y-91852438D02*
X121501904Y-91900057D01*
X121501904Y-91900057D02*
X121549523Y-91995295D01*
X121549523Y-91995295D02*
X121549523Y-92090533D01*
X121549523Y-92090533D02*
X121501904Y-92233390D01*
X121501904Y-92233390D02*
X120930476Y-92804819D01*
X120930476Y-92804819D02*
X121549523Y-92804819D01*
X161760119Y-116443583D02*
X162378709Y-116800726D01*
X162378709Y-116800726D02*
X162478617Y-116913394D01*
X162478617Y-116913394D02*
X162513477Y-117043492D01*
X162513477Y-117043492D02*
X162483287Y-117191019D01*
X162483287Y-117191019D02*
X162435668Y-117273498D01*
X161950596Y-116113669D02*
X162283929Y-115536318D01*
X162283929Y-115536318D02*
X162935669Y-116407472D01*
X140614761Y-114120057D02*
X140519523Y-114072438D01*
X140519523Y-114072438D02*
X140424285Y-113977200D01*
X140424285Y-113977200D02*
X140281428Y-113834342D01*
X140281428Y-113834342D02*
X140186190Y-113786723D01*
X140186190Y-113786723D02*
X140090952Y-113786723D01*
X140138571Y-114024819D02*
X140043333Y-113977200D01*
X140043333Y-113977200D02*
X139948095Y-113881961D01*
X139948095Y-113881961D02*
X139900476Y-113691485D01*
X139900476Y-113691485D02*
X139900476Y-113358152D01*
X139900476Y-113358152D02*
X139948095Y-113167676D01*
X139948095Y-113167676D02*
X140043333Y-113072438D01*
X140043333Y-113072438D02*
X140138571Y-113024819D01*
X140138571Y-113024819D02*
X140329047Y-113024819D01*
X140329047Y-113024819D02*
X140424285Y-113072438D01*
X140424285Y-113072438D02*
X140519523Y-113167676D01*
X140519523Y-113167676D02*
X140567142Y-113358152D01*
X140567142Y-113358152D02*
X140567142Y-113691485D01*
X140567142Y-113691485D02*
X140519523Y-113881961D01*
X140519523Y-113881961D02*
X140424285Y-113977200D01*
X140424285Y-113977200D02*
X140329047Y-114024819D01*
X140329047Y-114024819D02*
X140138571Y-114024819D01*
X140948095Y-113120057D02*
X140995714Y-113072438D01*
X140995714Y-113072438D02*
X141090952Y-113024819D01*
X141090952Y-113024819D02*
X141329047Y-113024819D01*
X141329047Y-113024819D02*
X141424285Y-113072438D01*
X141424285Y-113072438D02*
X141471904Y-113120057D01*
X141471904Y-113120057D02*
X141519523Y-113215295D01*
X141519523Y-113215295D02*
X141519523Y-113310533D01*
X141519523Y-113310533D02*
X141471904Y-113453390D01*
X141471904Y-113453390D02*
X140900476Y-114024819D01*
X140900476Y-114024819D02*
X141519523Y-114024819D01*
D11*
X125569776Y-84963812D02*
X125641204Y-84987621D01*
X125641204Y-84987621D02*
X125760252Y-84987621D01*
X125760252Y-84987621D02*
X125807871Y-84963812D01*
X125807871Y-84963812D02*
X125831680Y-84940002D01*
X125831680Y-84940002D02*
X125855490Y-84892383D01*
X125855490Y-84892383D02*
X125855490Y-84844764D01*
X125855490Y-84844764D02*
X125831680Y-84797145D01*
X125831680Y-84797145D02*
X125807871Y-84773335D01*
X125807871Y-84773335D02*
X125760252Y-84749526D01*
X125760252Y-84749526D02*
X125665014Y-84725716D01*
X125665014Y-84725716D02*
X125617395Y-84701907D01*
X125617395Y-84701907D02*
X125593585Y-84678097D01*
X125593585Y-84678097D02*
X125569776Y-84630478D01*
X125569776Y-84630478D02*
X125569776Y-84582859D01*
X125569776Y-84582859D02*
X125593585Y-84535240D01*
X125593585Y-84535240D02*
X125617395Y-84511431D01*
X125617395Y-84511431D02*
X125665014Y-84487621D01*
X125665014Y-84487621D02*
X125784061Y-84487621D01*
X125784061Y-84487621D02*
X125855490Y-84511431D01*
X126022156Y-84487621D02*
X126141204Y-84987621D01*
X126141204Y-84987621D02*
X126236442Y-84630478D01*
X126236442Y-84630478D02*
X126331680Y-84987621D01*
X126331680Y-84987621D02*
X126450728Y-84487621D01*
X126617395Y-84535240D02*
X126641204Y-84511431D01*
X126641204Y-84511431D02*
X126688823Y-84487621D01*
X126688823Y-84487621D02*
X126807871Y-84487621D01*
X126807871Y-84487621D02*
X126855490Y-84511431D01*
X126855490Y-84511431D02*
X126879299Y-84535240D01*
X126879299Y-84535240D02*
X126903109Y-84582859D01*
X126903109Y-84582859D02*
X126903109Y-84630478D01*
X126903109Y-84630478D02*
X126879299Y-84701907D01*
X126879299Y-84701907D02*
X126593585Y-84987621D01*
X126593585Y-84987621D02*
X126903109Y-84987621D01*
D10*
X110318095Y-93034819D02*
X110318095Y-93844342D01*
X110318095Y-93844342D02*
X110365714Y-93939580D01*
X110365714Y-93939580D02*
X110413333Y-93987200D01*
X110413333Y-93987200D02*
X110508571Y-94034819D01*
X110508571Y-94034819D02*
X110699047Y-94034819D01*
X110699047Y-94034819D02*
X110794285Y-93987200D01*
X110794285Y-93987200D02*
X110841904Y-93939580D01*
X110841904Y-93939580D02*
X110889523Y-93844342D01*
X110889523Y-93844342D02*
X110889523Y-93034819D01*
X111270476Y-93034819D02*
X111937142Y-93034819D01*
X111937142Y-93034819D02*
X111508571Y-94034819D01*
X138128095Y-133324819D02*
X138128095Y-134134342D01*
X138128095Y-134134342D02*
X138175714Y-134229580D01*
X138175714Y-134229580D02*
X138223333Y-134277200D01*
X138223333Y-134277200D02*
X138318571Y-134324819D01*
X138318571Y-134324819D02*
X138509047Y-134324819D01*
X138509047Y-134324819D02*
X138604285Y-134277200D01*
X138604285Y-134277200D02*
X138651904Y-134229580D01*
X138651904Y-134229580D02*
X138699523Y-134134342D01*
X138699523Y-134134342D02*
X138699523Y-133324819D01*
X139080476Y-133324819D02*
X139699523Y-133324819D01*
X139699523Y-133324819D02*
X139366190Y-133705771D01*
X139366190Y-133705771D02*
X139509047Y-133705771D01*
X139509047Y-133705771D02*
X139604285Y-133753390D01*
X139604285Y-133753390D02*
X139651904Y-133801009D01*
X139651904Y-133801009D02*
X139699523Y-133896247D01*
X139699523Y-133896247D02*
X139699523Y-134134342D01*
X139699523Y-134134342D02*
X139651904Y-134229580D01*
X139651904Y-134229580D02*
X139604285Y-134277200D01*
X139604285Y-134277200D02*
X139509047Y-134324819D01*
X139509047Y-134324819D02*
X139223333Y-134324819D01*
X139223333Y-134324819D02*
X139128095Y-134277200D01*
X139128095Y-134277200D02*
X139080476Y-134229580D01*
X109553333Y-108689580D02*
X109505714Y-108737200D01*
X109505714Y-108737200D02*
X109362857Y-108784819D01*
X109362857Y-108784819D02*
X109267619Y-108784819D01*
X109267619Y-108784819D02*
X109124762Y-108737200D01*
X109124762Y-108737200D02*
X109029524Y-108641961D01*
X109029524Y-108641961D02*
X108981905Y-108546723D01*
X108981905Y-108546723D02*
X108934286Y-108356247D01*
X108934286Y-108356247D02*
X108934286Y-108213390D01*
X108934286Y-108213390D02*
X108981905Y-108022914D01*
X108981905Y-108022914D02*
X109029524Y-107927676D01*
X109029524Y-107927676D02*
X109124762Y-107832438D01*
X109124762Y-107832438D02*
X109267619Y-107784819D01*
X109267619Y-107784819D02*
X109362857Y-107784819D01*
X109362857Y-107784819D02*
X109505714Y-107832438D01*
X109505714Y-107832438D02*
X109553333Y-107880057D01*
X110458095Y-107784819D02*
X109981905Y-107784819D01*
X109981905Y-107784819D02*
X109934286Y-108261009D01*
X109934286Y-108261009D02*
X109981905Y-108213390D01*
X109981905Y-108213390D02*
X110077143Y-108165771D01*
X110077143Y-108165771D02*
X110315238Y-108165771D01*
X110315238Y-108165771D02*
X110410476Y-108213390D01*
X110410476Y-108213390D02*
X110458095Y-108261009D01*
X110458095Y-108261009D02*
X110505714Y-108356247D01*
X110505714Y-108356247D02*
X110505714Y-108594342D01*
X110505714Y-108594342D02*
X110458095Y-108689580D01*
X110458095Y-108689580D02*
X110410476Y-108737200D01*
X110410476Y-108737200D02*
X110315238Y-108784819D01*
X110315238Y-108784819D02*
X110077143Y-108784819D01*
X110077143Y-108784819D02*
X109981905Y-108737200D01*
X109981905Y-108737200D02*
X109934286Y-108689580D01*
X150427142Y-98944819D02*
X150093809Y-98468628D01*
X149855714Y-98944819D02*
X149855714Y-97944819D01*
X149855714Y-97944819D02*
X150236666Y-97944819D01*
X150236666Y-97944819D02*
X150331904Y-97992438D01*
X150331904Y-97992438D02*
X150379523Y-98040057D01*
X150379523Y-98040057D02*
X150427142Y-98135295D01*
X150427142Y-98135295D02*
X150427142Y-98278152D01*
X150427142Y-98278152D02*
X150379523Y-98373390D01*
X150379523Y-98373390D02*
X150331904Y-98421009D01*
X150331904Y-98421009D02*
X150236666Y-98468628D01*
X150236666Y-98468628D02*
X149855714Y-98468628D01*
X151379523Y-98944819D02*
X150808095Y-98944819D01*
X151093809Y-98944819D02*
X151093809Y-97944819D01*
X151093809Y-97944819D02*
X150998571Y-98087676D01*
X150998571Y-98087676D02*
X150903333Y-98182914D01*
X150903333Y-98182914D02*
X150808095Y-98230533D01*
X152284285Y-97944819D02*
X151808095Y-97944819D01*
X151808095Y-97944819D02*
X151760476Y-98421009D01*
X151760476Y-98421009D02*
X151808095Y-98373390D01*
X151808095Y-98373390D02*
X151903333Y-98325771D01*
X151903333Y-98325771D02*
X152141428Y-98325771D01*
X152141428Y-98325771D02*
X152236666Y-98373390D01*
X152236666Y-98373390D02*
X152284285Y-98421009D01*
X152284285Y-98421009D02*
X152331904Y-98516247D01*
X152331904Y-98516247D02*
X152331904Y-98754342D01*
X152331904Y-98754342D02*
X152284285Y-98849580D01*
X152284285Y-98849580D02*
X152236666Y-98897200D01*
X152236666Y-98897200D02*
X152141428Y-98944819D01*
X152141428Y-98944819D02*
X151903333Y-98944819D01*
X151903333Y-98944819D02*
X151808095Y-98897200D01*
X151808095Y-98897200D02*
X151760476Y-98849580D01*
X114453333Y-94549580D02*
X114405714Y-94597200D01*
X114405714Y-94597200D02*
X114262857Y-94644819D01*
X114262857Y-94644819D02*
X114167619Y-94644819D01*
X114167619Y-94644819D02*
X114024762Y-94597200D01*
X114024762Y-94597200D02*
X113929524Y-94501961D01*
X113929524Y-94501961D02*
X113881905Y-94406723D01*
X113881905Y-94406723D02*
X113834286Y-94216247D01*
X113834286Y-94216247D02*
X113834286Y-94073390D01*
X113834286Y-94073390D02*
X113881905Y-93882914D01*
X113881905Y-93882914D02*
X113929524Y-93787676D01*
X113929524Y-93787676D02*
X114024762Y-93692438D01*
X114024762Y-93692438D02*
X114167619Y-93644819D01*
X114167619Y-93644819D02*
X114262857Y-93644819D01*
X114262857Y-93644819D02*
X114405714Y-93692438D01*
X114405714Y-93692438D02*
X114453333Y-93740057D01*
X114786667Y-93644819D02*
X115405714Y-93644819D01*
X115405714Y-93644819D02*
X115072381Y-94025771D01*
X115072381Y-94025771D02*
X115215238Y-94025771D01*
X115215238Y-94025771D02*
X115310476Y-94073390D01*
X115310476Y-94073390D02*
X115358095Y-94121009D01*
X115358095Y-94121009D02*
X115405714Y-94216247D01*
X115405714Y-94216247D02*
X115405714Y-94454342D01*
X115405714Y-94454342D02*
X115358095Y-94549580D01*
X115358095Y-94549580D02*
X115310476Y-94597200D01*
X115310476Y-94597200D02*
X115215238Y-94644819D01*
X115215238Y-94644819D02*
X114929524Y-94644819D01*
X114929524Y-94644819D02*
X114834286Y-94597200D01*
X114834286Y-94597200D02*
X114786667Y-94549580D01*
X124730311Y-130829278D02*
X124111722Y-131186421D01*
X124111722Y-131186421D02*
X123964194Y-131216610D01*
X123964194Y-131216610D02*
X123834097Y-131181750D01*
X123834097Y-131181750D02*
X123721429Y-131081842D01*
X123721429Y-131081842D02*
X123673810Y-130999363D01*
X125182692Y-131612825D02*
X125087454Y-131447868D01*
X125087454Y-131447868D02*
X124998596Y-131389198D01*
X124998596Y-131389198D02*
X124933547Y-131371769D01*
X124933547Y-131371769D02*
X124762210Y-131360719D01*
X124762210Y-131360719D02*
X124573443Y-131414717D01*
X124573443Y-131414717D02*
X124243529Y-131605194D01*
X124243529Y-131605194D02*
X124184860Y-131694052D01*
X124184860Y-131694052D02*
X124167430Y-131759101D01*
X124167430Y-131759101D02*
X124173810Y-131865389D01*
X124173810Y-131865389D02*
X124269048Y-132030346D01*
X124269048Y-132030346D02*
X124357906Y-132089015D01*
X124357906Y-132089015D02*
X124422955Y-132106445D01*
X124422955Y-132106445D02*
X124529243Y-132100065D01*
X124529243Y-132100065D02*
X124735440Y-131981018D01*
X124735440Y-131981018D02*
X124794109Y-131892159D01*
X124794109Y-131892159D02*
X124811539Y-131827110D01*
X124811539Y-131827110D02*
X124805159Y-131720822D01*
X124805159Y-131720822D02*
X124709921Y-131555865D01*
X124709921Y-131555865D02*
X124621062Y-131497196D01*
X124621062Y-131497196D02*
X124556014Y-131479766D01*
X124556014Y-131479766D02*
X124449725Y-131486146D01*
X129274761Y-114140057D02*
X129179523Y-114092438D01*
X129179523Y-114092438D02*
X129084285Y-113997200D01*
X129084285Y-113997200D02*
X128941428Y-113854342D01*
X128941428Y-113854342D02*
X128846190Y-113806723D01*
X128846190Y-113806723D02*
X128750952Y-113806723D01*
X128798571Y-114044819D02*
X128703333Y-113997200D01*
X128703333Y-113997200D02*
X128608095Y-113901961D01*
X128608095Y-113901961D02*
X128560476Y-113711485D01*
X128560476Y-113711485D02*
X128560476Y-113378152D01*
X128560476Y-113378152D02*
X128608095Y-113187676D01*
X128608095Y-113187676D02*
X128703333Y-113092438D01*
X128703333Y-113092438D02*
X128798571Y-113044819D01*
X128798571Y-113044819D02*
X128989047Y-113044819D01*
X128989047Y-113044819D02*
X129084285Y-113092438D01*
X129084285Y-113092438D02*
X129179523Y-113187676D01*
X129179523Y-113187676D02*
X129227142Y-113378152D01*
X129227142Y-113378152D02*
X129227142Y-113711485D01*
X129227142Y-113711485D02*
X129179523Y-113901961D01*
X129179523Y-113901961D02*
X129084285Y-113997200D01*
X129084285Y-113997200D02*
X128989047Y-114044819D01*
X128989047Y-114044819D02*
X128798571Y-114044819D01*
X129560476Y-113044819D02*
X130179523Y-113044819D01*
X130179523Y-113044819D02*
X129846190Y-113425771D01*
X129846190Y-113425771D02*
X129989047Y-113425771D01*
X129989047Y-113425771D02*
X130084285Y-113473390D01*
X130084285Y-113473390D02*
X130131904Y-113521009D01*
X130131904Y-113521009D02*
X130179523Y-113616247D01*
X130179523Y-113616247D02*
X130179523Y-113854342D01*
X130179523Y-113854342D02*
X130131904Y-113949580D01*
X130131904Y-113949580D02*
X130084285Y-113997200D01*
X130084285Y-113997200D02*
X129989047Y-114044819D01*
X129989047Y-114044819D02*
X129703333Y-114044819D01*
X129703333Y-114044819D02*
X129608095Y-113997200D01*
X129608095Y-113997200D02*
X129560476Y-113949580D01*
X123593333Y-100269580D02*
X123545714Y-100317200D01*
X123545714Y-100317200D02*
X123402857Y-100364819D01*
X123402857Y-100364819D02*
X123307619Y-100364819D01*
X123307619Y-100364819D02*
X123164762Y-100317200D01*
X123164762Y-100317200D02*
X123069524Y-100221961D01*
X123069524Y-100221961D02*
X123021905Y-100126723D01*
X123021905Y-100126723D02*
X122974286Y-99936247D01*
X122974286Y-99936247D02*
X122974286Y-99793390D01*
X122974286Y-99793390D02*
X123021905Y-99602914D01*
X123021905Y-99602914D02*
X123069524Y-99507676D01*
X123069524Y-99507676D02*
X123164762Y-99412438D01*
X123164762Y-99412438D02*
X123307619Y-99364819D01*
X123307619Y-99364819D02*
X123402857Y-99364819D01*
X123402857Y-99364819D02*
X123545714Y-99412438D01*
X123545714Y-99412438D02*
X123593333Y-99460057D01*
X124450476Y-99698152D02*
X124450476Y-100364819D01*
X124212381Y-99317200D02*
X123974286Y-100031485D01*
X123974286Y-100031485D02*
X124593333Y-100031485D01*
X160161905Y-112304819D02*
X160161905Y-111304819D01*
X160161905Y-111304819D02*
X160400000Y-111304819D01*
X160400000Y-111304819D02*
X160542857Y-111352438D01*
X160542857Y-111352438D02*
X160638095Y-111447676D01*
X160638095Y-111447676D02*
X160685714Y-111542914D01*
X160685714Y-111542914D02*
X160733333Y-111733390D01*
X160733333Y-111733390D02*
X160733333Y-111876247D01*
X160733333Y-111876247D02*
X160685714Y-112066723D01*
X160685714Y-112066723D02*
X160638095Y-112161961D01*
X160638095Y-112161961D02*
X160542857Y-112257200D01*
X160542857Y-112257200D02*
X160400000Y-112304819D01*
X160400000Y-112304819D02*
X160161905Y-112304819D01*
X161685714Y-112304819D02*
X161114286Y-112304819D01*
X161400000Y-112304819D02*
X161400000Y-111304819D01*
X161400000Y-111304819D02*
X161304762Y-111447676D01*
X161304762Y-111447676D02*
X161209524Y-111542914D01*
X161209524Y-111542914D02*
X161114286Y-111590533D01*
X123913333Y-117274819D02*
X123580000Y-116798628D01*
X123341905Y-117274819D02*
X123341905Y-116274819D01*
X123341905Y-116274819D02*
X123722857Y-116274819D01*
X123722857Y-116274819D02*
X123818095Y-116322438D01*
X123818095Y-116322438D02*
X123865714Y-116370057D01*
X123865714Y-116370057D02*
X123913333Y-116465295D01*
X123913333Y-116465295D02*
X123913333Y-116608152D01*
X123913333Y-116608152D02*
X123865714Y-116703390D01*
X123865714Y-116703390D02*
X123818095Y-116751009D01*
X123818095Y-116751009D02*
X123722857Y-116798628D01*
X123722857Y-116798628D02*
X123341905Y-116798628D01*
X124818095Y-116274819D02*
X124341905Y-116274819D01*
X124341905Y-116274819D02*
X124294286Y-116751009D01*
X124294286Y-116751009D02*
X124341905Y-116703390D01*
X124341905Y-116703390D02*
X124437143Y-116655771D01*
X124437143Y-116655771D02*
X124675238Y-116655771D01*
X124675238Y-116655771D02*
X124770476Y-116703390D01*
X124770476Y-116703390D02*
X124818095Y-116751009D01*
X124818095Y-116751009D02*
X124865714Y-116846247D01*
X124865714Y-116846247D02*
X124865714Y-117084342D01*
X124865714Y-117084342D02*
X124818095Y-117179580D01*
X124818095Y-117179580D02*
X124770476Y-117227200D01*
X124770476Y-117227200D02*
X124675238Y-117274819D01*
X124675238Y-117274819D02*
X124437143Y-117274819D01*
X124437143Y-117274819D02*
X124341905Y-117227200D01*
X124341905Y-117227200D02*
X124294286Y-117179580D01*
X141673333Y-104974819D02*
X141340000Y-104498628D01*
X141101905Y-104974819D02*
X141101905Y-103974819D01*
X141101905Y-103974819D02*
X141482857Y-103974819D01*
X141482857Y-103974819D02*
X141578095Y-104022438D01*
X141578095Y-104022438D02*
X141625714Y-104070057D01*
X141625714Y-104070057D02*
X141673333Y-104165295D01*
X141673333Y-104165295D02*
X141673333Y-104308152D01*
X141673333Y-104308152D02*
X141625714Y-104403390D01*
X141625714Y-104403390D02*
X141578095Y-104451009D01*
X141578095Y-104451009D02*
X141482857Y-104498628D01*
X141482857Y-104498628D02*
X141101905Y-104498628D01*
X142530476Y-104308152D02*
X142530476Y-104974819D01*
X142292381Y-103927200D02*
X142054286Y-104641485D01*
X142054286Y-104641485D02*
X142673333Y-104641485D01*
X139708095Y-118054819D02*
X139708095Y-118864342D01*
X139708095Y-118864342D02*
X139755714Y-118959580D01*
X139755714Y-118959580D02*
X139803333Y-119007200D01*
X139803333Y-119007200D02*
X139898571Y-119054819D01*
X139898571Y-119054819D02*
X140089047Y-119054819D01*
X140089047Y-119054819D02*
X140184285Y-119007200D01*
X140184285Y-119007200D02*
X140231904Y-118959580D01*
X140231904Y-118959580D02*
X140279523Y-118864342D01*
X140279523Y-118864342D02*
X140279523Y-118054819D01*
X141231904Y-118054819D02*
X140755714Y-118054819D01*
X140755714Y-118054819D02*
X140708095Y-118531009D01*
X140708095Y-118531009D02*
X140755714Y-118483390D01*
X140755714Y-118483390D02*
X140850952Y-118435771D01*
X140850952Y-118435771D02*
X141089047Y-118435771D01*
X141089047Y-118435771D02*
X141184285Y-118483390D01*
X141184285Y-118483390D02*
X141231904Y-118531009D01*
X141231904Y-118531009D02*
X141279523Y-118626247D01*
X141279523Y-118626247D02*
X141279523Y-118864342D01*
X141279523Y-118864342D02*
X141231904Y-118959580D01*
X141231904Y-118959580D02*
X141184285Y-119007200D01*
X141184285Y-119007200D02*
X141089047Y-119054819D01*
X141089047Y-119054819D02*
X140850952Y-119054819D01*
X140850952Y-119054819D02*
X140755714Y-119007200D01*
X140755714Y-119007200D02*
X140708095Y-118959580D01*
X151103333Y-93194819D02*
X150770000Y-92718628D01*
X150531905Y-93194819D02*
X150531905Y-92194819D01*
X150531905Y-92194819D02*
X150912857Y-92194819D01*
X150912857Y-92194819D02*
X151008095Y-92242438D01*
X151008095Y-92242438D02*
X151055714Y-92290057D01*
X151055714Y-92290057D02*
X151103333Y-92385295D01*
X151103333Y-92385295D02*
X151103333Y-92528152D01*
X151103333Y-92528152D02*
X151055714Y-92623390D01*
X151055714Y-92623390D02*
X151008095Y-92671009D01*
X151008095Y-92671009D02*
X150912857Y-92718628D01*
X150912857Y-92718628D02*
X150531905Y-92718628D01*
X151484286Y-92290057D02*
X151531905Y-92242438D01*
X151531905Y-92242438D02*
X151627143Y-92194819D01*
X151627143Y-92194819D02*
X151865238Y-92194819D01*
X151865238Y-92194819D02*
X151960476Y-92242438D01*
X151960476Y-92242438D02*
X152008095Y-92290057D01*
X152008095Y-92290057D02*
X152055714Y-92385295D01*
X152055714Y-92385295D02*
X152055714Y-92480533D01*
X152055714Y-92480533D02*
X152008095Y-92623390D01*
X152008095Y-92623390D02*
X151436667Y-93194819D01*
X151436667Y-93194819D02*
X152055714Y-93194819D01*
X124313333Y-94004819D02*
X123980000Y-93528628D01*
X123741905Y-94004819D02*
X123741905Y-93004819D01*
X123741905Y-93004819D02*
X124122857Y-93004819D01*
X124122857Y-93004819D02*
X124218095Y-93052438D01*
X124218095Y-93052438D02*
X124265714Y-93100057D01*
X124265714Y-93100057D02*
X124313333Y-93195295D01*
X124313333Y-93195295D02*
X124313333Y-93338152D01*
X124313333Y-93338152D02*
X124265714Y-93433390D01*
X124265714Y-93433390D02*
X124218095Y-93481009D01*
X124218095Y-93481009D02*
X124122857Y-93528628D01*
X124122857Y-93528628D02*
X123741905Y-93528628D01*
X125265714Y-94004819D02*
X124694286Y-94004819D01*
X124980000Y-94004819D02*
X124980000Y-93004819D01*
X124980000Y-93004819D02*
X124884762Y-93147676D01*
X124884762Y-93147676D02*
X124789524Y-93242914D01*
X124789524Y-93242914D02*
X124694286Y-93290533D01*
X138698095Y-82884819D02*
X138698095Y-83694342D01*
X138698095Y-83694342D02*
X138745714Y-83789580D01*
X138745714Y-83789580D02*
X138793333Y-83837200D01*
X138793333Y-83837200D02*
X138888571Y-83884819D01*
X138888571Y-83884819D02*
X139079047Y-83884819D01*
X139079047Y-83884819D02*
X139174285Y-83837200D01*
X139174285Y-83837200D02*
X139221904Y-83789580D01*
X139221904Y-83789580D02*
X139269523Y-83694342D01*
X139269523Y-83694342D02*
X139269523Y-82884819D01*
X140269523Y-83884819D02*
X139698095Y-83884819D01*
X139983809Y-83884819D02*
X139983809Y-82884819D01*
X139983809Y-82884819D02*
X139888571Y-83027676D01*
X139888571Y-83027676D02*
X139793333Y-83122914D01*
X139793333Y-83122914D02*
X139698095Y-83170533D01*
X115843333Y-104039580D02*
X115795714Y-104087200D01*
X115795714Y-104087200D02*
X115652857Y-104134819D01*
X115652857Y-104134819D02*
X115557619Y-104134819D01*
X115557619Y-104134819D02*
X115414762Y-104087200D01*
X115414762Y-104087200D02*
X115319524Y-103991961D01*
X115319524Y-103991961D02*
X115271905Y-103896723D01*
X115271905Y-103896723D02*
X115224286Y-103706247D01*
X115224286Y-103706247D02*
X115224286Y-103563390D01*
X115224286Y-103563390D02*
X115271905Y-103372914D01*
X115271905Y-103372914D02*
X115319524Y-103277676D01*
X115319524Y-103277676D02*
X115414762Y-103182438D01*
X115414762Y-103182438D02*
X115557619Y-103134819D01*
X115557619Y-103134819D02*
X115652857Y-103134819D01*
X115652857Y-103134819D02*
X115795714Y-103182438D01*
X115795714Y-103182438D02*
X115843333Y-103230057D01*
X116700476Y-103134819D02*
X116510000Y-103134819D01*
X116510000Y-103134819D02*
X116414762Y-103182438D01*
X116414762Y-103182438D02*
X116367143Y-103230057D01*
X116367143Y-103230057D02*
X116271905Y-103372914D01*
X116271905Y-103372914D02*
X116224286Y-103563390D01*
X116224286Y-103563390D02*
X116224286Y-103944342D01*
X116224286Y-103944342D02*
X116271905Y-104039580D01*
X116271905Y-104039580D02*
X116319524Y-104087200D01*
X116319524Y-104087200D02*
X116414762Y-104134819D01*
X116414762Y-104134819D02*
X116605238Y-104134819D01*
X116605238Y-104134819D02*
X116700476Y-104087200D01*
X116700476Y-104087200D02*
X116748095Y-104039580D01*
X116748095Y-104039580D02*
X116795714Y-103944342D01*
X116795714Y-103944342D02*
X116795714Y-103706247D01*
X116795714Y-103706247D02*
X116748095Y-103611009D01*
X116748095Y-103611009D02*
X116700476Y-103563390D01*
X116700476Y-103563390D02*
X116605238Y-103515771D01*
X116605238Y-103515771D02*
X116414762Y-103515771D01*
X116414762Y-103515771D02*
X116319524Y-103563390D01*
X116319524Y-103563390D02*
X116271905Y-103611009D01*
X116271905Y-103611009D02*
X116224286Y-103706247D01*
X156647142Y-117214819D02*
X156313809Y-116738628D01*
X156075714Y-117214819D02*
X156075714Y-116214819D01*
X156075714Y-116214819D02*
X156456666Y-116214819D01*
X156456666Y-116214819D02*
X156551904Y-116262438D01*
X156551904Y-116262438D02*
X156599523Y-116310057D01*
X156599523Y-116310057D02*
X156647142Y-116405295D01*
X156647142Y-116405295D02*
X156647142Y-116548152D01*
X156647142Y-116548152D02*
X156599523Y-116643390D01*
X156599523Y-116643390D02*
X156551904Y-116691009D01*
X156551904Y-116691009D02*
X156456666Y-116738628D01*
X156456666Y-116738628D02*
X156075714Y-116738628D01*
X157599523Y-117214819D02*
X157028095Y-117214819D01*
X157313809Y-117214819D02*
X157313809Y-116214819D01*
X157313809Y-116214819D02*
X157218571Y-116357676D01*
X157218571Y-116357676D02*
X157123333Y-116452914D01*
X157123333Y-116452914D02*
X157028095Y-116500533D01*
X158456666Y-116548152D02*
X158456666Y-117214819D01*
X158218571Y-116167200D02*
X157980476Y-116881485D01*
X157980476Y-116881485D02*
X158599523Y-116881485D01*
X151114761Y-114170057D02*
X151019523Y-114122438D01*
X151019523Y-114122438D02*
X150924285Y-114027200D01*
X150924285Y-114027200D02*
X150781428Y-113884342D01*
X150781428Y-113884342D02*
X150686190Y-113836723D01*
X150686190Y-113836723D02*
X150590952Y-113836723D01*
X150638571Y-114074819D02*
X150543333Y-114027200D01*
X150543333Y-114027200D02*
X150448095Y-113931961D01*
X150448095Y-113931961D02*
X150400476Y-113741485D01*
X150400476Y-113741485D02*
X150400476Y-113408152D01*
X150400476Y-113408152D02*
X150448095Y-113217676D01*
X150448095Y-113217676D02*
X150543333Y-113122438D01*
X150543333Y-113122438D02*
X150638571Y-113074819D01*
X150638571Y-113074819D02*
X150829047Y-113074819D01*
X150829047Y-113074819D02*
X150924285Y-113122438D01*
X150924285Y-113122438D02*
X151019523Y-113217676D01*
X151019523Y-113217676D02*
X151067142Y-113408152D01*
X151067142Y-113408152D02*
X151067142Y-113741485D01*
X151067142Y-113741485D02*
X151019523Y-113931961D01*
X151019523Y-113931961D02*
X150924285Y-114027200D01*
X150924285Y-114027200D02*
X150829047Y-114074819D01*
X150829047Y-114074819D02*
X150638571Y-114074819D01*
X152019523Y-114074819D02*
X151448095Y-114074819D01*
X151733809Y-114074819D02*
X151733809Y-113074819D01*
X151733809Y-113074819D02*
X151638571Y-113217676D01*
X151638571Y-113217676D02*
X151543333Y-113312914D01*
X151543333Y-113312914D02*
X151448095Y-113360533D01*
X144851905Y-104804819D02*
X144851905Y-103804819D01*
X144851905Y-103804819D02*
X145090000Y-103804819D01*
X145090000Y-103804819D02*
X145232857Y-103852438D01*
X145232857Y-103852438D02*
X145328095Y-103947676D01*
X145328095Y-103947676D02*
X145375714Y-104042914D01*
X145375714Y-104042914D02*
X145423333Y-104233390D01*
X145423333Y-104233390D02*
X145423333Y-104376247D01*
X145423333Y-104376247D02*
X145375714Y-104566723D01*
X145375714Y-104566723D02*
X145328095Y-104661961D01*
X145328095Y-104661961D02*
X145232857Y-104757200D01*
X145232857Y-104757200D02*
X145090000Y-104804819D01*
X145090000Y-104804819D02*
X144851905Y-104804819D01*
X145804286Y-103900057D02*
X145851905Y-103852438D01*
X145851905Y-103852438D02*
X145947143Y-103804819D01*
X145947143Y-103804819D02*
X146185238Y-103804819D01*
X146185238Y-103804819D02*
X146280476Y-103852438D01*
X146280476Y-103852438D02*
X146328095Y-103900057D01*
X146328095Y-103900057D02*
X146375714Y-103995295D01*
X146375714Y-103995295D02*
X146375714Y-104090533D01*
X146375714Y-104090533D02*
X146328095Y-104233390D01*
X146328095Y-104233390D02*
X145756667Y-104804819D01*
X145756667Y-104804819D02*
X146375714Y-104804819D01*
X153323333Y-86964819D02*
X152990000Y-86488628D01*
X152751905Y-86964819D02*
X152751905Y-85964819D01*
X152751905Y-85964819D02*
X153132857Y-85964819D01*
X153132857Y-85964819D02*
X153228095Y-86012438D01*
X153228095Y-86012438D02*
X153275714Y-86060057D01*
X153275714Y-86060057D02*
X153323333Y-86155295D01*
X153323333Y-86155295D02*
X153323333Y-86298152D01*
X153323333Y-86298152D02*
X153275714Y-86393390D01*
X153275714Y-86393390D02*
X153228095Y-86441009D01*
X153228095Y-86441009D02*
X153132857Y-86488628D01*
X153132857Y-86488628D02*
X152751905Y-86488628D01*
X153656667Y-85964819D02*
X154275714Y-85964819D01*
X154275714Y-85964819D02*
X153942381Y-86345771D01*
X153942381Y-86345771D02*
X154085238Y-86345771D01*
X154085238Y-86345771D02*
X154180476Y-86393390D01*
X154180476Y-86393390D02*
X154228095Y-86441009D01*
X154228095Y-86441009D02*
X154275714Y-86536247D01*
X154275714Y-86536247D02*
X154275714Y-86774342D01*
X154275714Y-86774342D02*
X154228095Y-86869580D01*
X154228095Y-86869580D02*
X154180476Y-86917200D01*
X154180476Y-86917200D02*
X154085238Y-86964819D01*
X154085238Y-86964819D02*
X153799524Y-86964819D01*
X153799524Y-86964819D02*
X153704286Y-86917200D01*
X153704286Y-86917200D02*
X153656667Y-86869580D01*
X158254895Y-87238219D02*
X158254895Y-88047742D01*
X158254895Y-88047742D02*
X158302514Y-88142980D01*
X158302514Y-88142980D02*
X158350133Y-88190600D01*
X158350133Y-88190600D02*
X158445371Y-88238219D01*
X158445371Y-88238219D02*
X158635847Y-88238219D01*
X158635847Y-88238219D02*
X158731085Y-88190600D01*
X158731085Y-88190600D02*
X158778704Y-88142980D01*
X158778704Y-88142980D02*
X158826323Y-88047742D01*
X158826323Y-88047742D02*
X158826323Y-87238219D01*
X159731085Y-87571552D02*
X159731085Y-88238219D01*
X159492990Y-87190600D02*
X159254895Y-87904885D01*
X159254895Y-87904885D02*
X159873942Y-87904885D01*
X116734045Y-116323734D02*
X116115456Y-116680877D01*
X116115456Y-116680877D02*
X115967928Y-116711066D01*
X115967928Y-116711066D02*
X115837831Y-116676206D01*
X115837831Y-116676206D02*
X115725163Y-116576298D01*
X115725163Y-116576298D02*
X115677544Y-116493819D01*
X116672416Y-117074131D02*
X116666036Y-116967843D01*
X116666036Y-116967843D02*
X116683466Y-116902794D01*
X116683466Y-116902794D02*
X116742135Y-116813935D01*
X116742135Y-116813935D02*
X116783374Y-116790126D01*
X116783374Y-116790126D02*
X116889662Y-116783746D01*
X116889662Y-116783746D02*
X116954711Y-116801176D01*
X116954711Y-116801176D02*
X117043569Y-116859845D01*
X117043569Y-116859845D02*
X117138807Y-117024802D01*
X117138807Y-117024802D02*
X117145187Y-117131090D01*
X117145187Y-117131090D02*
X117127757Y-117196139D01*
X117127757Y-117196139D02*
X117069088Y-117284997D01*
X117069088Y-117284997D02*
X117027849Y-117308807D01*
X117027849Y-117308807D02*
X116921561Y-117315187D01*
X116921561Y-117315187D02*
X116856512Y-117297757D01*
X116856512Y-117297757D02*
X116767654Y-117239088D01*
X116767654Y-117239088D02*
X116672416Y-117074131D01*
X116672416Y-117074131D02*
X116583557Y-117015462D01*
X116583557Y-117015462D02*
X116518508Y-116998032D01*
X116518508Y-116998032D02*
X116412220Y-117004412D01*
X116412220Y-117004412D02*
X116247263Y-117099650D01*
X116247263Y-117099650D02*
X116188594Y-117188508D01*
X116188594Y-117188508D02*
X116171164Y-117253557D01*
X116171164Y-117253557D02*
X116177544Y-117359845D01*
X116177544Y-117359845D02*
X116272782Y-117524802D01*
X116272782Y-117524802D02*
X116361640Y-117583471D01*
X116361640Y-117583471D02*
X116426689Y-117600901D01*
X116426689Y-117600901D02*
X116532977Y-117594521D01*
X116532977Y-117594521D02*
X116697934Y-117499283D01*
X116697934Y-117499283D02*
X116756604Y-117410425D01*
X116756604Y-117410425D02*
X116774033Y-117345376D01*
X116774033Y-117345376D02*
X116767654Y-117239088D01*
X113896666Y-83264819D02*
X113896666Y-83979104D01*
X113896666Y-83979104D02*
X113849047Y-84121961D01*
X113849047Y-84121961D02*
X113753809Y-84217200D01*
X113753809Y-84217200D02*
X113610952Y-84264819D01*
X113610952Y-84264819D02*
X113515714Y-84264819D01*
X114325238Y-83360057D02*
X114372857Y-83312438D01*
X114372857Y-83312438D02*
X114468095Y-83264819D01*
X114468095Y-83264819D02*
X114706190Y-83264819D01*
X114706190Y-83264819D02*
X114801428Y-83312438D01*
X114801428Y-83312438D02*
X114849047Y-83360057D01*
X114849047Y-83360057D02*
X114896666Y-83455295D01*
X114896666Y-83455295D02*
X114896666Y-83550533D01*
X114896666Y-83550533D02*
X114849047Y-83693390D01*
X114849047Y-83693390D02*
X114277619Y-84264819D01*
X114277619Y-84264819D02*
X114896666Y-84264819D01*
X152403333Y-103759580D02*
X152355714Y-103807200D01*
X152355714Y-103807200D02*
X152212857Y-103854819D01*
X152212857Y-103854819D02*
X152117619Y-103854819D01*
X152117619Y-103854819D02*
X151974762Y-103807200D01*
X151974762Y-103807200D02*
X151879524Y-103711961D01*
X151879524Y-103711961D02*
X151831905Y-103616723D01*
X151831905Y-103616723D02*
X151784286Y-103426247D01*
X151784286Y-103426247D02*
X151784286Y-103283390D01*
X151784286Y-103283390D02*
X151831905Y-103092914D01*
X151831905Y-103092914D02*
X151879524Y-102997676D01*
X151879524Y-102997676D02*
X151974762Y-102902438D01*
X151974762Y-102902438D02*
X152117619Y-102854819D01*
X152117619Y-102854819D02*
X152212857Y-102854819D01*
X152212857Y-102854819D02*
X152355714Y-102902438D01*
X152355714Y-102902438D02*
X152403333Y-102950057D01*
X152784286Y-102950057D02*
X152831905Y-102902438D01*
X152831905Y-102902438D02*
X152927143Y-102854819D01*
X152927143Y-102854819D02*
X153165238Y-102854819D01*
X153165238Y-102854819D02*
X153260476Y-102902438D01*
X153260476Y-102902438D02*
X153308095Y-102950057D01*
X153308095Y-102950057D02*
X153355714Y-103045295D01*
X153355714Y-103045295D02*
X153355714Y-103140533D01*
X153355714Y-103140533D02*
X153308095Y-103283390D01*
X153308095Y-103283390D02*
X152736667Y-103854819D01*
X152736667Y-103854819D02*
X153355714Y-103854819D01*
D11*
X150161121Y-84777586D02*
X150232549Y-84801395D01*
X150232549Y-84801395D02*
X150351597Y-84801395D01*
X150351597Y-84801395D02*
X150399216Y-84777586D01*
X150399216Y-84777586D02*
X150423025Y-84753776D01*
X150423025Y-84753776D02*
X150446835Y-84706157D01*
X150446835Y-84706157D02*
X150446835Y-84658538D01*
X150446835Y-84658538D02*
X150423025Y-84610919D01*
X150423025Y-84610919D02*
X150399216Y-84587109D01*
X150399216Y-84587109D02*
X150351597Y-84563300D01*
X150351597Y-84563300D02*
X150256359Y-84539490D01*
X150256359Y-84539490D02*
X150208740Y-84515681D01*
X150208740Y-84515681D02*
X150184930Y-84491871D01*
X150184930Y-84491871D02*
X150161121Y-84444252D01*
X150161121Y-84444252D02*
X150161121Y-84396633D01*
X150161121Y-84396633D02*
X150184930Y-84349014D01*
X150184930Y-84349014D02*
X150208740Y-84325205D01*
X150208740Y-84325205D02*
X150256359Y-84301395D01*
X150256359Y-84301395D02*
X150375406Y-84301395D01*
X150375406Y-84301395D02*
X150446835Y-84325205D01*
X150613501Y-84301395D02*
X150732549Y-84801395D01*
X150732549Y-84801395D02*
X150827787Y-84444252D01*
X150827787Y-84444252D02*
X150923025Y-84801395D01*
X150923025Y-84801395D02*
X151042073Y-84301395D01*
X151494454Y-84801395D02*
X151208740Y-84801395D01*
X151351597Y-84801395D02*
X151351597Y-84301395D01*
X151351597Y-84301395D02*
X151303978Y-84372824D01*
X151303978Y-84372824D02*
X151256359Y-84420443D01*
X151256359Y-84420443D02*
X151208740Y-84444252D01*
D10*
X135101905Y-104964819D02*
X135101905Y-103964819D01*
X135101905Y-103964819D02*
X135340000Y-103964819D01*
X135340000Y-103964819D02*
X135482857Y-104012438D01*
X135482857Y-104012438D02*
X135578095Y-104107676D01*
X135578095Y-104107676D02*
X135625714Y-104202914D01*
X135625714Y-104202914D02*
X135673333Y-104393390D01*
X135673333Y-104393390D02*
X135673333Y-104536247D01*
X135673333Y-104536247D02*
X135625714Y-104726723D01*
X135625714Y-104726723D02*
X135578095Y-104821961D01*
X135578095Y-104821961D02*
X135482857Y-104917200D01*
X135482857Y-104917200D02*
X135340000Y-104964819D01*
X135340000Y-104964819D02*
X135101905Y-104964819D01*
X136006667Y-103964819D02*
X136625714Y-103964819D01*
X136625714Y-103964819D02*
X136292381Y-104345771D01*
X136292381Y-104345771D02*
X136435238Y-104345771D01*
X136435238Y-104345771D02*
X136530476Y-104393390D01*
X136530476Y-104393390D02*
X136578095Y-104441009D01*
X136578095Y-104441009D02*
X136625714Y-104536247D01*
X136625714Y-104536247D02*
X136625714Y-104774342D01*
X136625714Y-104774342D02*
X136578095Y-104869580D01*
X136578095Y-104869580D02*
X136530476Y-104917200D01*
X136530476Y-104917200D02*
X136435238Y-104964819D01*
X136435238Y-104964819D02*
X136149524Y-104964819D01*
X136149524Y-104964819D02*
X136054286Y-104917200D01*
X136054286Y-104917200D02*
X136006667Y-104869580D01*
D12*
%TO.C,SW3*%
X99780000Y-104420000D02*
X99780000Y-91720000D01*
X101500000Y-91720000D02*
X99780000Y-91720000D01*
X101500000Y-104420000D02*
X99780000Y-104420000D01*
X106640000Y-91720000D02*
X104920000Y-91720000D01*
X106640000Y-91720000D02*
X106640000Y-104420000D01*
X106640000Y-104420000D02*
X104920000Y-104420000D01*
D13*
X99310000Y-93370000D02*
G75*
G02*
X99110000Y-93370000I-100000J0D01*
G01*
X99110000Y-93370000D02*
G75*
G02*
X99310000Y-93370000I100000J0D01*
G01*
D14*
%TO.C,C1*%
X124768748Y-87620000D02*
X126191252Y-87620000D01*
X124768748Y-89440000D02*
X126191252Y-89440000D01*
%TO.C,D4*%
X126707500Y-107545000D02*
X130767500Y-107545000D01*
X130767500Y-105275000D02*
X126707500Y-105275000D01*
X130767500Y-107545000D02*
X130767500Y-105275000D01*
%TO.C,U2*%
X118890000Y-93440000D02*
X122650000Y-93440000D01*
X118890000Y-100260000D02*
X122650000Y-100260000D01*
X122650000Y-93440000D02*
X122650000Y-94700000D01*
X122650000Y-100260000D02*
X122650000Y-99000000D01*
X117610000Y-93540000D02*
X117370000Y-93210000D01*
X117850000Y-93210000D01*
X117610000Y-93540000D01*
G36*
X117610000Y-93540000D02*
G01*
X117370000Y-93210000D01*
X117850000Y-93210000D01*
X117610000Y-93540000D01*
G37*
%TO.C,J7*%
X160655145Y-120847819D02*
X161655146Y-119115768D01*
X161187896Y-120705070D02*
X167657107Y-124440070D01*
X161737677Y-121472819D02*
X160655145Y-120847819D01*
X162549281Y-120267082D02*
X164049280Y-117669007D01*
X163540307Y-120550576D02*
X162549281Y-120267082D01*
X163718414Y-120942082D02*
X164093415Y-120292563D01*
X163790306Y-120117563D02*
X163540307Y-120550576D01*
X164049280Y-117669007D02*
X164790305Y-118385512D01*
X164093415Y-120292563D02*
X163790306Y-120117563D01*
X164299281Y-117235992D02*
X165799280Y-114637916D01*
X164540306Y-118818525D02*
X164843415Y-118993524D01*
X164790305Y-118385512D02*
X164540306Y-118818525D01*
X164843415Y-118993524D02*
X165218414Y-118344007D01*
X165218414Y-118344007D02*
X168942323Y-120494005D01*
X165290306Y-117519487D02*
X164299281Y-117235992D01*
X165468416Y-117910994D02*
X165843415Y-117261473D01*
X165497898Y-113239930D02*
X161187896Y-120705070D01*
X165540305Y-117086474D02*
X165290306Y-117519487D01*
X165799280Y-114637916D02*
X166540306Y-115354424D01*
X165843415Y-117261473D02*
X165540305Y-117086474D01*
X166290306Y-115787436D02*
X166593415Y-115962435D01*
X166540306Y-115354424D02*
X166290306Y-115787436D01*
X166593415Y-115962435D02*
X166968415Y-115312916D01*
X166968415Y-115312916D02*
X170692323Y-117462917D01*
X167442324Y-123092082D02*
X163718414Y-120942082D01*
X167657107Y-124440070D02*
X171967106Y-116974930D01*
X167817322Y-122442562D02*
X167442324Y-123092082D01*
X168942323Y-120494005D02*
X168567324Y-121143525D01*
X169192326Y-120060993D02*
X165468416Y-117910994D01*
X169567322Y-119411473D02*
X169192326Y-120060993D01*
X170692323Y-117462917D02*
X170317323Y-118112436D01*
X171967106Y-116974930D02*
X165497898Y-113239930D01*
X167817322Y-122442562D02*
G75*
G02*
X168567012Y-121143751I1847277J-200501D01*
G01*
X169567322Y-119411473D02*
G75*
G02*
X170317012Y-118112662I1847245J-200482D01*
G01*
%TO.C,Q2*%
X131580000Y-108070000D02*
X141800000Y-108070000D01*
X131580000Y-109450000D02*
X141800000Y-109450000D01*
X131580000Y-112690000D02*
X131580000Y-108070000D01*
X134840000Y-108070000D02*
X134840000Y-109450000D01*
X138540000Y-108070000D02*
X138540000Y-109450000D01*
X141800000Y-108070000D02*
X141800000Y-112690000D01*
X141800000Y-112690000D02*
X131580000Y-112690000D01*
%TO.C,SW2*%
X124850000Y-83140000D02*
X125150000Y-83140000D01*
X124850000Y-86440000D02*
X124850000Y-83140000D01*
X125150000Y-86440000D02*
X124850000Y-86440000D01*
X127350000Y-86440000D02*
X127650000Y-86440000D01*
X127650000Y-83140000D02*
X127350000Y-83140000D01*
X127650000Y-86440000D02*
X127650000Y-83140000D01*
%TO.C,U7*%
X107740000Y-94470000D02*
X112360000Y-94470000D01*
X107740000Y-97730000D02*
X109120000Y-97730000D01*
X107740000Y-101430000D02*
X109120000Y-101430000D01*
X107740000Y-104690000D02*
X107740000Y-94470000D01*
X109120000Y-104690000D02*
X109120000Y-94470000D01*
X112360000Y-94470000D02*
X112360000Y-104690000D01*
X112360000Y-104690000D02*
X107740000Y-104690000D01*
D12*
%TO.C,U3*%
X129340000Y-131450000D02*
X129340000Y-151770000D01*
X130610000Y-131450000D02*
X129340000Y-131450000D01*
X130610000Y-151770000D02*
X129340000Y-151770000D01*
X133000000Y-131450000D02*
X146000000Y-131450000D01*
X133000000Y-151770000D02*
X146000000Y-151770000D01*
X148390000Y-131450000D02*
X149660000Y-131450000D01*
X148390000Y-151770000D02*
X149660000Y-151770000D01*
X149660000Y-151770000D02*
X149660000Y-131450000D01*
D13*
X131980000Y-130881800D02*
G75*
G02*
X131780000Y-130881800I-100000J0D01*
G01*
X131780000Y-130881800D02*
G75*
G02*
X131980000Y-130881800I100000J0D01*
G01*
D14*
%TO.C,C5*%
X109008748Y-105290000D02*
X110431252Y-105290000D01*
X109008748Y-107110000D02*
X110431252Y-107110000D01*
%TO.C,R15*%
X151797064Y-99350000D02*
X150342936Y-99350000D01*
X151797064Y-101170000D02*
X150342936Y-101170000D01*
%TO.C,C3*%
X113700000Y-97048748D02*
X113700000Y-98471252D01*
X115520000Y-97048748D02*
X115520000Y-98471252D01*
%TO.C,J6*%
X114856661Y-131937975D02*
X119166661Y-139403114D01*
X116131443Y-132425962D02*
X119855352Y-130275962D01*
X116506443Y-133075481D02*
X116131443Y-132425962D01*
X117631443Y-135024038D02*
X117256443Y-134374519D01*
X117881443Y-135457051D02*
X121605352Y-133307051D01*
X118256443Y-136106570D02*
X117881443Y-135457051D01*
X119166661Y-139403114D02*
X125635871Y-135668114D01*
X119381443Y-138055127D02*
X119006443Y-137405608D01*
X119855352Y-130275962D02*
X120230352Y-130925481D01*
X120230352Y-130925481D02*
X120533461Y-130750481D01*
X120283461Y-130317468D02*
X121024486Y-129600962D01*
X120386089Y-128295225D02*
X121468621Y-127670225D01*
X120533461Y-130750481D02*
X120283461Y-130317468D01*
X120980352Y-132224519D02*
X121355352Y-132874038D01*
X121024486Y-129600962D02*
X122524486Y-132199038D01*
X121283461Y-132049519D02*
X120980352Y-132224519D01*
X121325871Y-128202975D02*
X114856661Y-131937975D01*
X121355352Y-132874038D02*
X117631443Y-135024038D01*
X121468621Y-127670225D02*
X122468621Y-129402276D01*
X121533461Y-132482532D02*
X121283461Y-132049519D01*
X121605352Y-133307051D02*
X121980352Y-133956570D01*
X121980352Y-133956570D02*
X122283461Y-133781570D01*
X122033461Y-133348557D02*
X122774486Y-132632051D01*
X122283461Y-133781570D02*
X122033461Y-133348557D01*
X122524486Y-132199038D02*
X121533461Y-132482532D01*
X122730352Y-135255608D02*
X123105352Y-135905127D01*
X122774486Y-132632051D02*
X124274486Y-135230127D01*
X123033461Y-135080608D02*
X122730352Y-135255608D01*
X123105352Y-135905127D02*
X119381443Y-138055127D01*
X123283461Y-135513621D02*
X123033461Y-135080608D01*
X124274486Y-135230127D02*
X123283461Y-135513621D01*
X125635871Y-135668114D02*
X121325871Y-128202975D01*
X116506443Y-133075481D02*
G75*
G02*
X117256401Y-134374134I-1097247J-1499521D01*
G01*
X118256443Y-136106570D02*
G75*
G02*
X119006401Y-137405224I-1097243J-1499519D01*
G01*
%TO.C,Q3*%
X120210000Y-108100000D02*
X130430000Y-108100000D01*
X120210000Y-109480000D02*
X130430000Y-109480000D01*
X120210000Y-112720000D02*
X120210000Y-108100000D01*
X123470000Y-108100000D02*
X123470000Y-109480000D01*
X127170000Y-108100000D02*
X127170000Y-109480000D01*
X130430000Y-108100000D02*
X130430000Y-112720000D01*
X130430000Y-112720000D02*
X120210000Y-112720000D01*
%TO.C,C4*%
X123048748Y-100850000D02*
X124471252Y-100850000D01*
X123048748Y-102670000D02*
X124471252Y-102670000D01*
%TO.C,D1*%
X155025000Y-110785000D02*
X155025000Y-113055000D01*
X155025000Y-113055000D02*
X158910000Y-113055000D01*
X158910000Y-110785000D02*
X155025000Y-110785000D01*
%TO.C,R5*%
X124807064Y-114080000D02*
X123352936Y-114080000D01*
X124807064Y-115900000D02*
X123352936Y-115900000D01*
%TO.C,R4*%
X142357064Y-105590000D02*
X140902936Y-105590000D01*
X142357064Y-107410000D02*
X140902936Y-107410000D01*
D12*
%TO.C,U5*%
X129570000Y-114430000D02*
X149870000Y-114430000D01*
X129570000Y-130130000D02*
X129570000Y-117222500D01*
X149870000Y-117222500D02*
X149870000Y-130130000D01*
X149870000Y-130130000D02*
X129570000Y-130130000D01*
D14*
%TO.C,R2*%
X151997064Y-90000000D02*
X150542936Y-90000000D01*
X151997064Y-91820000D02*
X150542936Y-91820000D01*
%TO.C,R1*%
X124832936Y-90440000D02*
X126287064Y-90440000D01*
X124832936Y-92260000D02*
X126287064Y-92260000D01*
%TO.C,U1*%
X129650000Y-100700000D02*
X129650000Y-101480000D01*
X129650000Y-101480000D02*
X130650000Y-101480000D01*
X147890000Y-100700000D02*
X147890000Y-101480000D01*
X147890000Y-101480000D02*
X146890000Y-101480000D01*
X129645000Y-82625000D02*
X129145000Y-82625000D01*
X129645000Y-82125000D01*
X129645000Y-82625000D01*
G36*
X129645000Y-82625000D02*
G01*
X129145000Y-82625000D01*
X129645000Y-82125000D01*
X129645000Y-82625000D01*
G37*
%TO.C,C6*%
X116721252Y-100920000D02*
X115298748Y-100920000D01*
X116721252Y-102740000D02*
X115298748Y-102740000D01*
%TO.C,R14*%
X156562936Y-114010000D02*
X158017064Y-114010000D01*
X156562936Y-115830000D02*
X158017064Y-115830000D01*
%TO.C,Q1*%
X142570000Y-108140000D02*
X152790000Y-108140000D01*
X142570000Y-109520000D02*
X152790000Y-109520000D01*
X142570000Y-112760000D02*
X142570000Y-108140000D01*
X145830000Y-108140000D02*
X145830000Y-109520000D01*
X149530000Y-108140000D02*
X149530000Y-109520000D01*
X152790000Y-108140000D02*
X152790000Y-112760000D01*
X152790000Y-112760000D02*
X142570000Y-112760000D01*
%TO.C,D2*%
X144907500Y-107615000D02*
X148967500Y-107615000D01*
X148967500Y-105345000D02*
X144907500Y-105345000D01*
X148967500Y-107615000D02*
X148967500Y-105345000D01*
%TO.C,R3*%
X150542936Y-87370000D02*
X151997064Y-87370000D01*
X150542936Y-89190000D02*
X151997064Y-89190000D01*
D12*
%TO.C,U4*%
X154390000Y-89236600D02*
X154390000Y-109556600D01*
X155660000Y-89236600D02*
X154390000Y-89236600D01*
X155660000Y-109556600D02*
X154390000Y-109556600D01*
X158050000Y-89236600D02*
X171050000Y-89236600D01*
X158050000Y-109556600D02*
X171050000Y-109556600D01*
X173440000Y-89236600D02*
X174710000Y-89236600D01*
X173440000Y-109556600D02*
X174710000Y-109556600D01*
X174710000Y-109556600D02*
X174710000Y-89236600D01*
D13*
X157030000Y-88668400D02*
G75*
G02*
X156830000Y-88668400I-100000J0D01*
G01*
X156830000Y-88668400D02*
G75*
G02*
X157030000Y-88668400I100000J0D01*
G01*
D14*
%TO.C,J8*%
X106860395Y-117432431D02*
X111170395Y-124897570D01*
X108135177Y-117920418D02*
X111859086Y-115770418D01*
X108510177Y-118569937D02*
X108135177Y-117920418D01*
X109635177Y-120518494D02*
X109260177Y-119868975D01*
X109885177Y-120951507D02*
X113609086Y-118801507D01*
X110260177Y-121601026D02*
X109885177Y-120951507D01*
X111170395Y-124897570D02*
X117639605Y-121162570D01*
X111385177Y-123549583D02*
X111010177Y-122900064D01*
X111859086Y-115770418D02*
X112234086Y-116419937D01*
X112234086Y-116419937D02*
X112537195Y-116244937D01*
X112287195Y-115811924D02*
X113028220Y-115095418D01*
X112389823Y-113789681D02*
X113472355Y-113164681D01*
X112537195Y-116244937D02*
X112287195Y-115811924D01*
X112984086Y-117718975D02*
X113359086Y-118368494D01*
X113028220Y-115095418D02*
X114528220Y-117693494D01*
X113287195Y-117543975D02*
X112984086Y-117718975D01*
X113329605Y-113697431D02*
X106860395Y-117432431D01*
X113359086Y-118368494D02*
X109635177Y-120518494D01*
X113472355Y-113164681D02*
X114472355Y-114896732D01*
X113537195Y-117976988D02*
X113287195Y-117543975D01*
X113609086Y-118801507D02*
X113984086Y-119451026D01*
X113984086Y-119451026D02*
X114287195Y-119276026D01*
X114037195Y-118843013D02*
X114778220Y-118126507D01*
X114287195Y-119276026D02*
X114037195Y-118843013D01*
X114528220Y-117693494D02*
X113537195Y-117976988D01*
X114734086Y-120750064D02*
X115109086Y-121399583D01*
X114778220Y-118126507D02*
X116278220Y-120724583D01*
X115037195Y-120575064D02*
X114734086Y-120750064D01*
X115109086Y-121399583D02*
X111385177Y-123549583D01*
X115287195Y-121008077D02*
X115037195Y-120575064D01*
X116278220Y-120724583D02*
X115287195Y-121008077D01*
X117639605Y-121162570D02*
X113329605Y-113697431D01*
X108510177Y-118569937D02*
G75*
G02*
X109260135Y-119868590I-1097247J-1499521D01*
G01*
X110260177Y-121601026D02*
G75*
G02*
X111010135Y-122899680I-1097243J-1499519D01*
G01*
%TO.C,J2*%
X106100000Y-85580000D02*
X106100000Y-88730000D01*
X106100000Y-88730000D02*
X108950000Y-91330000D01*
X108950000Y-83030000D02*
X106100000Y-85580000D01*
X108950000Y-91330000D02*
X121800000Y-91330000D01*
X121800000Y-83030000D02*
X108950000Y-83030000D01*
X121800000Y-91330000D02*
X121800000Y-83030000D01*
%TO.C,C2*%
X148308748Y-102530000D02*
X149731252Y-102530000D01*
X148308748Y-104350000D02*
X149731252Y-104350000D01*
%TO.C,SW1*%
X149460000Y-82930000D02*
X149460000Y-86230000D01*
X149460000Y-86230000D02*
X149760000Y-86230000D01*
X149760000Y-82930000D02*
X149460000Y-82930000D01*
X151960000Y-82930000D02*
X152260000Y-82930000D01*
X152260000Y-82930000D02*
X152260000Y-86230000D01*
X152260000Y-86230000D02*
X151960000Y-86230000D01*
%TO.C,D3*%
X133747500Y-107595000D02*
X137807500Y-107595000D01*
X137807500Y-105325000D02*
X133747500Y-105325000D01*
X137807500Y-107595000D02*
X137807500Y-105325000D01*
%TD*%
M02*
