%TF.GenerationSoftware,KiCad,Pcbnew,9.0.5*%
%TF.CreationDate,2026-06-19T15:20:49+05:30*%
%TF.ProjectId,esp32_nichrome_wire,65737033-325f-46e6-9963-68726f6d655f,rev?*%
%TF.SameCoordinates,Original*%
%TF.FileFunction,Paste,Top*%
%TF.FilePolarity,Positive*%
%FSLAX46Y46*%
G04 Gerber Fmt 4.6, Leading zero omitted, Abs format (unit mm)*
G04 Created by KiCad (PCBNEW 9.0.5) date 2026-06-19 15:20:49*
%MOMM*%
%LPD*%
G01*
G04 APERTURE LIST*
G04 Aperture macros list*
%AMRoundRect*
0 Rectangle with rounded corners*
0 $1 Rounding radius*
0 $2 $3 $4 $5 $6 $7 $8 $9 X,Y pos of 4 corners*
0 Add a 4 corners polygon primitive as box body*
4,1,4,$2,$3,$4,$5,$6,$7,$8,$9,$2,$3,0*
0 Add four circle primitives for the rounded corners*
1,1,$1+$1,$2,$3*
1,1,$1+$1,$4,$5*
1,1,$1+$1,$6,$7*
1,1,$1+$1,$8,$9*
0 Add four rect primitives between the rounded corners*
20,1,$1+$1,$2,$3,$4,$5,0*
20,1,$1+$1,$4,$5,$6,$7,0*
20,1,$1+$1,$6,$7,$8,$9,0*
20,1,$1+$1,$8,$9,$2,$3,0*%
G04 Aperture macros list end*
%ADD10RoundRect,0.250000X-0.412500X-0.650000X0.412500X-0.650000X0.412500X0.650000X-0.412500X0.650000X0*%
%ADD11RoundRect,0.250001X0.462499X0.624999X-0.462499X0.624999X-0.462499X-0.624999X0.462499X-0.624999X0*%
%ADD12RoundRect,0.375000X-0.625000X-0.375000X0.625000X-0.375000X0.625000X0.375000X-0.625000X0.375000X0*%
%ADD13RoundRect,0.500000X-0.500000X-1.400000X0.500000X-1.400000X0.500000X1.400000X-0.500000X1.400000X0*%
%ADD14R,1.700000X0.900000*%
%ADD15RoundRect,0.250000X0.312500X0.625000X-0.312500X0.625000X-0.312500X-0.625000X0.312500X-0.625000X0*%
%ADD16RoundRect,0.250000X-0.650000X0.412500X-0.650000X-0.412500X0.650000X-0.412500X0.650000X0.412500X0*%
%ADD17RoundRect,0.250000X-0.375000X-0.625000X0.375000X-0.625000X0.375000X0.625000X-0.375000X0.625000X0*%
%ADD18RoundRect,0.250000X-0.312500X-0.625000X0.312500X-0.625000X0.312500X0.625000X-0.312500X0.625000X0*%
%ADD19R,1.500000X0.900000*%
%ADD20R,0.900000X1.500000*%
%ADD21R,1.050000X1.050000*%
%ADD22RoundRect,0.250000X0.412500X0.650000X-0.412500X0.650000X-0.412500X-0.650000X0.412500X-0.650000X0*%
G04 APERTURE END LIST*
D10*
%TO.C,C1*%
X123917500Y-88530000D03*
X127042500Y-88530000D03*
%TD*%
D11*
%TO.C,D4*%
X129795000Y-106410000D03*
X126820000Y-106410000D03*
%TD*%
D12*
%TO.C,U2*%
X117590000Y-94550000D03*
X117590000Y-96850000D03*
D13*
X123890000Y-96850000D03*
D12*
X117590000Y-99150000D03*
%TD*%
D14*
%TO.C,SW2*%
X126250000Y-86490000D03*
X126250000Y-83090000D03*
%TD*%
D10*
%TO.C,C5*%
X108157500Y-106200000D03*
X111282500Y-106200000D03*
%TD*%
D15*
%TO.C,R15*%
X152532500Y-100260000D03*
X149607500Y-100260000D03*
%TD*%
D16*
%TO.C,C3*%
X114610000Y-96197500D03*
X114610000Y-99322500D03*
%TD*%
D10*
%TO.C,C4*%
X122197500Y-101760000D03*
X125322500Y-101760000D03*
%TD*%
D17*
%TO.C,D1*%
X155910000Y-111920000D03*
X158710000Y-111920000D03*
%TD*%
D15*
%TO.C,R5*%
X125542500Y-114990000D03*
X122617500Y-114990000D03*
%TD*%
%TO.C,R4*%
X143092500Y-106500000D03*
X140167500Y-106500000D03*
%TD*%
%TO.C,R2*%
X152732500Y-90910000D03*
X149807500Y-90910000D03*
%TD*%
D18*
%TO.C,R1*%
X124097500Y-91350000D03*
X127022500Y-91350000D03*
%TD*%
D19*
%TO.C,U1*%
X130020000Y-83350000D03*
X130020000Y-84620000D03*
X130020000Y-85890000D03*
X130020000Y-87160000D03*
X130020000Y-88430000D03*
X130020000Y-89700000D03*
X130020000Y-90970000D03*
X130020000Y-92240000D03*
X130020000Y-93510000D03*
X130020000Y-94780000D03*
X130020000Y-96050000D03*
X130020000Y-97320000D03*
X130020000Y-98590000D03*
X130020000Y-99860000D03*
D20*
X133060000Y-101110000D03*
X134330000Y-101110000D03*
X135600000Y-101110000D03*
X136870000Y-101110000D03*
X138140000Y-101110000D03*
X139410000Y-101110000D03*
X140680000Y-101110000D03*
X141950000Y-101110000D03*
X143220000Y-101110000D03*
X144490000Y-101110000D03*
D19*
X147520000Y-99860000D03*
X147520000Y-98590000D03*
X147520000Y-97320000D03*
X147520000Y-96050000D03*
X147520000Y-94780000D03*
X147520000Y-93510000D03*
X147520000Y-92240000D03*
X147520000Y-90970000D03*
X147520000Y-89700000D03*
X147520000Y-88430000D03*
X147520000Y-87160000D03*
X147520000Y-85890000D03*
X147520000Y-84620000D03*
X147520000Y-83350000D03*
D21*
X136565000Y-89165000D03*
X136565000Y-90690000D03*
X136565000Y-92215000D03*
X138090000Y-89165000D03*
X138090000Y-90690000D03*
X138090000Y-92215000D03*
X139615000Y-89165000D03*
X139615000Y-90690000D03*
X139615000Y-92215000D03*
%TD*%
D22*
%TO.C,C6*%
X117572500Y-101830000D03*
X114447500Y-101830000D03*
%TD*%
D18*
%TO.C,R14*%
X155827500Y-114920000D03*
X158752500Y-114920000D03*
%TD*%
D11*
%TO.C,D2*%
X147995000Y-106480000D03*
X145020000Y-106480000D03*
%TD*%
D18*
%TO.C,R3*%
X149807500Y-88280000D03*
X152732500Y-88280000D03*
%TD*%
D10*
%TO.C,C2*%
X147457500Y-103440000D03*
X150582500Y-103440000D03*
%TD*%
D14*
%TO.C,SW1*%
X150860000Y-82880000D03*
X150860000Y-86280000D03*
%TD*%
D11*
%TO.C,D3*%
X136835000Y-106460000D03*
X133860000Y-106460000D03*
%TD*%
M02*
