%TF.GenerationSoftware,KiCad,Pcbnew,9.0.5*%
%TF.CreationDate,2026-06-19T15:20:49+05:30*%
%TF.ProjectId,esp32_nichrome_wire,65737033-325f-46e6-9963-68726f6d655f,rev?*%
%TF.SameCoordinates,Original*%
%TF.FileFunction,Copper,L2,Bot*%
%TF.FilePolarity,Positive*%
%FSLAX46Y46*%
G04 Gerber Fmt 4.6, Leading zero omitted, Abs format (unit mm)*
G04 Created by KiCad (PCBNEW 9.0.5) date 2026-06-19 15:20:49*
%MOMM*%
%LPD*%
G01*
G04 APERTURE LIST*
G04 Aperture macros list*
%AMRoundRect*
0 Rectangle with rounded corners*
0 $1 Rounding radius*
0 $2 $3 $4 $5 $6 $7 $8 $9 X,Y pos of 4 corners*
0 Add a 4 corners polygon primitive as box body*
4,1,4,$2,$3,$4,$5,$6,$7,$8,$9,$2,$3,0*
0 Add four circle primitives for the rounded corners*
1,1,$1+$1,$2,$3*
1,1,$1+$1,$4,$5*
1,1,$1+$1,$6,$7*
1,1,$1+$1,$8,$9*
0 Add four rect primitives between the rounded corners*
20,1,$1+$1,$2,$3,$4,$5,0*
20,1,$1+$1,$4,$5,$6,$7,0*
20,1,$1+$1,$6,$7,$8,$9,0*
20,1,$1+$1,$8,$9,$2,$3,0*%
%AMHorizOval*
0 Thick line with rounded ends*
0 $1 width*
0 $2 $3 position (X,Y) of the first rounded end (center of the circle)*
0 $4 $5 position (X,Y) of the second rounded end (center of the circle)*
0 Add line between two ends*
20,1,$1,$2,$3,$4,$5,0*
0 Add two circle primitives to create the rounded ends*
1,1,$1,$2,$3*
1,1,$1,$4,$5*%
G04 Aperture macros list end*
%TA.AperFunction,ComponentPad*%
%ADD10R,2.775000X2.775000*%
%TD*%
%TA.AperFunction,ComponentPad*%
%ADD11C,2.775000*%
%TD*%
%TA.AperFunction,ComponentPad*%
%ADD12RoundRect,0.250000X1.017339X-1.337917X1.667339X-0.212083X-1.017339X1.337917X-1.667339X0.212083X0*%
%TD*%
%TA.AperFunction,ComponentPad*%
%ADD13HorizOval,1.800000X-0.779423X0.450000X0.779423X-0.450000X0*%
%TD*%
%TA.AperFunction,ComponentPad*%
%ADD14R,1.905000X2.000000*%
%TD*%
%TA.AperFunction,ComponentPad*%
%ADD15O,1.905000X2.000000*%
%TD*%
%TA.AperFunction,ComponentPad*%
%ADD16R,2.000000X1.905000*%
%TD*%
%TA.AperFunction,ComponentPad*%
%ADD17O,2.000000X1.905000*%
%TD*%
%TA.AperFunction,ComponentPad*%
%ADD18C,1.980000*%
%TD*%
%TA.AperFunction,ComponentPad*%
%ADD19RoundRect,0.250000X-1.667339X-0.212083X-1.017339X-1.337917X1.667339X0.212083X1.017339X1.337917X0*%
%TD*%
%TA.AperFunction,ComponentPad*%
%ADD20HorizOval,1.800000X-0.779423X-0.450000X0.779423X0.450000X0*%
%TD*%
%TA.AperFunction,ComponentPad*%
%ADD21C,1.905000*%
%TD*%
%TA.AperFunction,HeatsinkPad*%
%ADD22C,0.600000*%
%TD*%
%TA.AperFunction,ComponentPad*%
%ADD23RoundRect,1.500000X-1.500000X-1.500000X1.500000X-1.500000X1.500000X1.500000X-1.500000X1.500000X0*%
%TD*%
%TA.AperFunction,ComponentPad*%
%ADD24C,6.000000*%
%TD*%
%TA.AperFunction,ComponentPad*%
%ADD25RoundRect,0.250000X0.335000X0.685000X-0.335000X0.685000X-0.335000X-0.685000X0.335000X-0.685000X0*%
%TD*%
%TA.AperFunction,ComponentPad*%
%ADD26O,1.170000X1.870000*%
%TD*%
%TA.AperFunction,SMDPad,CuDef*%
%ADD27R,1.700000X1.700000*%
%TD*%
%TA.AperFunction,SMDPad,CuDef*%
%ADD28C,1.700000*%
%TD*%
%TA.AperFunction,ComponentPad*%
%ADD29RoundRect,0.250000X-0.335000X-0.685000X0.335000X-0.685000X0.335000X0.685000X-0.335000X0.685000X0*%
%TD*%
%TA.AperFunction,ViaPad*%
%ADD30C,0.600000*%
%TD*%
%TA.AperFunction,ViaPad*%
%ADD31C,0.800000*%
%TD*%
%TA.AperFunction,Conductor*%
%ADD32C,0.500000*%
%TD*%
%TA.AperFunction,Conductor*%
%ADD33C,0.300000*%
%TD*%
%TA.AperFunction,Conductor*%
%ADD34C,0.600000*%
%TD*%
%TA.AperFunction,Conductor*%
%ADD35C,0.800000*%
%TD*%
%TA.AperFunction,Conductor*%
%ADD36C,1.000000*%
%TD*%
G04 APERTURE END LIST*
D10*
%TO.P,SW3,1,A*%
%TO.N,unconnected-(SW3-A-Pad1)*%
X103210000Y-93370000D03*
D11*
%TO.P,SW3,2,B*%
%TO.N,Net-(J2-Pin_2)*%
X103210000Y-98070000D03*
%TO.P,SW3,3,C*%
%TO.N,+12V*%
X103210000Y-102770000D03*
%TD*%
D12*
%TO.P,J7,1,Pin_1*%
%TO.N,+12V*%
X166243767Y-120668044D03*
D13*
%TO.P,J7,2,Pin_2*%
%TO.N,Net-(D3-K)*%
X167993767Y-117636954D03*
%TD*%
D14*
%TO.P,Q2,1,G*%
%TO.N,EM_TRIG*%
X134150000Y-111330000D03*
D15*
%TO.P,Q2,2,D*%
%TO.N,Net-(D3-K)*%
X136690000Y-111330000D03*
%TO.P,Q2,3,S*%
%TO.N,GNDREF*%
X139230000Y-111330000D03*
%TD*%
D16*
%TO.P,U7,1,IN*%
%TO.N,+12V*%
X111000000Y-102120000D03*
D17*
%TO.P,U7,2,GND*%
%TO.N,GNDREF*%
X111000000Y-99580000D03*
%TO.P,U7,3,OUT*%
%TO.N,+5V*%
X111000000Y-97040000D03*
%TD*%
D18*
%TO.P,U3,1,VM*%
%TO.N,+12V*%
X131880000Y-132720000D03*
%TO.P,U3,2,VCC*%
%TO.N,+3V3*%
X131880000Y-135260000D03*
%TO.P,U3,3,GND*%
%TO.N,GNDREF*%
X131880000Y-137800000D03*
%TO.P,U3,4,A01*%
%TO.N,MA_1*%
X131880000Y-140340000D03*
%TO.P,U3,5,A02*%
%TO.N,MA_2*%
X131880000Y-142880000D03*
%TO.P,U3,6,B02*%
%TO.N,MB_2*%
X131880000Y-145420000D03*
%TO.P,U3,7,B01*%
%TO.N,MB_1*%
X131880000Y-147960000D03*
%TO.P,U3,8,GND*%
%TO.N,GNDREF*%
X131880000Y-150500000D03*
%TO.P,U3,9,GND*%
X147120000Y-150500000D03*
%TO.P,U3,10,PWMB*%
%TO.N,+3V3*%
X147120000Y-147960000D03*
%TO.P,U3,11,BI2*%
%TO.N,MOTOR_B_IN2*%
X147120000Y-145420000D03*
%TO.P,U3,12,BI1*%
%TO.N,MOTOR_B_IN1*%
X147120000Y-142880000D03*
%TO.P,U3,13,STBY*%
%TO.N,unconnected-(U3-STBY-Pad13)*%
X147120000Y-140340000D03*
%TO.P,U3,14,AI1*%
%TO.N,MOTOR_A_IN1*%
X147120000Y-137800000D03*
%TO.P,U3,15,AI2*%
%TO.N,MOTOR_A_IN2*%
X147120000Y-135260000D03*
%TO.P,U3,16,PWMA*%
%TO.N,+3V3*%
X147120000Y-132720000D03*
%TD*%
D19*
%TO.P,J6,1,Pin_1*%
%TO.N,+12V*%
X118830000Y-132600000D03*
D20*
%TO.P,J6,2,Pin_2*%
%TO.N,Net-(D2-K)*%
X120580000Y-135631089D03*
%TD*%
D14*
%TO.P,Q3,1,G*%
%TO.N,EM_TRIG*%
X122780000Y-111360000D03*
D15*
%TO.P,Q3,2,D*%
%TO.N,Net-(D4-K)*%
X125320000Y-111360000D03*
%TO.P,Q3,3,S*%
%TO.N,GNDREF*%
X127860000Y-111360000D03*
%TD*%
D21*
%TO.P,U5,AD0,AD0*%
%TO.N,unconnected-(U5-PadAD0)*%
X133370000Y-115950000D03*
%TO.P,U5,GND,GND*%
%TO.N,GNDREF*%
X146070000Y-115950000D03*
%TO.P,U5,INT,INT*%
%TO.N,unconnected-(U5-PadINT)*%
X130830000Y-115950000D03*
%TO.P,U5,SCL,SCL*%
%TO.N,SCL*%
X143530000Y-115950000D03*
%TO.P,U5,SDA,SDA*%
%TO.N,SDA*%
X140990000Y-115950000D03*
%TO.P,U5,VCC,VCC*%
%TO.N,+5V*%
X148610000Y-115950000D03*
%TO.P,U5,XCL,XCL*%
%TO.N,unconnected-(U5-PadXCL)*%
X135910000Y-115950000D03*
%TO.P,U5,XDA,XDA*%
%TO.N,unconnected-(U5-PadXDA)*%
X138450000Y-115950000D03*
%TD*%
D22*
%TO.P,U1,39,GND*%
%TO.N,GNDREF*%
X136565000Y-89927500D03*
X136565000Y-91452500D03*
X137327500Y-89165000D03*
X137327500Y-90690000D03*
X137327500Y-92215000D03*
X138090000Y-89927500D03*
X138090000Y-91452500D03*
X138852500Y-89165000D03*
X138852500Y-90690000D03*
X138852500Y-92215000D03*
X139615000Y-89927500D03*
X139615000Y-91452500D03*
%TD*%
D14*
%TO.P,Q1,1,G*%
%TO.N,Net-(Q1-G)*%
X145140000Y-111400000D03*
D15*
%TO.P,Q1,2,D*%
%TO.N,Net-(D2-K)*%
X147680000Y-111400000D03*
%TO.P,Q1,3,S*%
%TO.N,GNDREF*%
X150220000Y-111400000D03*
%TD*%
D18*
%TO.P,U4,1,VM*%
%TO.N,+12V*%
X156930000Y-90506600D03*
%TO.P,U4,2,VCC*%
%TO.N,+3V3*%
X156930000Y-93046600D03*
%TO.P,U4,3,GND*%
%TO.N,GNDREF*%
X156930000Y-95586600D03*
%TO.P,U4,4,A01*%
%TO.N,MC_1*%
X156930000Y-98126600D03*
%TO.P,U4,5,A02*%
%TO.N,MC_2*%
X156930000Y-100666600D03*
%TO.P,U4,6,B02*%
%TO.N,unconnected-(U4-B02-Pad6)*%
X156930000Y-103206600D03*
%TO.P,U4,7,B01*%
%TO.N,unconnected-(U4-B01-Pad7)*%
X156930000Y-105746600D03*
%TO.P,U4,8,GND*%
%TO.N,GNDREF*%
X156930000Y-108286600D03*
%TO.P,U4,9,GND*%
X172170000Y-108286600D03*
%TO.P,U4,10,PWMB*%
%TO.N,+3V3*%
X172170000Y-105746600D03*
%TO.P,U4,11,BI2*%
%TO.N,unconnected-(U4-BI2-Pad11)*%
X172170000Y-103206600D03*
%TO.P,U4,12,BI1*%
%TO.N,unconnected-(U4-BI1-Pad12)*%
X172170000Y-100666600D03*
%TO.P,U4,13,STBY*%
%TO.N,unconnected-(U4-STBY-Pad13)*%
X172170000Y-98126600D03*
%TO.P,U4,14,AI1*%
%TO.N,MOTOR_C_IN1*%
X172170000Y-95586600D03*
%TO.P,U4,15,AI2*%
%TO.N,MOTOR_C_IN2*%
X172170000Y-93046600D03*
%TO.P,U4,16,PWMA*%
%TO.N,+3V3*%
X172170000Y-90506600D03*
%TD*%
D19*
%TO.P,J8,1,Pin_1*%
%TO.N,+12V*%
X110833734Y-118094456D03*
D20*
%TO.P,J8,2,Pin_2*%
%TO.N,Net-(D4-K)*%
X112583734Y-121125545D03*
%TD*%
D23*
%TO.P,J2,1,Pin_1*%
%TO.N,GNDREF*%
X110350000Y-87180000D03*
D24*
%TO.P,J2,2,Pin_2*%
%TO.N,Net-(J2-Pin_2)*%
X117550000Y-87180000D03*
%TD*%
D25*
%TO.P,J5,1,Pin_1*%
%TO.N,MC_1*%
X168650000Y-85250000D03*
D26*
%TO.P,J5,2,Pin_2*%
%TO.N,GNDREF*%
X167150000Y-85250000D03*
%TO.P,J5,3,Pin_3*%
%TO.N,ENC3_A*%
X165650000Y-85250000D03*
%TO.P,J5,4,Pin_4*%
%TO.N,ENC3_B*%
X164150000Y-85250000D03*
%TO.P,J5,5,Pin_5*%
%TO.N,+3V3*%
X162650000Y-85250000D03*
%TO.P,J5,6,Pin_6*%
%TO.N,MC_2*%
X161150000Y-85250000D03*
%TD*%
D27*
%TO.P,J1,1,Pin_1*%
%TO.N,+5V*%
X133560000Y-98040000D03*
D28*
%TO.P,J1,2,Pin_2*%
%TO.N,+3V3*%
X136100000Y-98040000D03*
%TO.P,J1,3,Pin_3*%
%TO.N,GNDREF*%
X138640000Y-98040000D03*
%TO.P,J1,4,Pin_4*%
%TO.N,UART0_TX*%
X141180000Y-98040000D03*
%TO.P,J1,5,Pin_5*%
%TO.N,UART0_RX*%
X143720000Y-98040000D03*
%TD*%
D25*
%TO.P,J3,1,Pin_1*%
%TO.N,MA_1*%
X143170000Y-154700000D03*
D26*
%TO.P,J3,2,Pin_2*%
%TO.N,GNDREF*%
X141670000Y-154700000D03*
%TO.P,J3,3,Pin_3*%
%TO.N,ENC1_A*%
X140170000Y-154700000D03*
%TO.P,J3,4,Pin_4*%
%TO.N,ENC1_B*%
X138670000Y-154700000D03*
%TO.P,J3,5,Pin_5*%
%TO.N,+3V3*%
X137170000Y-154700000D03*
%TO.P,J3,6,Pin_6*%
%TO.N,MA_2*%
X135670000Y-154700000D03*
%TD*%
D29*
%TO.P,J4,1,Pin_1*%
%TO.N,MB_1*%
X115740000Y-106190000D03*
D26*
%TO.P,J4,2,Pin_2*%
%TO.N,GNDREF*%
X117240000Y-106190000D03*
%TO.P,J4,3,Pin_3*%
%TO.N,ENC2_A*%
X118740000Y-106190000D03*
%TO.P,J4,4,Pin_4*%
%TO.N,ENC2_B*%
X120240000Y-106190000D03*
%TO.P,J4,5,Pin_5*%
%TO.N,+3V3*%
X121740000Y-106190000D03*
%TO.P,J4,6,Pin_6*%
%TO.N,MB_2*%
X123240000Y-106190000D03*
%TD*%
D30*
%TO.N,GNDREF*%
X133880000Y-108630000D03*
X139790000Y-99820000D03*
X108520000Y-99910000D03*
X135450000Y-99780000D03*
X144110000Y-99820000D03*
X142340000Y-99820000D03*
X136350000Y-99810000D03*
X140970000Y-99850000D03*
X137540000Y-99820000D03*
X120460000Y-95280000D03*
X129880000Y-111330000D03*
X138650000Y-99860000D03*
X135360000Y-108610000D03*
X120920000Y-115600000D03*
X112990000Y-94710000D03*
X123740000Y-85680000D03*
X127020000Y-119190000D03*
X122210000Y-100270000D03*
%TO.N,Net-(SW1A-B)*%
X145300000Y-86950000D03*
X153705000Y-86915000D03*
%TO.N,Net-(SW2A-A)*%
X126250000Y-85530000D03*
X148700000Y-103470000D03*
%TO.N,+5V*%
X134190000Y-102700000D03*
X134210000Y-104820000D03*
X120420000Y-99180000D03*
%TO.N,+3V3*%
X153530000Y-132790000D03*
X136110000Y-96770000D03*
X134220000Y-87930000D03*
X126980000Y-103550000D03*
D31*
X132950000Y-85630000D03*
D30*
X121750000Y-94940000D03*
X152510000Y-97990000D03*
%TO.N,UART0_RX*%
X143840000Y-96730000D03*
%TO.N,UART0_TX*%
X141170000Y-96750000D03*
%TO.N,ENC1_B*%
X150230000Y-94160000D03*
%TO.N,ENC1_A*%
X149180000Y-96040000D03*
X128920000Y-101530000D03*
%TO.N,ENC3_B*%
X127680000Y-94800000D03*
%TO.N,SCL*%
X145870000Y-90900000D03*
X151230000Y-88260000D03*
D31*
%TO.N,+12V*%
X148630000Y-124280000D03*
X169420000Y-101640000D03*
D30*
%TO.N,MOTOR_C_IN1*%
X130030000Y-101510000D03*
%TO.N,MOTOR_B_IN2*%
X149560000Y-92870000D03*
X130890000Y-101580000D03*
%TO.N,MOTOR_C_IN2*%
X132340000Y-92240000D03*
%TO.N,EM_TRIG*%
X126090000Y-93490000D03*
D31*
%TO.N,Net-(D2-K)*%
X129420000Y-135430000D03*
D30*
%TO.N,Net-(D3-K)*%
X148540000Y-119130000D03*
%TO.N,Net-(Q1-G)*%
X125540000Y-116930000D03*
%TD*%
D32*
%TO.N,GNDREF*%
X122065000Y-114455000D02*
X120920000Y-115600000D01*
X124765000Y-114455000D02*
X122065000Y-114455000D01*
X122210000Y-100270000D02*
X122210000Y-97030000D01*
X122210000Y-97030000D02*
X120460000Y-95280000D01*
X127860000Y-111360000D02*
X124765000Y-114455000D01*
D33*
%TO.N,Net-(SW1A-B)*%
X153670000Y-86950000D02*
X145300000Y-86950000D01*
X153705000Y-86915000D02*
X153670000Y-86950000D01*
D32*
%TO.N,Net-(SW2A-A)*%
X128350000Y-103470000D02*
X129540000Y-103470000D01*
X126250000Y-89690000D02*
X126970000Y-90410000D01*
X127550000Y-102670000D02*
X128350000Y-103470000D01*
X126970000Y-90410000D02*
X126929000Y-90451000D01*
X129540000Y-103470000D02*
X148700000Y-103470000D01*
X126929000Y-102049000D02*
X127550000Y-102670000D01*
X126250000Y-85530000D02*
X126250000Y-89690000D01*
X126929000Y-90451000D02*
X126929000Y-102049000D01*
D34*
%TO.N,+5V*%
X126530000Y-104880000D02*
X150670000Y-104880000D01*
D32*
X133560000Y-102070000D02*
X134190000Y-102700000D01*
D34*
X120420000Y-101660000D02*
X121210000Y-102450000D01*
X121210000Y-102450000D02*
X121280000Y-102450000D01*
D32*
X133560000Y-98040000D02*
X133560000Y-102070000D01*
D34*
X150670000Y-104880000D02*
X152410000Y-106620000D01*
X125110000Y-103460000D02*
X126530000Y-104880000D01*
X152410000Y-115220000D02*
X151680000Y-115950000D01*
X120420000Y-99180000D02*
X120420000Y-101660000D01*
X151680000Y-115950000D02*
X148610000Y-115950000D01*
X152410000Y-106620000D02*
X152410000Y-115220000D01*
X122290000Y-103460000D02*
X125110000Y-103460000D01*
X121280000Y-102450000D02*
X122290000Y-103460000D01*
D32*
%TO.N,+3V3*%
X134220000Y-86260000D02*
X134220000Y-85790000D01*
D35*
X134710000Y-85630000D02*
X158080000Y-85630000D01*
X153530000Y-132790000D02*
X158945663Y-132790000D01*
D32*
X173570000Y-105746600D02*
X174450000Y-104866600D01*
X123860000Y-100430000D02*
X123860000Y-97050000D01*
D35*
X153480000Y-132790000D02*
X153530000Y-132790000D01*
X152963400Y-93046600D02*
X156930000Y-93046600D01*
D32*
X134220000Y-86120000D02*
X134710000Y-85630000D01*
D35*
X158080000Y-85630000D02*
X159760000Y-87310000D01*
X167490000Y-100479081D02*
X167490000Y-104980000D01*
D32*
X134220000Y-86260000D02*
X134220000Y-86180000D01*
X172170000Y-105746600D02*
X173570000Y-105746600D01*
D35*
X167590000Y-124145663D02*
X171848948Y-116768948D01*
X152510000Y-97990000D02*
X152510000Y-93500000D01*
X165396600Y-93046600D02*
X167490000Y-95140000D01*
X167490000Y-104980000D02*
X168256600Y-105746600D01*
X161825000Y-87310000D02*
X162650000Y-86485000D01*
D32*
X134220000Y-86260000D02*
X134220000Y-86120000D01*
X136100000Y-96780000D02*
X136110000Y-96770000D01*
D35*
X162650000Y-86485000D02*
X162650000Y-85250000D01*
X156930000Y-93046600D02*
X165396600Y-93046600D01*
X167490000Y-110160000D02*
X167490000Y-106513200D01*
X140330000Y-135260000D02*
X142870000Y-132720000D01*
X171848948Y-114518948D02*
X167490000Y-110160000D01*
D32*
X134220000Y-86180000D02*
X133670000Y-85630000D01*
D35*
X171848948Y-116768948D02*
X171848948Y-114518948D01*
D32*
X174450000Y-91420000D02*
X173536600Y-90506600D01*
D35*
X167501000Y-98271919D02*
X167501000Y-100468081D01*
X158945663Y-132790000D02*
X167590000Y-124145663D01*
X134060000Y-85630000D02*
X134710000Y-85630000D01*
X167490000Y-106513200D02*
X168256600Y-105746600D01*
D32*
X121750000Y-94940000D02*
X123860000Y-97050000D01*
X134220000Y-87930000D02*
X134220000Y-86260000D01*
X134220000Y-85790000D02*
X134060000Y-85630000D01*
X174450000Y-104866600D02*
X174450000Y-91420000D01*
D35*
X152510000Y-93500000D02*
X152963400Y-93046600D01*
X167490000Y-98260919D02*
X167501000Y-98271919D01*
X167490000Y-95140000D02*
X167490000Y-98260919D01*
X167490000Y-104980000D02*
X167490000Y-106310000D01*
X172170000Y-105746600D02*
X167640000Y-105746600D01*
D32*
X126980000Y-103550000D02*
X123860000Y-100430000D01*
X136100000Y-98040000D02*
X136100000Y-96780000D01*
D35*
X167501000Y-100468081D02*
X167490000Y-100479081D01*
X159760000Y-87310000D02*
X161825000Y-87310000D01*
X131880000Y-135260000D02*
X140330000Y-135260000D01*
X168256600Y-105746600D02*
X172170000Y-105746600D01*
X142870000Y-132720000D02*
X147120000Y-132720000D01*
X133670000Y-85630000D02*
X134060000Y-85630000D01*
D32*
X173536600Y-90506600D02*
X172170000Y-90506600D01*
D35*
X132950000Y-85630000D02*
X133670000Y-85630000D01*
D32*
%TO.N,UART0_RX*%
X143720000Y-96850000D02*
X143840000Y-96730000D01*
X143720000Y-98040000D02*
X143720000Y-96850000D01*
D33*
%TO.N,UART0_TX*%
X141170000Y-96750000D02*
X141170000Y-98030000D01*
X141170000Y-98030000D02*
X141180000Y-98040000D01*
D36*
%TO.N,MA_1*%
X143170000Y-154700000D02*
X143170000Y-142810000D01*
X143170000Y-142810000D02*
X140700000Y-140340000D01*
X140700000Y-140340000D02*
X131880000Y-140340000D01*
D33*
%TO.N,ENC1_B*%
X138670000Y-157070000D02*
X139250000Y-157650000D01*
X153240000Y-106140000D02*
X153240000Y-109970000D01*
X138670000Y-154700000D02*
X138670000Y-157070000D01*
X144671984Y-157650000D02*
X145049465Y-157560535D01*
X138670000Y-156870000D02*
X138670000Y-154700000D01*
X147130000Y-118880000D02*
X147770000Y-118240000D01*
X139250000Y-157650000D02*
X144671984Y-157650000D01*
X145049465Y-157560535D02*
X151040000Y-151570000D01*
X152310000Y-105210000D02*
X153240000Y-106140000D01*
X150230000Y-103130000D02*
X152310000Y-105210000D01*
X153240000Y-109970000D02*
X153240000Y-115490000D01*
X150490000Y-118240000D02*
X153240000Y-115490000D01*
X147130000Y-119830000D02*
X147130000Y-118880000D01*
X151040000Y-123740000D02*
X147130000Y-119830000D01*
X151040000Y-151570000D02*
X151040000Y-123740000D01*
X147770000Y-118240000D02*
X150490000Y-118240000D01*
X150230000Y-94160000D02*
X150230000Y-103130000D01*
D36*
%TO.N,MA_2*%
X135670000Y-143500000D02*
X135670000Y-154700000D01*
X131880000Y-142880000D02*
X135150000Y-142880000D01*
X135720000Y-143450000D02*
X135670000Y-143500000D01*
X135150000Y-142880000D02*
X135720000Y-143450000D01*
D33*
%TO.N,ENC1_A*%
X131910000Y-102190000D02*
X131520000Y-102580000D01*
X128920000Y-102090000D02*
X128920000Y-101530000D01*
X149180000Y-96040000D02*
X132460000Y-96040000D01*
X131910000Y-96590000D02*
X131910000Y-102190000D01*
X132460000Y-96040000D02*
X131910000Y-96590000D01*
X131520000Y-102580000D02*
X129410000Y-102580000D01*
X129410000Y-102580000D02*
X128920000Y-102090000D01*
D36*
%TO.N,MB_1*%
X131880000Y-147960000D02*
X127410000Y-147960000D01*
X126070000Y-146620000D02*
X126070000Y-131080000D01*
X126070000Y-131080000D02*
X118300000Y-123310000D01*
X118300000Y-123310000D02*
X118300000Y-110110000D01*
X115740000Y-107550000D02*
X115740000Y-106190000D01*
X118300000Y-110110000D02*
X115740000Y-107550000D01*
X127410000Y-147960000D02*
X126070000Y-146620000D01*
%TO.N,MB_2*%
X127740000Y-130100000D02*
X127740000Y-144690000D01*
X120680000Y-110030000D02*
X120640000Y-110030000D01*
X127800000Y-144690000D02*
X128530000Y-145420000D01*
X119720000Y-110950000D02*
X119720000Y-122190502D01*
X127740000Y-144690000D02*
X127800000Y-144690000D01*
X128530000Y-145420000D02*
X131880000Y-145420000D01*
X123240000Y-106190000D02*
X123240000Y-107470000D01*
X120640000Y-110030000D02*
X119720000Y-110950000D01*
X127629498Y-130100000D02*
X127740000Y-130100000D01*
X123240000Y-107470000D02*
X120680000Y-110030000D01*
X119720000Y-122190502D02*
X127629498Y-130100000D01*
D32*
%TO.N,ENC3_B*%
X164150000Y-84515000D02*
X164150000Y-85250000D01*
X127680000Y-94800000D02*
X127680000Y-86030000D01*
X129846000Y-83864000D02*
X163499000Y-83864000D01*
X127680000Y-86030000D02*
X129846000Y-83864000D01*
X163499000Y-83864000D02*
X164150000Y-84515000D01*
D33*
%TO.N,SCL*%
X146270000Y-88260000D02*
X145870000Y-88660000D01*
X151230000Y-88260000D02*
X146270000Y-88260000D01*
X145870000Y-88660000D02*
X145870000Y-90900000D01*
D35*
%TO.N,+12V*%
X145110000Y-125420000D02*
X146240000Y-124290000D01*
X165436600Y-90506600D02*
X156930000Y-90506600D01*
X145110000Y-127320000D02*
X145110000Y-125420000D01*
X139710000Y-132720000D02*
X145110000Y-127320000D01*
X146240000Y-124290000D02*
X148610000Y-124290000D01*
X169420000Y-101620000D02*
X169420000Y-94490000D01*
X116860000Y-130630000D02*
X118830000Y-132600000D01*
X131880000Y-132720000D02*
X139710000Y-132720000D01*
X110833734Y-118094456D02*
X115694456Y-118094456D01*
X116860000Y-119260000D02*
X116860000Y-130630000D01*
X115694456Y-118094456D02*
X116860000Y-119260000D01*
X169420000Y-94490000D02*
X165436600Y-90506600D01*
X148610000Y-124290000D02*
X148630000Y-124270000D01*
D33*
%TO.N,MOTOR_C_IN1*%
X150560000Y-90340000D02*
X150570000Y-90340000D01*
X167870740Y-89189260D02*
X167870740Y-91287340D01*
X146790000Y-94110000D02*
X150560000Y-90340000D01*
X155870000Y-88900000D02*
X167581480Y-88900000D01*
X151379000Y-89531000D02*
X155239000Y-89531000D01*
X130030000Y-95090000D02*
X131010000Y-94110000D01*
X131010000Y-94110000D02*
X146790000Y-94110000D01*
X150570000Y-90340000D02*
X151379000Y-89531000D01*
X130030000Y-101510000D02*
X130030000Y-95090000D01*
X167581480Y-88900000D02*
X167870740Y-89189260D01*
X155239000Y-89531000D02*
X155870000Y-88900000D01*
X172170000Y-95586600D02*
X167870740Y-91287340D01*
%TO.N,MOTOR_B_IN2*%
X147870000Y-94810000D02*
X149560000Y-93120000D01*
X130890000Y-101580000D02*
X130950000Y-101520000D01*
X131750000Y-94810000D02*
X147870000Y-94810000D01*
X130950000Y-101520000D02*
X130950000Y-95610000D01*
X149560000Y-93120000D02*
X149560000Y-92870000D01*
X130950000Y-95610000D02*
X131750000Y-94810000D01*
%TO.N,MOTOR_C_IN2*%
X168870000Y-88800000D02*
X168420000Y-88350000D01*
X135150000Y-93510000D02*
X133880000Y-92240000D01*
X154870000Y-89030000D02*
X150590000Y-89030000D01*
X155550000Y-88350000D02*
X154870000Y-89030000D01*
X150590000Y-89030000D02*
X146110000Y-93510000D01*
X168870000Y-90980000D02*
X168870000Y-88800000D01*
X170936600Y-93046600D02*
X168870000Y-90980000D01*
X172170000Y-93046600D02*
X170936600Y-93046600D01*
X133880000Y-92240000D02*
X132340000Y-92240000D01*
X146110000Y-93510000D02*
X135150000Y-93510000D01*
X168420000Y-88350000D02*
X155550000Y-88350000D01*
D32*
%TO.N,EM_TRIG*%
X120070000Y-93490000D02*
X119550000Y-94010000D01*
X122780000Y-111360000D02*
X122780000Y-110450000D01*
X119550000Y-94010000D02*
X119550000Y-102040000D01*
X121790000Y-104280000D02*
X124310000Y-104280000D01*
X122780000Y-110450000D02*
X123585000Y-109645000D01*
X123585000Y-109645000D02*
X125150000Y-108080000D01*
X124310000Y-104280000D02*
X125135000Y-105105000D01*
X119550000Y-102040000D02*
X121790000Y-104280000D01*
X123585000Y-109645000D02*
X132465000Y-109645000D01*
X132465000Y-109645000D02*
X134150000Y-111330000D01*
X126090000Y-93490000D02*
X120070000Y-93490000D01*
X125135000Y-105105000D02*
X125150000Y-105090000D01*
X125150000Y-105090000D02*
X125150000Y-108080000D01*
D35*
%TO.N,Net-(D2-K)*%
X147680000Y-111400000D02*
X147950000Y-111130000D01*
X142910000Y-111550000D02*
X141370000Y-113090000D01*
X147495000Y-108975000D02*
X147950000Y-109430000D01*
X127630000Y-127150000D02*
X129420000Y-128940000D01*
X141370000Y-113090000D02*
X128105793Y-113090000D01*
X128105793Y-113090000D02*
X124639000Y-116556793D01*
X129420000Y-128940000D02*
X129420000Y-135470000D01*
X142910000Y-110080000D02*
X142910000Y-111550000D01*
X124639000Y-119099000D02*
X127630000Y-122090000D01*
X127630000Y-122090000D02*
X127630000Y-127150000D01*
X147950000Y-111130000D02*
X147950000Y-109430000D01*
X124639000Y-116556793D02*
X124639000Y-119099000D01*
X144015000Y-108975000D02*
X147495000Y-108975000D01*
X144015000Y-108975000D02*
X142910000Y-110080000D01*
D32*
%TO.N,Net-(D3-K)*%
X156520000Y-119160000D02*
X160240000Y-119160000D01*
X156490000Y-119130000D02*
X156520000Y-119160000D01*
X160240000Y-119160000D02*
X161763046Y-117636954D01*
X167993767Y-117636954D02*
X161763046Y-117636954D01*
X148540000Y-119130000D02*
X156490000Y-119130000D01*
%TO.N,Net-(Q1-G)*%
X128580000Y-114990000D02*
X129540000Y-114030000D01*
X145140000Y-113550000D02*
X145140000Y-111400000D01*
X144660000Y-114030000D02*
X145140000Y-113550000D01*
X125540000Y-116930000D02*
X128030000Y-116930000D01*
X129540000Y-114030000D02*
X144660000Y-114030000D01*
X128580000Y-116380000D02*
X128580000Y-114990000D01*
X128030000Y-116930000D02*
X128580000Y-116380000D01*
%TD*%
%TA.AperFunction,Conductor*%
%TO.N,GNDREF*%
G36*
X167710354Y-82358245D02*
G01*
X167725000Y-82358671D01*
X168321288Y-82376019D01*
X168328467Y-82376438D01*
X168935497Y-82429544D01*
X168942660Y-82430381D01*
X169545590Y-82518696D01*
X169552693Y-82519949D01*
X169851069Y-82581557D01*
X170149454Y-82643168D01*
X170156450Y-82644825D01*
X170745071Y-82802544D01*
X170751965Y-82804608D01*
X171330392Y-82996276D01*
X171337168Y-82998742D01*
X171903482Y-83223722D01*
X171910074Y-83226565D01*
X172462359Y-83484099D01*
X172468796Y-83487332D01*
X173005161Y-83776536D01*
X173011374Y-83780122D01*
X173530055Y-84100047D01*
X173536047Y-84103989D01*
X173976220Y-84412200D01*
X174035203Y-84453500D01*
X174040989Y-84457807D01*
X174113312Y-84514992D01*
X174507112Y-84826367D01*
X174518992Y-84835760D01*
X174524512Y-84840393D01*
X174684650Y-84982903D01*
X174979697Y-85245471D01*
X174984944Y-85250420D01*
X175415836Y-85681309D01*
X175420786Y-85686556D01*
X175750044Y-86056540D01*
X175825886Y-86141762D01*
X175830518Y-86147283D01*
X175915161Y-86254331D01*
X176208447Y-86625250D01*
X176212755Y-86631035D01*
X176348008Y-86824195D01*
X176512448Y-87059039D01*
X176562285Y-87130212D01*
X176566242Y-87136229D01*
X176834899Y-87571786D01*
X176886448Y-87655360D01*
X176888297Y-87658457D01*
X177100793Y-88026510D01*
X179943020Y-92949393D01*
X180000347Y-93048685D01*
X180002098Y-93051823D01*
X180292158Y-93589773D01*
X180295394Y-93596216D01*
X180552917Y-94148477D01*
X180555774Y-94155100D01*
X180780751Y-94721401D01*
X180783218Y-94728179D01*
X180879534Y-95018842D01*
X180964807Y-95276182D01*
X180974887Y-95306600D01*
X180976954Y-95313504D01*
X181005968Y-95421786D01*
X181134668Y-95902105D01*
X181136331Y-95909123D01*
X181259550Y-96505871D01*
X181260803Y-96512974D01*
X181349120Y-97115908D01*
X181349957Y-97123073D01*
X181403063Y-97730087D01*
X181403483Y-97737287D01*
X181421207Y-98346391D01*
X181421207Y-98353605D01*
X181403483Y-98962710D01*
X181403063Y-98969910D01*
X181349957Y-99576923D01*
X181349120Y-99584088D01*
X181260803Y-100187022D01*
X181259550Y-100194125D01*
X181136333Y-100790869D01*
X181134670Y-100797888D01*
X180976955Y-101386489D01*
X180974886Y-101393399D01*
X180783217Y-101971823D01*
X180780750Y-101978600D01*
X180555779Y-102544889D01*
X180552922Y-102551513D01*
X180295395Y-103103780D01*
X180292158Y-103110225D01*
X180002136Y-103648105D01*
X180000378Y-103651255D01*
X172980835Y-115809461D01*
X172930268Y-115857677D01*
X172861661Y-115870900D01*
X172796796Y-115844932D01*
X172756268Y-115788017D01*
X172749448Y-115747461D01*
X172749448Y-114430254D01*
X172717900Y-114271658D01*
X172714842Y-114256282D01*
X172697777Y-114215084D01*
X172646961Y-114092401D01*
X172646959Y-114092399D01*
X172646959Y-114092397D01*
X172548413Y-113944914D01*
X172494239Y-113890740D01*
X172422983Y-113819484D01*
X168426819Y-109823319D01*
X168393334Y-109761996D01*
X168390500Y-109735638D01*
X168390500Y-106937562D01*
X168399144Y-106908121D01*
X168405668Y-106878135D01*
X168409422Y-106873119D01*
X168410185Y-106870523D01*
X168426819Y-106849881D01*
X168593281Y-106683419D01*
X168654604Y-106649934D01*
X168680962Y-106647100D01*
X170918710Y-106647100D01*
X170985749Y-106666785D01*
X171019028Y-106698215D01*
X171033104Y-106717590D01*
X171033110Y-106717596D01*
X171199004Y-106883490D01*
X171259940Y-106927762D01*
X171302606Y-106983092D01*
X171310673Y-107037810D01*
X171308053Y-107071099D01*
X171914858Y-107677904D01*
X171857373Y-107701716D01*
X171749275Y-107773945D01*
X171657345Y-107865875D01*
X171585116Y-107973973D01*
X171561304Y-108031458D01*
X170954499Y-107424653D01*
X170954498Y-107424653D01*
X170895639Y-107505668D01*
X170789164Y-107714634D01*
X170716689Y-107937690D01*
X170680000Y-108169334D01*
X170680000Y-108403865D01*
X170716689Y-108635509D01*
X170789164Y-108858565D01*
X170895640Y-109067533D01*
X170954498Y-109148545D01*
X170954499Y-109148545D01*
X171561304Y-108541739D01*
X171585116Y-108599227D01*
X171657345Y-108707325D01*
X171749275Y-108799255D01*
X171857373Y-108871484D01*
X171914858Y-108895295D01*
X171308052Y-109502099D01*
X171308053Y-109502100D01*
X171389066Y-109560959D01*
X171598034Y-109667435D01*
X171821090Y-109739910D01*
X172052735Y-109776600D01*
X172287265Y-109776600D01*
X172518909Y-109739910D01*
X172741965Y-109667435D01*
X172950930Y-109560961D01*
X173031945Y-109502099D01*
X173031946Y-109502099D01*
X172425141Y-108895295D01*
X172482627Y-108871484D01*
X172590725Y-108799255D01*
X172682655Y-108707325D01*
X172754884Y-108599227D01*
X172778695Y-108541741D01*
X173385499Y-109148546D01*
X173385499Y-109148545D01*
X173444361Y-109067530D01*
X173550835Y-108858565D01*
X173623310Y-108635509D01*
X173660000Y-108403865D01*
X173660000Y-108169334D01*
X173623310Y-107937690D01*
X173550835Y-107714634D01*
X173444359Y-107505666D01*
X173385500Y-107424653D01*
X173385499Y-107424652D01*
X172778694Y-108031457D01*
X172754884Y-107973973D01*
X172682655Y-107865875D01*
X172590725Y-107773945D01*
X172482627Y-107701716D01*
X172425141Y-107677904D01*
X173031945Y-107071099D01*
X173029325Y-107037811D01*
X173043689Y-106969434D01*
X173080056Y-106927764D01*
X173140996Y-106883490D01*
X173306890Y-106717596D01*
X173429953Y-106548213D01*
X173485281Y-106505549D01*
X173530270Y-106497100D01*
X173643920Y-106497100D01*
X173741462Y-106477696D01*
X173788913Y-106468258D01*
X173925495Y-106411684D01*
X173974729Y-106378786D01*
X174048416Y-106329552D01*
X175032952Y-105345016D01*
X175090305Y-105259179D01*
X175115084Y-105222095D01*
X175171658Y-105085513D01*
X175190556Y-104990509D01*
X175200500Y-104940520D01*
X175200500Y-91346079D01*
X175176071Y-91223271D01*
X175171659Y-91201088D01*
X175125458Y-91089551D01*
X175115084Y-91064505D01*
X175057847Y-90978844D01*
X175032954Y-90941588D01*
X175032953Y-90941587D01*
X175032951Y-90941584D01*
X174928416Y-90837049D01*
X174715271Y-90623904D01*
X174015021Y-89923652D01*
X174015014Y-89923646D01*
X173941329Y-89874412D01*
X173941329Y-89874413D01*
X173892091Y-89841513D01*
X173755517Y-89784943D01*
X173755507Y-89784940D01*
X173610520Y-89756100D01*
X173610518Y-89756100D01*
X173530270Y-89756100D01*
X173463231Y-89736415D01*
X173429953Y-89704987D01*
X173306890Y-89535604D01*
X173140996Y-89369710D01*
X173140994Y-89369708D01*
X173140989Y-89369704D01*
X172951195Y-89231812D01*
X172951194Y-89231811D01*
X172951192Y-89231810D01*
X172846672Y-89178554D01*
X172742150Y-89125297D01*
X172519027Y-89052801D01*
X172403165Y-89034450D01*
X172287305Y-89016100D01*
X172052695Y-89016100D01*
X171975454Y-89028333D01*
X171820972Y-89052801D01*
X171597849Y-89125297D01*
X171388804Y-89231812D01*
X171199010Y-89369704D01*
X171199005Y-89369708D01*
X171033108Y-89535605D01*
X171033104Y-89535610D01*
X170895212Y-89725404D01*
X170788697Y-89934449D01*
X170716201Y-90157572D01*
X170686004Y-90348229D01*
X170679500Y-90389295D01*
X170679500Y-90623905D01*
X170685089Y-90659192D01*
X170716201Y-90855627D01*
X170788697Y-91078750D01*
X170841954Y-91183272D01*
X170890821Y-91279179D01*
X170895212Y-91287795D01*
X171033104Y-91477589D01*
X171033108Y-91477594D01*
X171199005Y-91643491D01*
X171199010Y-91643495D01*
X171244137Y-91676282D01*
X171286803Y-91731612D01*
X171292782Y-91801225D01*
X171260176Y-91863020D01*
X171244137Y-91876918D01*
X171199010Y-91909704D01*
X171199005Y-91909708D01*
X171047011Y-92061703D01*
X170985688Y-92095188D01*
X170915996Y-92090204D01*
X170871649Y-92061703D01*
X169556819Y-90746873D01*
X169523334Y-90685550D01*
X169520500Y-90659192D01*
X169520500Y-88735928D01*
X169495502Y-88610261D01*
X169495501Y-88610260D01*
X169495501Y-88610256D01*
X169446465Y-88491873D01*
X169432024Y-88470261D01*
X169432022Y-88470257D01*
X169432020Y-88470255D01*
X169406937Y-88432715D01*
X169375277Y-88385331D01*
X169375275Y-88385329D01*
X169375273Y-88385326D01*
X168834673Y-87844726D01*
X168757844Y-87793391D01*
X168728127Y-87773535D01*
X168728122Y-87773533D01*
X168609744Y-87724499D01*
X168585804Y-87719737D01*
X168555812Y-87713771D01*
X168484071Y-87699500D01*
X168484069Y-87699500D01*
X163008362Y-87699500D01*
X162941323Y-87679815D01*
X162895568Y-87627011D01*
X162885624Y-87557853D01*
X162914649Y-87494297D01*
X162920681Y-87487819D01*
X163349461Y-87059039D01*
X163349464Y-87059036D01*
X163402896Y-86979069D01*
X163448013Y-86911547D01*
X163481953Y-86829606D01*
X163515895Y-86747666D01*
X163529536Y-86679085D01*
X163561920Y-86617177D01*
X163622635Y-86582602D01*
X163692405Y-86586341D01*
X163707431Y-86592785D01*
X163733312Y-86605973D01*
X163895811Y-86658772D01*
X163982755Y-86672542D01*
X164064564Y-86685500D01*
X164064569Y-86685500D01*
X164235436Y-86685500D01*
X164310013Y-86673687D01*
X164404189Y-86658772D01*
X164566688Y-86605973D01*
X164718926Y-86528403D01*
X164827116Y-86449798D01*
X164892920Y-86426319D01*
X164960974Y-86442144D01*
X164972876Y-86449792D01*
X165081074Y-86528403D01*
X165233312Y-86605973D01*
X165395811Y-86658772D01*
X165482755Y-86672542D01*
X165564564Y-86685500D01*
X165564569Y-86685500D01*
X165735436Y-86685500D01*
X165810013Y-86673687D01*
X165904189Y-86658772D01*
X166066688Y-86605973D01*
X166218926Y-86528403D01*
X166327540Y-86449490D01*
X166393344Y-86426010D01*
X166461398Y-86441835D01*
X166473309Y-86449490D01*
X166581332Y-86527972D01*
X166733502Y-86605507D01*
X166895931Y-86658284D01*
X166900000Y-86658928D01*
X166900000Y-85607957D01*
X166982096Y-85655356D01*
X167092731Y-85685000D01*
X167207269Y-85685000D01*
X167317904Y-85655356D01*
X167400000Y-85607957D01*
X167400000Y-86658927D01*
X167404066Y-86658284D01*
X167404069Y-86658284D01*
X167566497Y-86605507D01*
X167723005Y-86525763D01*
X167723585Y-86526902D01*
X167785346Y-86510183D01*
X167847808Y-86528615D01*
X167995666Y-86619814D01*
X168162203Y-86674999D01*
X168264991Y-86685500D01*
X169035008Y-86685499D01*
X169035016Y-86685498D01*
X169035019Y-86685498D01*
X169097768Y-86679088D01*
X169137797Y-86674999D01*
X169304334Y-86619814D01*
X169453656Y-86527712D01*
X169577712Y-86403656D01*
X169669814Y-86254334D01*
X169724999Y-86087797D01*
X169735500Y-85985009D01*
X169735499Y-84514992D01*
X169729657Y-84457807D01*
X169724999Y-84412203D01*
X169724998Y-84412200D01*
X169698115Y-84331074D01*
X169669814Y-84245666D01*
X169577712Y-84096344D01*
X169453656Y-83972288D01*
X169326774Y-83894027D01*
X169304336Y-83880187D01*
X169304331Y-83880185D01*
X169302862Y-83879698D01*
X169137797Y-83825001D01*
X169137795Y-83825000D01*
X169035010Y-83814500D01*
X168264998Y-83814500D01*
X168264980Y-83814501D01*
X168162203Y-83825000D01*
X168162200Y-83825001D01*
X167995668Y-83880185D01*
X167995659Y-83880189D01*
X167847810Y-83971383D01*
X167780418Y-83989823D01*
X167723528Y-83973209D01*
X167723005Y-83974237D01*
X167566497Y-83894492D01*
X167404069Y-83841715D01*
X167400000Y-83841070D01*
X167400000Y-84892042D01*
X167317904Y-84844644D01*
X167207269Y-84815000D01*
X167092731Y-84815000D01*
X166982096Y-84844644D01*
X166900000Y-84892042D01*
X166900000Y-83841071D01*
X166899999Y-83841070D01*
X166895930Y-83841715D01*
X166733502Y-83894492D01*
X166581332Y-83972027D01*
X166473310Y-84050509D01*
X166407503Y-84073989D01*
X166339450Y-84058163D01*
X166327540Y-84050509D01*
X166218929Y-83971599D01*
X166218928Y-83971598D01*
X166218926Y-83971597D01*
X166066688Y-83894027D01*
X165904189Y-83841228D01*
X165903191Y-83841070D01*
X165735436Y-83814500D01*
X165735431Y-83814500D01*
X165564569Y-83814500D01*
X165564564Y-83814500D01*
X165395810Y-83841228D01*
X165233314Y-83894026D01*
X165081070Y-83971599D01*
X164972885Y-84050200D01*
X164953400Y-84057152D01*
X164936106Y-84068509D01*
X164921158Y-84068656D01*
X164907079Y-84073680D01*
X164886928Y-84068993D01*
X164866240Y-84069198D01*
X164846418Y-84059573D01*
X164839025Y-84057854D01*
X164833992Y-84054853D01*
X164830468Y-84052637D01*
X164718926Y-83971597D01*
X164627539Y-83925032D01*
X164622809Y-83922058D01*
X164618996Y-83917744D01*
X164601136Y-83904768D01*
X163977417Y-83281049D01*
X163893607Y-83225050D01*
X163891614Y-83223718D01*
X163854495Y-83198916D01*
X163854493Y-83198915D01*
X163854490Y-83198913D01*
X163717917Y-83142343D01*
X163717907Y-83142340D01*
X163572920Y-83113500D01*
X163572918Y-83113500D01*
X129772082Y-83113500D01*
X129772076Y-83113500D01*
X129743242Y-83119234D01*
X129743243Y-83119235D01*
X129627093Y-83142339D01*
X129627083Y-83142342D01*
X129547081Y-83175479D01*
X129547082Y-83175480D01*
X129490506Y-83198915D01*
X129451393Y-83225050D01*
X129367582Y-83281049D01*
X129367579Y-83281052D01*
X127238924Y-85409706D01*
X127177601Y-85443191D01*
X127107909Y-85438207D01*
X127051976Y-85396335D01*
X127029626Y-85346216D01*
X127024618Y-85321041D01*
X127019737Y-85296503D01*
X127000649Y-85250420D01*
X126959397Y-85150827D01*
X126959390Y-85150814D01*
X126871789Y-85019711D01*
X126871786Y-85019707D01*
X126760292Y-84908213D01*
X126760288Y-84908210D01*
X126629185Y-84820609D01*
X126629172Y-84820602D01*
X126483501Y-84760264D01*
X126483489Y-84760261D01*
X126328845Y-84729500D01*
X126328842Y-84729500D01*
X126171158Y-84729500D01*
X126171155Y-84729500D01*
X126016510Y-84760261D01*
X126016498Y-84760264D01*
X125870827Y-84820602D01*
X125870814Y-84820609D01*
X125739711Y-84908210D01*
X125739707Y-84908213D01*
X125628213Y-85019707D01*
X125628210Y-85019711D01*
X125540609Y-85150814D01*
X125540602Y-85150827D01*
X125480264Y-85296498D01*
X125480261Y-85296510D01*
X125449500Y-85451153D01*
X125449500Y-85608846D01*
X125480261Y-85763489D01*
X125480263Y-85763497D01*
X125490061Y-85787151D01*
X125499500Y-85834604D01*
X125499500Y-89763918D01*
X125499500Y-89763920D01*
X125499499Y-89763920D01*
X125528340Y-89908907D01*
X125528343Y-89908917D01*
X125584912Y-90045488D01*
X125584916Y-90045495D01*
X125608005Y-90080050D01*
X125608006Y-90080053D01*
X125608007Y-90080053D01*
X125659802Y-90157572D01*
X125667051Y-90168420D01*
X125667052Y-90168421D01*
X126142181Y-90643549D01*
X126175666Y-90704872D01*
X126178500Y-90731230D01*
X126178500Y-92565500D01*
X126158815Y-92632539D01*
X126106011Y-92678294D01*
X126054500Y-92689500D01*
X126011155Y-92689500D01*
X125856511Y-92720260D01*
X125856506Y-92720262D01*
X125856504Y-92720262D01*
X125856503Y-92720263D01*
X125832844Y-92730062D01*
X125785396Y-92739500D01*
X119996080Y-92739500D01*
X119851092Y-92768340D01*
X119851082Y-92768343D01*
X119714508Y-92824914D01*
X119714505Y-92824915D01*
X119714505Y-92824916D01*
X119666703Y-92856856D01*
X119666702Y-92856855D01*
X119591585Y-92907046D01*
X119591578Y-92907052D01*
X118967048Y-93531583D01*
X118946478Y-93562369D01*
X118926046Y-93592950D01*
X118926045Y-93592951D01*
X118884919Y-93654499D01*
X118884912Y-93654511D01*
X118828343Y-93791082D01*
X118828340Y-93791092D01*
X118799500Y-93936079D01*
X118799500Y-93936082D01*
X118799500Y-102113918D01*
X118799500Y-102113920D01*
X118799499Y-102113920D01*
X118828340Y-102258907D01*
X118828343Y-102258917D01*
X118884913Y-102395490D01*
X118884914Y-102395491D01*
X118884916Y-102395495D01*
X118907796Y-102429737D01*
X118960851Y-102509142D01*
X118967051Y-102518420D01*
X118967052Y-102518421D01*
X121177969Y-104729337D01*
X121186928Y-104745744D01*
X121199957Y-104759151D01*
X121203325Y-104775773D01*
X121211454Y-104790660D01*
X121210120Y-104809307D01*
X121213833Y-104827629D01*
X121207679Y-104843433D01*
X121206470Y-104860352D01*
X121195266Y-104875318D01*
X121188484Y-104892738D01*
X121165512Y-104915062D01*
X121164598Y-104916285D01*
X121163174Y-104917336D01*
X121062886Y-104990200D01*
X120997079Y-105013680D01*
X120929025Y-104997855D01*
X120917115Y-104990200D01*
X120808929Y-104911599D01*
X120808928Y-104911598D01*
X120808926Y-104911597D01*
X120656688Y-104834027D01*
X120580607Y-104809307D01*
X120494189Y-104781228D01*
X120325436Y-104754500D01*
X120325431Y-104754500D01*
X120154569Y-104754500D01*
X120154564Y-104754500D01*
X119985810Y-104781228D01*
X119823314Y-104834026D01*
X119671070Y-104911599D01*
X119562885Y-104990200D01*
X119497079Y-105013680D01*
X119429025Y-104997854D01*
X119417115Y-104990200D01*
X119308929Y-104911599D01*
X119308928Y-104911598D01*
X119308926Y-104911597D01*
X119156688Y-104834027D01*
X119080607Y-104809307D01*
X118994189Y-104781228D01*
X118825436Y-104754500D01*
X118825431Y-104754500D01*
X118654569Y-104754500D01*
X118654564Y-104754500D01*
X118485810Y-104781228D01*
X118323314Y-104834026D01*
X118171071Y-104911598D01*
X118062458Y-104990509D01*
X117996652Y-105013988D01*
X117928598Y-104998162D01*
X117916689Y-104990509D01*
X117808663Y-104912024D01*
X117656497Y-104834492D01*
X117494069Y-104781715D01*
X117490000Y-104781070D01*
X117490000Y-105832042D01*
X117407904Y-105784644D01*
X117297269Y-105755000D01*
X117182731Y-105755000D01*
X117072096Y-105784644D01*
X116990000Y-105832042D01*
X116990000Y-104781071D01*
X116989999Y-104781070D01*
X116985930Y-104781715D01*
X116823502Y-104834492D01*
X116666995Y-104914237D01*
X116666418Y-104913105D01*
X116604610Y-104929815D01*
X116542189Y-104911383D01*
X116394340Y-104820189D01*
X116394335Y-104820187D01*
X116394334Y-104820186D01*
X116227797Y-104765001D01*
X116227795Y-104765000D01*
X116125010Y-104754500D01*
X115354998Y-104754500D01*
X115354980Y-104754501D01*
X115252203Y-104765000D01*
X115252200Y-104765001D01*
X115085668Y-104820185D01*
X115085663Y-104820187D01*
X114936342Y-104912289D01*
X114812289Y-105036342D01*
X114720187Y-105185663D01*
X114720185Y-105185668D01*
X114695827Y-105259175D01*
X114665001Y-105352203D01*
X114665001Y-105352204D01*
X114665000Y-105352204D01*
X114654500Y-105454983D01*
X114654500Y-106925001D01*
X114654501Y-106925018D01*
X114665000Y-107027796D01*
X114665001Y-107027799D01*
X114720185Y-107194331D01*
X114720188Y-107194338D01*
X114721038Y-107195715D01*
X114721359Y-107196849D01*
X114723240Y-107200882D01*
X114722589Y-107201185D01*
X114739500Y-107260813D01*
X114739500Y-107648541D01*
X114739500Y-107648543D01*
X114739499Y-107648543D01*
X114777947Y-107841829D01*
X114777950Y-107841839D01*
X114853364Y-108023907D01*
X114853371Y-108023920D01*
X114962859Y-108187780D01*
X114962860Y-108187781D01*
X114962861Y-108187782D01*
X115102218Y-108327139D01*
X115102219Y-108327139D01*
X115109286Y-108334206D01*
X115109285Y-108334206D01*
X115109289Y-108334209D01*
X117263181Y-110488101D01*
X117296666Y-110549424D01*
X117299500Y-110575782D01*
X117299500Y-118126637D01*
X117279815Y-118193676D01*
X117227011Y-118239431D01*
X117157853Y-118249375D01*
X117094297Y-118220350D01*
X117087819Y-118214318D01*
X116268494Y-117394993D01*
X116198287Y-117348083D01*
X116193178Y-117344669D01*
X116121003Y-117296443D01*
X116039062Y-117262502D01*
X115957122Y-117228561D01*
X115957114Y-117228559D01*
X115783152Y-117193956D01*
X115783148Y-117193956D01*
X115783147Y-117193956D01*
X113041809Y-117193956D01*
X112974770Y-117174271D01*
X112934422Y-117131956D01*
X112897455Y-117067927D01*
X112476026Y-116337991D01*
X112476025Y-116337988D01*
X112451160Y-116303553D01*
X112415533Y-116254214D01*
X112284473Y-116137581D01*
X112130049Y-116054315D01*
X112130048Y-116054314D01*
X112130045Y-116054313D01*
X111960584Y-116008907D01*
X111785215Y-116003805D01*
X111613399Y-116039283D01*
X111613397Y-116039283D01*
X111519140Y-116081579D01*
X111519121Y-116081588D01*
X108747848Y-117681585D01*
X108747843Y-117681587D01*
X108664070Y-117742079D01*
X108664064Y-117742084D01*
X108547437Y-117873137D01*
X108464172Y-118027560D01*
X108418762Y-118197028D01*
X108413660Y-118372397D01*
X108449138Y-118544213D01*
X108491432Y-118638467D01*
X108491441Y-118638486D01*
X109191440Y-119850918D01*
X109191442Y-119850923D01*
X109191446Y-119850929D01*
X109191447Y-119850930D01*
X109251935Y-119934698D01*
X109382995Y-120051331D01*
X109537419Y-120134597D01*
X109537421Y-120134597D01*
X109537422Y-120134598D01*
X109550593Y-120138127D01*
X109706883Y-120180004D01*
X109882250Y-120185106D01*
X109882250Y-120185105D01*
X109882252Y-120185106D01*
X109932467Y-120174736D01*
X110054068Y-120149629D01*
X110148336Y-120107329D01*
X112046246Y-119011568D01*
X112108246Y-118994956D01*
X115270094Y-118994956D01*
X115337133Y-119014641D01*
X115357775Y-119031275D01*
X115923181Y-119596681D01*
X115956666Y-119658004D01*
X115959500Y-119684362D01*
X115959500Y-130718696D01*
X115994103Y-130892658D01*
X115994105Y-130892666D01*
X116028046Y-130974606D01*
X116061987Y-131056547D01*
X116091356Y-131100500D01*
X116095475Y-131106664D01*
X116160537Y-131204038D01*
X116883127Y-131926628D01*
X116916612Y-131987951D01*
X116911628Y-132057643D01*
X116869756Y-132113576D01*
X116857447Y-132121696D01*
X116808003Y-132150243D01*
X116744103Y-132187136D01*
X116704184Y-132215961D01*
X116660336Y-132247623D01*
X116660330Y-132247628D01*
X116543703Y-132378681D01*
X116460438Y-132533104D01*
X116415028Y-132702572D01*
X116409926Y-132877941D01*
X116445404Y-133049757D01*
X116487698Y-133144011D01*
X116487707Y-133144030D01*
X117187706Y-134356462D01*
X117187708Y-134356467D01*
X117187712Y-134356473D01*
X117187713Y-134356474D01*
X117248201Y-134440242D01*
X117379261Y-134556875D01*
X117533685Y-134640141D01*
X117533687Y-134640141D01*
X117533688Y-134640142D01*
X117551707Y-134644970D01*
X117703149Y-134685548D01*
X117878516Y-134690650D01*
X117878516Y-134690649D01*
X117878518Y-134690650D01*
X117928733Y-134680280D01*
X118050334Y-134655173D01*
X118144602Y-134612873D01*
X120915897Y-133012864D01*
X120999665Y-132952376D01*
X121116298Y-132821316D01*
X121199563Y-132666892D01*
X121244971Y-132497429D01*
X121250073Y-132322061D01*
X121250072Y-132322060D01*
X121250073Y-132322058D01*
X121228165Y-132215961D01*
X121214596Y-132150243D01*
X121172296Y-132055976D01*
X121151676Y-132020262D01*
X120819670Y-131445210D01*
X120472292Y-130843535D01*
X120472291Y-130843532D01*
X120472287Y-130843526D01*
X120411799Y-130759758D01*
X120280739Y-130643125D01*
X120126315Y-130559859D01*
X120126314Y-130559858D01*
X120126311Y-130559857D01*
X119956850Y-130514451D01*
X119781481Y-130509349D01*
X119609665Y-130544827D01*
X119609663Y-130544827D01*
X119515406Y-130587123D01*
X119515387Y-130587132D01*
X118694529Y-131061054D01*
X118626629Y-131077527D01*
X118560602Y-131054674D01*
X118544848Y-131041348D01*
X117796819Y-130293319D01*
X117763334Y-130231996D01*
X117760500Y-130205638D01*
X117760500Y-124484782D01*
X117780185Y-124417743D01*
X117832989Y-124371988D01*
X117902147Y-124362044D01*
X117965703Y-124391069D01*
X117972181Y-124397101D01*
X125033181Y-131458101D01*
X125066666Y-131519424D01*
X125069500Y-131545782D01*
X125069500Y-146718541D01*
X125069500Y-146718543D01*
X125069499Y-146718543D01*
X125107947Y-146911829D01*
X125107950Y-146911839D01*
X125183364Y-147093907D01*
X125183371Y-147093920D01*
X125292860Y-147257781D01*
X125292863Y-147257785D01*
X125436537Y-147401459D01*
X125436559Y-147401479D01*
X126629735Y-148594655D01*
X126629764Y-148594686D01*
X126772214Y-148737136D01*
X126772218Y-148737139D01*
X126936079Y-148846628D01*
X126936092Y-148846635D01*
X127064833Y-148899961D01*
X127118159Y-148922049D01*
X127118164Y-148922051D01*
X127163134Y-148930996D01*
X127200215Y-148938372D01*
X127311456Y-148960500D01*
X127311459Y-148960500D01*
X127311460Y-148960500D01*
X127508540Y-148960500D01*
X130721252Y-148960500D01*
X130747461Y-148968196D01*
X130774438Y-148972486D01*
X130783256Y-148978706D01*
X130788291Y-148980185D01*
X130803842Y-148992007D01*
X130806447Y-148994333D01*
X130909004Y-149096890D01*
X130974990Y-149144831D01*
X130979645Y-149148988D01*
X130994927Y-149173566D01*
X131012606Y-149196492D01*
X131013669Y-149203708D01*
X131016539Y-149208323D01*
X131016338Y-149221806D01*
X131020673Y-149251210D01*
X131018053Y-149284499D01*
X131624858Y-149891304D01*
X131567373Y-149915116D01*
X131459275Y-149987345D01*
X131367345Y-150079275D01*
X131295116Y-150187373D01*
X131271304Y-150244858D01*
X130664499Y-149638053D01*
X130664498Y-149638053D01*
X130605639Y-149719068D01*
X130499164Y-149928034D01*
X130426689Y-150151090D01*
X130390000Y-150382734D01*
X130390000Y-150617265D01*
X130426689Y-150848909D01*
X130499164Y-151071965D01*
X130605640Y-151280933D01*
X130664498Y-151361945D01*
X130664499Y-151361945D01*
X131271304Y-150755140D01*
X131295116Y-150812627D01*
X131367345Y-150920725D01*
X131459275Y-151012655D01*
X131567373Y-151084884D01*
X131624858Y-151108695D01*
X131018052Y-151715499D01*
X131018053Y-151715500D01*
X131099066Y-151774359D01*
X131308034Y-151880835D01*
X131531090Y-151953310D01*
X131762735Y-151990000D01*
X131997265Y-151990000D01*
X132228909Y-151953310D01*
X132451965Y-151880835D01*
X132660930Y-151774361D01*
X132741945Y-151715499D01*
X132741946Y-151715499D01*
X132135141Y-151108695D01*
X132192627Y-151084884D01*
X132300725Y-151012655D01*
X132392655Y-150920725D01*
X132464884Y-150812627D01*
X132488695Y-150755141D01*
X133095499Y-151361946D01*
X133095499Y-151361945D01*
X133154361Y-151280930D01*
X133260835Y-151071965D01*
X133333310Y-150848909D01*
X133370000Y-150617265D01*
X133370000Y-150382734D01*
X133333310Y-150151090D01*
X133260835Y-149928034D01*
X133154359Y-149719066D01*
X133095500Y-149638053D01*
X133095499Y-149638052D01*
X132488694Y-150244857D01*
X132464884Y-150187373D01*
X132392655Y-150079275D01*
X132300725Y-149987345D01*
X132192627Y-149915116D01*
X132135141Y-149891304D01*
X132741945Y-149284499D01*
X132739325Y-149251211D01*
X132753689Y-149182834D01*
X132790056Y-149141164D01*
X132850996Y-149096890D01*
X133016890Y-148930996D01*
X133154790Y-148741192D01*
X133261301Y-148532153D01*
X133333799Y-148309026D01*
X133370500Y-148077305D01*
X133370500Y-147842695D01*
X133333799Y-147610974D01*
X133297550Y-147499410D01*
X133261302Y-147387849D01*
X133233222Y-147332739D01*
X133154790Y-147178808D01*
X133093106Y-147093907D01*
X133016895Y-146989010D01*
X133016891Y-146989005D01*
X132850992Y-146823106D01*
X132805863Y-146790319D01*
X132763196Y-146734989D01*
X132757216Y-146665376D01*
X132789822Y-146603581D01*
X132805863Y-146589681D01*
X132850992Y-146556893D01*
X132850992Y-146556892D01*
X132850996Y-146556890D01*
X133016890Y-146390996D01*
X133154790Y-146201192D01*
X133261301Y-145992153D01*
X133333799Y-145769026D01*
X133370500Y-145537305D01*
X133370500Y-145302695D01*
X133333799Y-145070974D01*
X133261380Y-144848089D01*
X133261302Y-144847849D01*
X133261301Y-144847847D01*
X133154790Y-144638808D01*
X133046312Y-144489500D01*
X133016895Y-144449010D01*
X133016891Y-144449005D01*
X132850992Y-144283106D01*
X132805863Y-144250319D01*
X132792696Y-144233245D01*
X132776068Y-144219520D01*
X132771783Y-144206125D01*
X132763196Y-144194989D01*
X132761350Y-144173505D01*
X132754783Y-144152972D01*
X132758419Y-144139389D01*
X132757216Y-144125376D01*
X132767278Y-144106304D01*
X132772855Y-144085480D01*
X132785507Y-144071757D01*
X132789822Y-144063581D01*
X132795322Y-144058260D01*
X132800358Y-144053679D01*
X132850996Y-144016890D01*
X132953149Y-143914736D01*
X132955323Y-143912760D01*
X132984214Y-143898719D01*
X133012390Y-143883334D01*
X133016860Y-143882853D01*
X133018164Y-143882220D01*
X133020337Y-143882479D01*
X133038748Y-143880500D01*
X134545500Y-143880500D01*
X134612539Y-143900185D01*
X134658294Y-143952989D01*
X134669500Y-144004500D01*
X134669500Y-153896827D01*
X134663431Y-153935145D01*
X134611228Y-154095809D01*
X134584500Y-154264563D01*
X134584500Y-155135436D01*
X134606229Y-155272627D01*
X134611228Y-155304189D01*
X134664027Y-155466688D01*
X134741597Y-155618926D01*
X134842027Y-155757156D01*
X134962844Y-155877973D01*
X135101074Y-155978403D01*
X135253312Y-156055973D01*
X135415811Y-156108772D01*
X135502755Y-156122542D01*
X135584564Y-156135500D01*
X135584569Y-156135500D01*
X135755436Y-156135500D01*
X135830013Y-156123687D01*
X135924189Y-156108772D01*
X136086688Y-156055973D01*
X136238926Y-155978403D01*
X136347116Y-155899798D01*
X136412920Y-155876319D01*
X136480974Y-155892144D01*
X136492876Y-155899792D01*
X136601074Y-155978403D01*
X136753312Y-156055973D01*
X136915811Y-156108772D01*
X137002755Y-156122542D01*
X137084564Y-156135500D01*
X137084569Y-156135500D01*
X137255436Y-156135500D01*
X137330013Y-156123687D01*
X137424189Y-156108772D01*
X137586688Y-156055973D01*
X137738926Y-155978403D01*
X137822616Y-155917597D01*
X137888420Y-155894119D01*
X137956474Y-155909944D01*
X138005169Y-155960049D01*
X138019500Y-156017917D01*
X138019500Y-157134071D01*
X138038911Y-157231652D01*
X138038911Y-157231653D01*
X138044497Y-157259737D01*
X138044500Y-157259746D01*
X138093534Y-157378125D01*
X138164726Y-157484673D01*
X138633260Y-157953207D01*
X138666745Y-158014530D01*
X138661761Y-158084222D01*
X138619889Y-158140155D01*
X138554425Y-158164572D01*
X138545579Y-158164888D01*
X136182615Y-158164888D01*
X136179008Y-158164836D01*
X135568085Y-158147059D01*
X135560885Y-158146639D01*
X134953872Y-158093532D01*
X134946707Y-158092695D01*
X134343773Y-158004378D01*
X134336670Y-158003125D01*
X133739927Y-157879907D01*
X133732908Y-157878244D01*
X133144307Y-157720529D01*
X133137397Y-157718460D01*
X132558980Y-157526793D01*
X132552202Y-157524326D01*
X131985903Y-157299349D01*
X131979280Y-157296492D01*
X131427027Y-157038972D01*
X131420582Y-157035735D01*
X130884216Y-156746529D01*
X130877969Y-156742922D01*
X130359364Y-156423041D01*
X130353337Y-156419078D01*
X129854161Y-156069551D01*
X129848376Y-156065243D01*
X129370415Y-155687319D01*
X129364889Y-155682683D01*
X128909674Y-155277577D01*
X128904428Y-155272627D01*
X128473564Y-154841762D01*
X128468614Y-154836516D01*
X128063517Y-154381311D01*
X128058880Y-154375785D01*
X127680934Y-153897794D01*
X127676636Y-153892021D01*
X127327105Y-153392838D01*
X127323174Y-153386862D01*
X127002112Y-152866340D01*
X127000332Y-152863356D01*
X117289852Y-136044311D01*
X118396228Y-136044311D01*
X118396228Y-136044321D01*
X118407763Y-136264453D01*
X118407764Y-136264457D01*
X118453598Y-136480084D01*
X118532594Y-136685879D01*
X118532599Y-136685888D01*
X118642817Y-136876791D01*
X118642822Y-136876798D01*
X118781550Y-137048112D01*
X118945365Y-137195613D01*
X118945367Y-137195614D01*
X118945370Y-137195617D01*
X119130250Y-137315678D01*
X119331635Y-137405341D01*
X119331636Y-137405341D01*
X119331638Y-137405342D01*
X119380406Y-137418409D01*
X119544567Y-137462396D01*
X119763803Y-137485438D01*
X119983944Y-137473902D01*
X120199571Y-137428068D01*
X120405372Y-137349069D01*
X122155128Y-136338847D01*
X122326444Y-136200117D01*
X122354045Y-136169464D01*
X122393275Y-136125895D01*
X122473951Y-136036296D01*
X122594012Y-135851416D01*
X122683675Y-135650031D01*
X122740730Y-135437099D01*
X122763772Y-135217863D01*
X122752236Y-134997722D01*
X122706402Y-134782096D01*
X122627402Y-134576294D01*
X122517180Y-134385384D01*
X122378451Y-134214068D01*
X122378448Y-134214065D01*
X122214634Y-134066564D01*
X122214631Y-134066562D01*
X122214630Y-134066561D01*
X122029750Y-133946500D01*
X121885374Y-133882219D01*
X121828361Y-133856835D01*
X121615437Y-133799783D01*
X121615436Y-133799782D01*
X121615433Y-133799782D01*
X121396197Y-133776740D01*
X121396195Y-133776740D01*
X121176058Y-133788275D01*
X121176054Y-133788276D01*
X120960427Y-133834110D01*
X120754632Y-133913106D01*
X120754623Y-133913111D01*
X119004874Y-134923329D01*
X119004867Y-134923334D01*
X118833553Y-135062062D01*
X118686052Y-135225877D01*
X118565989Y-135410760D01*
X118476323Y-135612150D01*
X118419271Y-135825074D01*
X118419270Y-135825079D01*
X118411758Y-135896553D01*
X118396228Y-136044311D01*
X117289852Y-136044311D01*
X108915073Y-121538767D01*
X110399962Y-121538767D01*
X110399962Y-121538777D01*
X110411497Y-121758909D01*
X110411498Y-121758913D01*
X110457332Y-121974540D01*
X110536328Y-122180335D01*
X110536333Y-122180344D01*
X110646551Y-122371247D01*
X110646556Y-122371254D01*
X110785284Y-122542568D01*
X110949099Y-122690069D01*
X110949101Y-122690070D01*
X110949104Y-122690073D01*
X111133984Y-122810134D01*
X111335369Y-122899797D01*
X111335370Y-122899797D01*
X111335372Y-122899798D01*
X111384140Y-122912865D01*
X111548301Y-122956852D01*
X111767537Y-122979894D01*
X111987678Y-122968358D01*
X112203305Y-122922524D01*
X112409106Y-122843525D01*
X114158862Y-121833303D01*
X114330178Y-121694573D01*
X114477685Y-121530752D01*
X114597746Y-121345872D01*
X114687409Y-121144487D01*
X114744464Y-120931555D01*
X114767506Y-120712319D01*
X114755970Y-120492178D01*
X114710136Y-120276552D01*
X114631136Y-120070750D01*
X114520914Y-119879840D01*
X114382185Y-119708524D01*
X114355351Y-119684362D01*
X114218368Y-119561020D01*
X114218365Y-119561018D01*
X114218364Y-119561017D01*
X114033484Y-119440956D01*
X113855397Y-119361666D01*
X113832095Y-119351291D01*
X113619171Y-119294239D01*
X113619170Y-119294238D01*
X113619167Y-119294238D01*
X113399931Y-119271196D01*
X113399929Y-119271196D01*
X113179792Y-119282731D01*
X113179788Y-119282732D01*
X112964161Y-119328566D01*
X112758366Y-119407562D01*
X112758357Y-119407567D01*
X111008608Y-120417785D01*
X111008601Y-120417790D01*
X110837287Y-120556518D01*
X110689786Y-120720333D01*
X110569723Y-120905216D01*
X110480057Y-121106606D01*
X110445443Y-121235790D01*
X110423004Y-121319535D01*
X110416937Y-121377261D01*
X110399962Y-121538767D01*
X108915073Y-121538767D01*
X103239878Y-111709041D01*
X104929500Y-111709041D01*
X104929500Y-111990958D01*
X104966295Y-112270439D01*
X105039259Y-112542743D01*
X105147135Y-112803179D01*
X105147140Y-112803190D01*
X105274914Y-113024499D01*
X105288088Y-113047317D01*
X105459700Y-113270965D01*
X105459704Y-113270970D01*
X105659029Y-113470295D01*
X105659033Y-113470298D01*
X105659035Y-113470300D01*
X105882683Y-113641912D01*
X105882690Y-113641916D01*
X106126809Y-113782859D01*
X106126814Y-113782861D01*
X106126817Y-113782863D01*
X106387261Y-113890742D01*
X106659558Y-113963704D01*
X106939049Y-114000500D01*
X106939056Y-114000500D01*
X107220944Y-114000500D01*
X107220951Y-114000500D01*
X107500442Y-113963704D01*
X107772739Y-113890742D01*
X108033183Y-113782863D01*
X108277317Y-113641912D01*
X108500965Y-113470300D01*
X108700300Y-113270965D01*
X108871912Y-113047317D01*
X109012863Y-112803183D01*
X109120742Y-112542739D01*
X109193704Y-112270442D01*
X109230500Y-111990951D01*
X109230500Y-111709049D01*
X109193704Y-111429558D01*
X109120742Y-111157261D01*
X109012863Y-110896817D01*
X109012861Y-110896814D01*
X109012859Y-110896809D01*
X108871916Y-110652690D01*
X108871912Y-110652683D01*
X108700300Y-110429035D01*
X108700298Y-110429033D01*
X108700295Y-110429029D01*
X108500970Y-110229704D01*
X108491604Y-110222517D01*
X108277317Y-110058088D01*
X108277311Y-110058084D01*
X108277309Y-110058083D01*
X108033190Y-109917140D01*
X108033179Y-109917135D01*
X107772743Y-109809259D01*
X107500439Y-109736295D01*
X107220958Y-109699500D01*
X107220951Y-109699500D01*
X106939049Y-109699500D01*
X106939041Y-109699500D01*
X106659560Y-109736295D01*
X106387256Y-109809259D01*
X106126820Y-109917135D01*
X106126809Y-109917140D01*
X105882690Y-110058083D01*
X105882684Y-110058087D01*
X105882683Y-110058088D01*
X105841550Y-110089651D01*
X105659029Y-110229704D01*
X105459704Y-110429029D01*
X105288089Y-110652682D01*
X105288083Y-110652690D01*
X105147140Y-110896809D01*
X105147135Y-110896820D01*
X105039259Y-111157256D01*
X104966295Y-111429560D01*
X104929500Y-111709041D01*
X103239878Y-111709041D01*
X98587713Y-103651255D01*
X98586006Y-103648196D01*
X98295927Y-103110209D01*
X98292698Y-103103779D01*
X98267351Y-103049422D01*
X98079354Y-102646260D01*
X101322000Y-102646260D01*
X101322000Y-102893739D01*
X101322001Y-102893756D01*
X101354303Y-103139117D01*
X101418361Y-103378184D01*
X101513069Y-103606829D01*
X101513074Y-103606840D01*
X101636812Y-103821159D01*
X101636823Y-103821175D01*
X101787479Y-104017514D01*
X101787485Y-104017521D01*
X101962478Y-104192514D01*
X101962484Y-104192519D01*
X102158833Y-104343183D01*
X102159370Y-104343493D01*
X102373159Y-104466925D01*
X102373164Y-104466927D01*
X102373167Y-104466929D01*
X102601820Y-104561640D01*
X102840879Y-104625696D01*
X103086254Y-104658000D01*
X103086261Y-104658000D01*
X103333739Y-104658000D01*
X103333746Y-104658000D01*
X103579121Y-104625696D01*
X103818180Y-104561640D01*
X104046833Y-104466929D01*
X104261167Y-104343183D01*
X104457516Y-104192519D01*
X104632519Y-104017516D01*
X104783183Y-103821167D01*
X104906929Y-103606833D01*
X105001640Y-103378180D01*
X105065696Y-103139121D01*
X105098000Y-102893746D01*
X105098000Y-102646254D01*
X105065696Y-102400879D01*
X105001640Y-102161820D01*
X104987717Y-102128208D01*
X104962174Y-102066540D01*
X104906929Y-101933167D01*
X104906927Y-101933164D01*
X104906925Y-101933159D01*
X104783187Y-101718840D01*
X104783183Y-101718833D01*
X104632519Y-101522484D01*
X104632514Y-101522478D01*
X104457521Y-101347485D01*
X104457514Y-101347479D01*
X104284449Y-101214682D01*
X104284448Y-101214681D01*
X104261177Y-101196824D01*
X104261159Y-101196812D01*
X104046840Y-101073074D01*
X104046829Y-101073069D01*
X103818184Y-100978361D01*
X103619677Y-100925171D01*
X103579121Y-100914304D01*
X103579120Y-100914303D01*
X103579117Y-100914303D01*
X103333756Y-100882001D01*
X103333751Y-100882000D01*
X103333746Y-100882000D01*
X103086254Y-100882000D01*
X103086248Y-100882000D01*
X103086243Y-100882001D01*
X102840882Y-100914303D01*
X102601815Y-100978361D01*
X102373170Y-101073069D01*
X102373159Y-101073074D01*
X102158840Y-101196812D01*
X102158824Y-101196823D01*
X101962485Y-101347479D01*
X101962478Y-101347485D01*
X101787485Y-101522478D01*
X101787479Y-101522485D01*
X101636823Y-101718824D01*
X101636812Y-101718840D01*
X101513074Y-101933159D01*
X101513069Y-101933170D01*
X101418361Y-102161815D01*
X101354303Y-102400882D01*
X101322001Y-102646243D01*
X101322000Y-102646260D01*
X98079354Y-102646260D01*
X98035171Y-102551509D01*
X98032318Y-102544894D01*
X97807342Y-101978594D01*
X97804875Y-101971817D01*
X97749099Y-101803495D01*
X97613205Y-101393391D01*
X97611139Y-101386489D01*
X97604857Y-101363044D01*
X97453421Y-100797875D01*
X97451761Y-100790869D01*
X97450651Y-100785495D01*
X97328541Y-100194112D01*
X97327293Y-100187034D01*
X97238971Y-99584061D01*
X97238140Y-99576948D01*
X97185030Y-98969898D01*
X97184611Y-98962709D01*
X97166887Y-98353572D01*
X97166887Y-98346423D01*
X97178530Y-97946260D01*
X101322000Y-97946260D01*
X101322000Y-98193739D01*
X101322001Y-98193756D01*
X101354303Y-98439117D01*
X101418361Y-98678184D01*
X101513069Y-98906829D01*
X101513074Y-98906840D01*
X101636812Y-99121159D01*
X101636823Y-99121175D01*
X101787479Y-99317514D01*
X101787485Y-99317521D01*
X101962478Y-99492514D01*
X101962485Y-99492520D01*
X102010952Y-99529710D01*
X102158833Y-99643183D01*
X102158840Y-99643187D01*
X102373159Y-99766925D01*
X102373164Y-99766927D01*
X102373167Y-99766929D01*
X102601820Y-99861640D01*
X102840879Y-99925696D01*
X103086254Y-99958000D01*
X103086261Y-99958000D01*
X103333739Y-99958000D01*
X103333746Y-99958000D01*
X103579121Y-99925696D01*
X103818180Y-99861640D01*
X104046833Y-99766929D01*
X104261167Y-99643183D01*
X104457516Y-99492519D01*
X104632519Y-99317516D01*
X104783183Y-99121167D01*
X104906929Y-98906833D01*
X105001640Y-98678180D01*
X105065696Y-98439121D01*
X105098000Y-98193746D01*
X105098000Y-97946254D01*
X105065696Y-97700879D01*
X105001640Y-97461820D01*
X104906929Y-97233167D01*
X104906927Y-97233164D01*
X104906925Y-97233159D01*
X104783187Y-97018840D01*
X104783183Y-97018833D01*
X104776325Y-97009896D01*
X104765863Y-96996261D01*
X104765862Y-96996260D01*
X104760834Y-96989708D01*
X104711678Y-96925646D01*
X109499500Y-96925646D01*
X109499500Y-97154353D01*
X109535278Y-97380246D01*
X109535278Y-97380249D01*
X109605950Y-97597755D01*
X109683370Y-97749700D01*
X109709783Y-97801538D01*
X109844214Y-97986566D01*
X110005934Y-98148286D01*
X110090864Y-98209991D01*
X110133529Y-98265321D01*
X110139508Y-98334935D01*
X110106902Y-98396730D01*
X110090864Y-98410627D01*
X110006257Y-98472097D01*
X109844597Y-98633757D01*
X109710211Y-98818723D01*
X109606417Y-99022429D01*
X109535765Y-99239871D01*
X109521491Y-99330000D01*
X110509252Y-99330000D01*
X110487482Y-99367708D01*
X110450000Y-99507591D01*
X110450000Y-99652409D01*
X110487482Y-99792292D01*
X110509252Y-99830000D01*
X109521491Y-99830000D01*
X109535765Y-99920128D01*
X109606417Y-100137570D01*
X109710213Y-100341279D01*
X109843011Y-100524060D01*
X109866491Y-100589866D01*
X109850666Y-100657920D01*
X109800560Y-100706615D01*
X109786026Y-100713127D01*
X109757671Y-100723702D01*
X109757664Y-100723706D01*
X109642455Y-100809952D01*
X109642452Y-100809955D01*
X109556206Y-100925164D01*
X109556202Y-100925171D01*
X109505908Y-101060017D01*
X109499501Y-101119616D01*
X109499501Y-101119623D01*
X109499500Y-101119635D01*
X109499500Y-103120370D01*
X109499501Y-103120376D01*
X109505908Y-103179983D01*
X109556202Y-103314828D01*
X109556206Y-103314835D01*
X109642452Y-103430044D01*
X109642455Y-103430047D01*
X109757664Y-103516293D01*
X109757671Y-103516297D01*
X109892517Y-103566591D01*
X109892516Y-103566591D01*
X109899444Y-103567335D01*
X109952127Y-103573000D01*
X112047872Y-103572999D01*
X112107483Y-103566591D01*
X112242331Y-103516296D01*
X112357546Y-103430046D01*
X112443796Y-103314831D01*
X112494091Y-103179983D01*
X112500500Y-103120373D01*
X112500499Y-101119628D01*
X112494091Y-101060017D01*
X112479056Y-101019707D01*
X112443797Y-100925171D01*
X112443793Y-100925164D01*
X112357547Y-100809955D01*
X112357544Y-100809952D01*
X112242335Y-100723706D01*
X112242326Y-100723701D01*
X112213974Y-100713127D01*
X112158040Y-100671257D01*
X112133622Y-100605792D01*
X112148473Y-100537519D01*
X112156988Y-100524059D01*
X112289788Y-100341276D01*
X112393582Y-100137570D01*
X112464234Y-99920128D01*
X112478509Y-99830000D01*
X111490748Y-99830000D01*
X111512518Y-99792292D01*
X111550000Y-99652409D01*
X111550000Y-99507591D01*
X111512518Y-99367708D01*
X111490748Y-99330000D01*
X112478509Y-99330000D01*
X112464234Y-99239871D01*
X112393582Y-99022429D01*
X112289788Y-98818723D01*
X112155402Y-98633757D01*
X111993742Y-98472097D01*
X111909135Y-98410626D01*
X111866470Y-98355296D01*
X111860491Y-98285682D01*
X111893097Y-98223887D01*
X111909125Y-98209999D01*
X111994066Y-98148286D01*
X112155786Y-97986566D01*
X112290217Y-97801538D01*
X112394048Y-97597758D01*
X112438217Y-97461820D01*
X112464721Y-97380249D01*
X112464721Y-97380248D01*
X112464722Y-97380245D01*
X112500500Y-97154354D01*
X112500500Y-96925646D01*
X112464722Y-96699755D01*
X112464721Y-96699751D01*
X112464721Y-96699750D01*
X112394049Y-96482244D01*
X112376879Y-96448546D01*
X112290217Y-96278462D01*
X112155786Y-96093434D01*
X111994066Y-95931714D01*
X111809038Y-95797283D01*
X111773381Y-95779115D01*
X111605255Y-95693450D01*
X111387748Y-95622778D01*
X111218326Y-95595944D01*
X111161854Y-95587000D01*
X110838146Y-95587000D01*
X110778614Y-95596429D01*
X110612253Y-95622778D01*
X110612250Y-95622778D01*
X110394744Y-95693450D01*
X110190961Y-95797283D01*
X110110177Y-95855977D01*
X110005934Y-95931714D01*
X110005932Y-95931716D01*
X110005931Y-95931716D01*
X109844216Y-96093431D01*
X109844216Y-96093432D01*
X109844214Y-96093434D01*
X109796759Y-96158750D01*
X109709783Y-96278461D01*
X109605950Y-96482244D01*
X109535278Y-96699750D01*
X109535278Y-96699753D01*
X109499500Y-96925646D01*
X104711678Y-96925646D01*
X104694889Y-96903766D01*
X104632520Y-96822485D01*
X104632514Y-96822478D01*
X104457521Y-96647485D01*
X104457514Y-96647479D01*
X104261175Y-96496823D01*
X104261173Y-96496821D01*
X104261167Y-96496817D01*
X104261162Y-96496814D01*
X104261159Y-96496812D01*
X104046840Y-96373074D01*
X104046829Y-96373069D01*
X103818184Y-96278361D01*
X103579117Y-96214303D01*
X103333756Y-96182001D01*
X103333751Y-96182000D01*
X103333746Y-96182000D01*
X103086254Y-96182000D01*
X103086248Y-96182000D01*
X103086243Y-96182001D01*
X102840882Y-96214303D01*
X102601815Y-96278361D01*
X102373170Y-96373069D01*
X102373159Y-96373074D01*
X102158840Y-96496812D01*
X102158824Y-96496823D01*
X101962485Y-96647479D01*
X101962478Y-96647485D01*
X101787485Y-96822478D01*
X101787479Y-96822485D01*
X101636823Y-97018824D01*
X101636812Y-97018840D01*
X101513074Y-97233159D01*
X101513069Y-97233170D01*
X101418361Y-97461815D01*
X101354303Y-97700882D01*
X101322001Y-97946243D01*
X101322000Y-97946260D01*
X97178530Y-97946260D01*
X97184611Y-97737273D01*
X97185031Y-97730087D01*
X97187586Y-97700882D01*
X97238140Y-97123043D01*
X97238970Y-97115938D01*
X97327294Y-96512956D01*
X97328540Y-96505890D01*
X97451766Y-95909106D01*
X97453419Y-95902129D01*
X97611145Y-95313489D01*
X97613203Y-95306615D01*
X97804880Y-94728166D01*
X97807343Y-94721402D01*
X97871138Y-94560821D01*
X98032323Y-94155092D01*
X98035166Y-94148499D01*
X98292713Y-93596188D01*
X98295921Y-93589801D01*
X98586057Y-93051710D01*
X98587778Y-93048624D01*
X99230940Y-91934635D01*
X101322000Y-91934635D01*
X101322000Y-94805370D01*
X101322001Y-94805376D01*
X101328408Y-94864983D01*
X101378702Y-94999828D01*
X101378706Y-94999835D01*
X101464952Y-95115044D01*
X101464955Y-95115047D01*
X101580164Y-95201293D01*
X101580171Y-95201297D01*
X101715017Y-95251591D01*
X101715016Y-95251591D01*
X101721944Y-95252335D01*
X101774627Y-95258000D01*
X104645372Y-95257999D01*
X104704983Y-95251591D01*
X104839831Y-95201296D01*
X104955046Y-95115046D01*
X105041296Y-94999831D01*
X105091591Y-94864983D01*
X105098000Y-94805373D01*
X105097999Y-91934628D01*
X105092799Y-91886257D01*
X105091591Y-91875016D01*
X105041297Y-91740171D01*
X105041293Y-91740164D01*
X104955047Y-91624955D01*
X104955044Y-91624952D01*
X104839835Y-91538706D01*
X104839828Y-91538702D01*
X104704982Y-91488408D01*
X104704983Y-91488408D01*
X104645383Y-91482001D01*
X104645381Y-91482000D01*
X104645373Y-91482000D01*
X104645364Y-91482000D01*
X101774629Y-91482000D01*
X101774623Y-91482001D01*
X101715016Y-91488408D01*
X101580171Y-91538702D01*
X101580164Y-91538706D01*
X101464955Y-91624952D01*
X101464952Y-91624955D01*
X101378706Y-91740164D01*
X101378702Y-91740171D01*
X101328408Y-91875017D01*
X101322001Y-91934616D01*
X101322001Y-91934623D01*
X101322000Y-91934635D01*
X99230940Y-91934635D01*
X101699197Y-87659491D01*
X101701024Y-87656432D01*
X101701686Y-87655360D01*
X102021885Y-87136239D01*
X102025837Y-87130229D01*
X102025849Y-87130212D01*
X102375379Y-86631035D01*
X102379660Y-86625285D01*
X102757616Y-86147283D01*
X102762211Y-86141806D01*
X103167357Y-85686550D01*
X103172256Y-85681357D01*
X103245050Y-85608563D01*
X106850000Y-85608563D01*
X106850000Y-86930000D01*
X108113498Y-86930000D01*
X108100000Y-87032527D01*
X108100000Y-87327473D01*
X108113498Y-87430000D01*
X106850000Y-87430000D01*
X106850000Y-88751436D01*
X106865300Y-88965362D01*
X106926109Y-89244895D01*
X107026091Y-89512958D01*
X107163191Y-89764038D01*
X107163192Y-89764039D01*
X107334639Y-89993065D01*
X107334649Y-89993077D01*
X107536922Y-90195350D01*
X107536934Y-90195360D01*
X107765960Y-90366807D01*
X107765961Y-90366808D01*
X108017042Y-90503908D01*
X108017041Y-90503908D01*
X108285104Y-90603890D01*
X108564637Y-90664699D01*
X108778563Y-90679999D01*
X108778566Y-90680000D01*
X110100000Y-90680000D01*
X110100000Y-89416502D01*
X110202527Y-89430000D01*
X110497473Y-89430000D01*
X110600000Y-89416502D01*
X110600000Y-90680000D01*
X111921434Y-90680000D01*
X111921436Y-90679999D01*
X112135362Y-90664699D01*
X112414895Y-90603890D01*
X112682958Y-90503908D01*
X112934038Y-90366808D01*
X112934039Y-90366807D01*
X113163065Y-90195360D01*
X113163077Y-90195350D01*
X113365350Y-89993077D01*
X113365360Y-89993065D01*
X113536807Y-89764039D01*
X113536808Y-89764038D01*
X113673908Y-89512958D01*
X113773890Y-89244895D01*
X113834699Y-88965362D01*
X113849999Y-88751436D01*
X113850000Y-88751434D01*
X113850000Y-87780810D01*
X113869685Y-87713771D01*
X113922489Y-87668016D01*
X113991647Y-87658072D01*
X114055203Y-87687097D01*
X114092977Y-87745875D01*
X114095617Y-87756619D01*
X114150308Y-88031572D01*
X114250150Y-88360706D01*
X114381770Y-88678464D01*
X114381772Y-88678469D01*
X114543893Y-88981775D01*
X114543904Y-88981793D01*
X114734975Y-89267751D01*
X114734985Y-89267765D01*
X114953176Y-89533632D01*
X115196367Y-89776823D01*
X115196372Y-89776827D01*
X115196373Y-89776828D01*
X115462240Y-89995019D01*
X115748213Y-90186100D01*
X115748222Y-90186105D01*
X115748224Y-90186106D01*
X116051530Y-90348227D01*
X116051532Y-90348227D01*
X116051538Y-90348231D01*
X116369295Y-90479850D01*
X116698422Y-90579690D01*
X117035750Y-90646789D01*
X117378031Y-90680500D01*
X117378034Y-90680500D01*
X117721966Y-90680500D01*
X117721969Y-90680500D01*
X118064250Y-90646789D01*
X118401578Y-90579690D01*
X118730705Y-90479850D01*
X119048462Y-90348231D01*
X119351787Y-90186100D01*
X119637760Y-89995019D01*
X119903627Y-89776828D01*
X120146828Y-89533627D01*
X120365019Y-89267760D01*
X120556100Y-88981787D01*
X120718231Y-88678462D01*
X120849850Y-88360705D01*
X120949690Y-88031578D01*
X121016789Y-87694250D01*
X121050500Y-87351969D01*
X121050500Y-87008031D01*
X121016789Y-86665750D01*
X121001216Y-86587461D01*
X120949691Y-86328427D01*
X120949690Y-86328426D01*
X120949690Y-86328422D01*
X120849850Y-85999295D01*
X120718231Y-85681538D01*
X120704236Y-85655356D01*
X120556106Y-85378224D01*
X120556105Y-85378222D01*
X120556100Y-85378213D01*
X120365019Y-85092240D01*
X120146828Y-84826373D01*
X120146827Y-84826372D01*
X120146823Y-84826367D01*
X119903632Y-84583176D01*
X119637765Y-84364985D01*
X119637764Y-84364984D01*
X119637760Y-84364981D01*
X119351787Y-84173900D01*
X119351782Y-84173897D01*
X119351775Y-84173893D01*
X119048469Y-84011772D01*
X119048464Y-84011770D01*
X119003610Y-83993191D01*
X118950961Y-83971383D01*
X118730706Y-83880150D01*
X118401572Y-83780308D01*
X118064248Y-83713210D01*
X118064249Y-83713210D01*
X117806456Y-83687821D01*
X117721969Y-83679500D01*
X117378031Y-83679500D01*
X117299966Y-83687188D01*
X117035750Y-83713210D01*
X116698427Y-83780308D01*
X116369293Y-83880150D01*
X116051535Y-84011770D01*
X116051530Y-84011772D01*
X115748224Y-84173893D01*
X115748206Y-84173904D01*
X115462248Y-84364975D01*
X115462234Y-84364985D01*
X115196367Y-84583176D01*
X114953176Y-84826367D01*
X114734985Y-85092234D01*
X114734975Y-85092248D01*
X114543904Y-85378206D01*
X114543893Y-85378224D01*
X114381772Y-85681530D01*
X114381770Y-85681535D01*
X114250150Y-85999293D01*
X114150308Y-86328427D01*
X114095617Y-86603380D01*
X114063232Y-86665291D01*
X114002516Y-86699865D01*
X113932747Y-86696126D01*
X113876075Y-86655259D01*
X113850494Y-86590241D01*
X113850000Y-86579189D01*
X113850000Y-85608566D01*
X113849999Y-85608563D01*
X113834699Y-85394637D01*
X113773890Y-85115104D01*
X113673908Y-84847041D01*
X113536808Y-84595961D01*
X113536807Y-84595960D01*
X113365360Y-84366934D01*
X113365350Y-84366922D01*
X113163077Y-84164649D01*
X113163065Y-84164639D01*
X112934039Y-83993192D01*
X112934038Y-83993191D01*
X112682957Y-83856091D01*
X112682958Y-83856091D01*
X112414895Y-83756109D01*
X112135362Y-83695300D01*
X111921436Y-83680000D01*
X110600000Y-83680000D01*
X110600000Y-84943497D01*
X110497473Y-84930000D01*
X110202527Y-84930000D01*
X110100000Y-84943497D01*
X110100000Y-83680000D01*
X108778563Y-83680000D01*
X108564637Y-83695300D01*
X108285104Y-83756109D01*
X108017041Y-83856091D01*
X107765961Y-83993191D01*
X107765960Y-83993192D01*
X107536934Y-84164639D01*
X107536922Y-84164649D01*
X107334649Y-84366922D01*
X107334639Y-84366934D01*
X107163192Y-84595960D01*
X107163191Y-84595961D01*
X107026091Y-84847041D01*
X106926109Y-85115104D01*
X106865300Y-85394637D01*
X106850000Y-85608563D01*
X103245050Y-85608563D01*
X103603172Y-85250443D01*
X103608384Y-85245525D01*
X104063625Y-84840396D01*
X104069113Y-84835791D01*
X104547139Y-84457819D01*
X104552894Y-84453535D01*
X105052085Y-84104000D01*
X105058040Y-84100082D01*
X105576750Y-83780139D01*
X105582933Y-83776570D01*
X106119334Y-83487347D01*
X106125735Y-83484132D01*
X106678033Y-83226593D01*
X106684613Y-83223755D01*
X107250947Y-82998766D01*
X107257699Y-82996308D01*
X107836146Y-82804633D01*
X107843021Y-82802575D01*
X108431659Y-82644851D01*
X108438631Y-82643199D01*
X109035408Y-82519976D01*
X109042504Y-82518724D01*
X109645443Y-82430409D01*
X109652596Y-82429573D01*
X110259630Y-82376466D01*
X110266805Y-82376047D01*
X110878695Y-82358245D01*
X110882243Y-82358194D01*
X110937110Y-82358194D01*
X110937112Y-82358193D01*
X110947110Y-82358193D01*
X167650984Y-82358193D01*
X167706748Y-82358193D01*
X167710354Y-82358245D01*
G37*
%TD.AperFunction*%
%TA.AperFunction,Conductor*%
G36*
X145507271Y-116250785D02*
G01*
X145576764Y-116354789D01*
X145665211Y-116443236D01*
X145769215Y-116512729D01*
X145833991Y-116539560D01*
X145234899Y-117138651D01*
X145308725Y-117192288D01*
X145308731Y-117192292D01*
X145512431Y-117296082D01*
X145729875Y-117366734D01*
X145955687Y-117402500D01*
X146184313Y-117402500D01*
X146410124Y-117366734D01*
X146410125Y-117366734D01*
X146627568Y-117296082D01*
X146831276Y-117192288D01*
X146905098Y-117138651D01*
X146306007Y-116539560D01*
X146370785Y-116512729D01*
X146474789Y-116443236D01*
X146563236Y-116354789D01*
X146632729Y-116250785D01*
X146659560Y-116186008D01*
X147258651Y-116785099D01*
X147275503Y-116783772D01*
X147294699Y-116768970D01*
X147364312Y-116762989D01*
X147426107Y-116795594D01*
X147440007Y-116811634D01*
X147440317Y-116812061D01*
X147501714Y-116896566D01*
X147663434Y-117058286D01*
X147848462Y-117192717D01*
X147985423Y-117262502D01*
X148052244Y-117296549D01*
X148209267Y-117347569D01*
X148266942Y-117387006D01*
X148294141Y-117451365D01*
X148282226Y-117520211D01*
X148234982Y-117571687D01*
X148170949Y-117589500D01*
X147705929Y-117589500D01*
X147580261Y-117614497D01*
X147580255Y-117614499D01*
X147507347Y-117644699D01*
X147507346Y-117644699D01*
X147461876Y-117663532D01*
X147355326Y-117734726D01*
X146624727Y-118465325D01*
X146624721Y-118465332D01*
X146565787Y-118553534D01*
X146565788Y-118553535D01*
X146553534Y-118571874D01*
X146504499Y-118690255D01*
X146504497Y-118690261D01*
X146479500Y-118815928D01*
X146479500Y-119894071D01*
X146491878Y-119956295D01*
X146500472Y-119999500D01*
X146504499Y-120019744D01*
X146525928Y-120071478D01*
X146547689Y-120124015D01*
X146553535Y-120138127D01*
X146624723Y-120244669D01*
X146624726Y-120244673D01*
X146624727Y-120244674D01*
X150353181Y-123973127D01*
X150386666Y-124034450D01*
X150389500Y-124060808D01*
X150389500Y-151249191D01*
X150369815Y-151316230D01*
X150353181Y-151336872D01*
X144744805Y-156945247D01*
X144729777Y-156953634D01*
X144718557Y-156965279D01*
X144685722Y-156978223D01*
X144629122Y-156991638D01*
X144610055Y-156996157D01*
X144581460Y-156999500D01*
X139570808Y-156999500D01*
X139503769Y-156979815D01*
X139483127Y-156963181D01*
X139356819Y-156836873D01*
X139323334Y-156775550D01*
X139320500Y-156749192D01*
X139320500Y-156017917D01*
X139340185Y-155950878D01*
X139392989Y-155905123D01*
X139462147Y-155895179D01*
X139517382Y-155917597D01*
X139601074Y-155978403D01*
X139753312Y-156055973D01*
X139915811Y-156108772D01*
X140002755Y-156122542D01*
X140084564Y-156135500D01*
X140084569Y-156135500D01*
X140255436Y-156135500D01*
X140330013Y-156123687D01*
X140424189Y-156108772D01*
X140586688Y-156055973D01*
X140738926Y-155978403D01*
X140847540Y-155899490D01*
X140913344Y-155876010D01*
X140981398Y-155891835D01*
X140993309Y-155899490D01*
X141101332Y-155977972D01*
X141253502Y-156055507D01*
X141415931Y-156108284D01*
X141420000Y-156108928D01*
X141420000Y-155057957D01*
X141502096Y-155105356D01*
X141612731Y-155135000D01*
X141727269Y-155135000D01*
X141837904Y-155105356D01*
X141920000Y-155057957D01*
X141920000Y-156108928D01*
X141924066Y-156108284D01*
X141924069Y-156108284D01*
X142086497Y-156055507D01*
X142243005Y-155975763D01*
X142243585Y-155976902D01*
X142305346Y-155960183D01*
X142367808Y-155978615D01*
X142515666Y-156069814D01*
X142682203Y-156124999D01*
X142784991Y-156135500D01*
X143555008Y-156135499D01*
X143555016Y-156135498D01*
X143555019Y-156135498D01*
X143611302Y-156129748D01*
X143657797Y-156124999D01*
X143824334Y-156069814D01*
X143973656Y-155977712D01*
X144097712Y-155853656D01*
X144189814Y-155704334D01*
X144244999Y-155537797D01*
X144255500Y-155435009D01*
X144255499Y-153964992D01*
X144244999Y-153862203D01*
X144189814Y-153695666D01*
X144188960Y-153694281D01*
X144188636Y-153693139D01*
X144186760Y-153689115D01*
X144187409Y-153688812D01*
X144170500Y-153629186D01*
X144170500Y-142711458D01*
X144170499Y-142711455D01*
X144141043Y-142563367D01*
X144132053Y-142518170D01*
X144132050Y-142518161D01*
X144085627Y-142406086D01*
X144056633Y-142336088D01*
X144056628Y-142336079D01*
X143947140Y-142172219D01*
X143877780Y-142102859D01*
X143807782Y-142032861D01*
X143807781Y-142032860D01*
X141484208Y-139709288D01*
X141484206Y-139709285D01*
X141484206Y-139709286D01*
X141477139Y-139702219D01*
X141477139Y-139702218D01*
X141337782Y-139562861D01*
X141337781Y-139562860D01*
X141337780Y-139562859D01*
X141173920Y-139453371D01*
X141173911Y-139453366D01*
X141101315Y-139423296D01*
X141045165Y-139400038D01*
X140991836Y-139377949D01*
X140991832Y-139377948D01*
X140991828Y-139377946D01*
X140895188Y-139358724D01*
X140798544Y-139339500D01*
X140798541Y-139339500D01*
X133038748Y-139339500D01*
X133012537Y-139331803D01*
X132985562Y-139327514D01*
X132976743Y-139321293D01*
X132971709Y-139319815D01*
X132956158Y-139307993D01*
X132953552Y-139305666D01*
X132850996Y-139203110D01*
X132785005Y-139155165D01*
X132780353Y-139151011D01*
X132765067Y-139126427D01*
X132747392Y-139103506D01*
X132746328Y-139096290D01*
X132743459Y-139091676D01*
X132743659Y-139078191D01*
X132739325Y-139048788D01*
X132741945Y-139015499D01*
X132135141Y-138408695D01*
X132192627Y-138384884D01*
X132300725Y-138312655D01*
X132392655Y-138220725D01*
X132464884Y-138112627D01*
X132488695Y-138055141D01*
X133095499Y-138661946D01*
X133095499Y-138661945D01*
X133154361Y-138580930D01*
X133260835Y-138371965D01*
X133333310Y-138148909D01*
X133370000Y-137917265D01*
X133370000Y-137682734D01*
X133333310Y-137451090D01*
X133260835Y-137228034D01*
X133154359Y-137019066D01*
X133095500Y-136938053D01*
X133095499Y-136938052D01*
X132488694Y-137544857D01*
X132464884Y-137487373D01*
X132392655Y-137379275D01*
X132300725Y-137287345D01*
X132192627Y-137215116D01*
X132135141Y-137191304D01*
X132741945Y-136584499D01*
X132739325Y-136551211D01*
X132753689Y-136482834D01*
X132790056Y-136441164D01*
X132850996Y-136396890D01*
X133016890Y-136230996D01*
X133016892Y-136230992D01*
X133016895Y-136230990D01*
X133030972Y-136211615D01*
X133086301Y-136168949D01*
X133131290Y-136160500D01*
X140418693Y-136160500D01*
X140418694Y-136160499D01*
X140592666Y-136125895D01*
X140674606Y-136091953D01*
X140756547Y-136058013D01*
X140844959Y-135998936D01*
X140904036Y-135959464D01*
X143206680Y-133656818D01*
X143268003Y-133623334D01*
X143294361Y-133620500D01*
X145868710Y-133620500D01*
X145935749Y-133640185D01*
X145969028Y-133671615D01*
X145983104Y-133690990D01*
X146149005Y-133856891D01*
X146149010Y-133856895D01*
X146194137Y-133889682D01*
X146236803Y-133945012D01*
X146242782Y-134014625D01*
X146210176Y-134076420D01*
X146194137Y-134090318D01*
X146149010Y-134123104D01*
X146149005Y-134123108D01*
X145983108Y-134289005D01*
X145983104Y-134289010D01*
X145845212Y-134478804D01*
X145738697Y-134687849D01*
X145666201Y-134910972D01*
X145666201Y-134910974D01*
X145629500Y-135142695D01*
X145629500Y-135377305D01*
X145638971Y-135437103D01*
X145666201Y-135609027D01*
X145738697Y-135832150D01*
X145791954Y-135936672D01*
X145842717Y-136036300D01*
X145845212Y-136041195D01*
X145983104Y-136230989D01*
X145983108Y-136230994D01*
X146149005Y-136396891D01*
X146149010Y-136396895D01*
X146194137Y-136429682D01*
X146236803Y-136485012D01*
X146242782Y-136554625D01*
X146210176Y-136616420D01*
X146194137Y-136630318D01*
X146149010Y-136663104D01*
X146149005Y-136663108D01*
X145983108Y-136829005D01*
X145983104Y-136829010D01*
X145845212Y-137018804D01*
X145738697Y-137227849D01*
X145666201Y-137450972D01*
X145629500Y-137682695D01*
X145629500Y-137917304D01*
X145666201Y-138149027D01*
X145738697Y-138372150D01*
X145770536Y-138434636D01*
X145845078Y-138580933D01*
X145845212Y-138581195D01*
X145983104Y-138770989D01*
X145983108Y-138770994D01*
X146149005Y-138936891D01*
X146149010Y-138936895D01*
X146194137Y-138969682D01*
X146236803Y-139025012D01*
X146242782Y-139094625D01*
X146210176Y-139156420D01*
X146194137Y-139170318D01*
X146149010Y-139203104D01*
X146149005Y-139203108D01*
X145983108Y-139369005D01*
X145983104Y-139369010D01*
X145845212Y-139558804D01*
X145738697Y-139767849D01*
X145666201Y-139990972D01*
X145629500Y-140222695D01*
X145629500Y-140457304D01*
X145666201Y-140689027D01*
X145738697Y-140912150D01*
X145845212Y-141121195D01*
X145983104Y-141310989D01*
X145983108Y-141310994D01*
X146149005Y-141476891D01*
X146149010Y-141476895D01*
X146194137Y-141509682D01*
X146236803Y-141565012D01*
X146242782Y-141634625D01*
X146210176Y-141696420D01*
X146194137Y-141710318D01*
X146149010Y-141743104D01*
X146149005Y-141743108D01*
X145983108Y-141909005D01*
X145983104Y-141909010D01*
X145845212Y-142098804D01*
X145738697Y-142307849D01*
X145666201Y-142530972D01*
X145629500Y-142762695D01*
X145629500Y-142997304D01*
X145666201Y-143229027D01*
X145738697Y-143452150D01*
X145845212Y-143661195D01*
X145983104Y-143850989D01*
X145983108Y-143850994D01*
X146149005Y-144016891D01*
X146149010Y-144016895D01*
X146194137Y-144049682D01*
X146236803Y-144105012D01*
X146242782Y-144174625D01*
X146210176Y-144236420D01*
X146194137Y-144250318D01*
X146149010Y-144283104D01*
X146149005Y-144283108D01*
X145983108Y-144449005D01*
X145983104Y-144449010D01*
X145845212Y-144638804D01*
X145738697Y-144847849D01*
X145666201Y-145070972D01*
X145666201Y-145070974D01*
X145629500Y-145302695D01*
X145629500Y-145537305D01*
X145638812Y-145596099D01*
X145666201Y-145769027D01*
X145738697Y-145992150D01*
X145738699Y-145992153D01*
X145843143Y-146197136D01*
X145845212Y-146201195D01*
X145983104Y-146390989D01*
X145983108Y-146390994D01*
X146149005Y-146556891D01*
X146149010Y-146556895D01*
X146194137Y-146589682D01*
X146236803Y-146645012D01*
X146242782Y-146714625D01*
X146210176Y-146776420D01*
X146194137Y-146790318D01*
X146149010Y-146823104D01*
X146149005Y-146823108D01*
X145983108Y-146989005D01*
X145983104Y-146989010D01*
X145845212Y-147178804D01*
X145738697Y-147387849D01*
X145666201Y-147610972D01*
X145629500Y-147842695D01*
X145629500Y-148077304D01*
X145666201Y-148309027D01*
X145738697Y-148532150D01*
X145738699Y-148532153D01*
X145843143Y-148737136D01*
X145845212Y-148741195D01*
X145983104Y-148930989D01*
X145983108Y-148930994D01*
X145983109Y-148930995D01*
X145983110Y-148930996D01*
X146149004Y-149096890D01*
X146209940Y-149141162D01*
X146252606Y-149196492D01*
X146260673Y-149251210D01*
X146258053Y-149284499D01*
X146864858Y-149891304D01*
X146807373Y-149915116D01*
X146699275Y-149987345D01*
X146607345Y-150079275D01*
X146535116Y-150187373D01*
X146511304Y-150244858D01*
X145904499Y-149638053D01*
X145904498Y-149638053D01*
X145845639Y-149719068D01*
X145739164Y-149928034D01*
X145666689Y-150151090D01*
X145630000Y-150382734D01*
X145630000Y-150617265D01*
X145666689Y-150848909D01*
X145739164Y-151071965D01*
X145845640Y-151280933D01*
X145904498Y-151361945D01*
X145904499Y-151361945D01*
X146511304Y-150755140D01*
X146535116Y-150812627D01*
X146607345Y-150920725D01*
X146699275Y-151012655D01*
X146807373Y-151084884D01*
X146864858Y-151108695D01*
X146258052Y-151715499D01*
X146258053Y-151715500D01*
X146339066Y-151774359D01*
X146548034Y-151880835D01*
X146771090Y-151953310D01*
X147002735Y-151990000D01*
X147237265Y-151990000D01*
X147468909Y-151953310D01*
X147691965Y-151880835D01*
X147900930Y-151774361D01*
X147981945Y-151715499D01*
X147981946Y-151715499D01*
X147375141Y-151108695D01*
X147432627Y-151084884D01*
X147540725Y-151012655D01*
X147632655Y-150920725D01*
X147704884Y-150812627D01*
X147728695Y-150755141D01*
X148335499Y-151361946D01*
X148335499Y-151361945D01*
X148394361Y-151280930D01*
X148500835Y-151071965D01*
X148573310Y-150848909D01*
X148610000Y-150617265D01*
X148610000Y-150382734D01*
X148573310Y-150151090D01*
X148500835Y-149928034D01*
X148394359Y-149719066D01*
X148335500Y-149638053D01*
X148335499Y-149638052D01*
X147728694Y-150244857D01*
X147704884Y-150187373D01*
X147632655Y-150079275D01*
X147540725Y-149987345D01*
X147432627Y-149915116D01*
X147375141Y-149891304D01*
X147981945Y-149284499D01*
X147979325Y-149251211D01*
X147993689Y-149182834D01*
X148030056Y-149141164D01*
X148090996Y-149096890D01*
X148256890Y-148930996D01*
X148394790Y-148741192D01*
X148501301Y-148532153D01*
X148573799Y-148309026D01*
X148610500Y-148077305D01*
X148610500Y-147842695D01*
X148573799Y-147610974D01*
X148537550Y-147499410D01*
X148501302Y-147387849D01*
X148473222Y-147332739D01*
X148394790Y-147178808D01*
X148333106Y-147093907D01*
X148256895Y-146989010D01*
X148256891Y-146989005D01*
X148090992Y-146823106D01*
X148045863Y-146790319D01*
X148003196Y-146734989D01*
X147997216Y-146665376D01*
X148029822Y-146603581D01*
X148045863Y-146589681D01*
X148090992Y-146556893D01*
X148090992Y-146556892D01*
X148090996Y-146556890D01*
X148256890Y-146390996D01*
X148394790Y-146201192D01*
X148501301Y-145992153D01*
X148573799Y-145769026D01*
X148610500Y-145537305D01*
X148610500Y-145302695D01*
X148573799Y-145070974D01*
X148501380Y-144848089D01*
X148501302Y-144847849D01*
X148501301Y-144847847D01*
X148394790Y-144638808D01*
X148286312Y-144489500D01*
X148256895Y-144449010D01*
X148256891Y-144449005D01*
X148090992Y-144283106D01*
X148045863Y-144250319D01*
X148003196Y-144194989D01*
X147997216Y-144125376D01*
X148029822Y-144063581D01*
X148045863Y-144049681D01*
X148090992Y-144016893D01*
X148090992Y-144016892D01*
X148090996Y-144016890D01*
X148256890Y-143850996D01*
X148394790Y-143661192D01*
X148501301Y-143452153D01*
X148573799Y-143229026D01*
X148610500Y-142997305D01*
X148610500Y-142762695D01*
X148573799Y-142530974D01*
X148510477Y-142336088D01*
X148501302Y-142307849D01*
X148471464Y-142249289D01*
X148394790Y-142098808D01*
X148270069Y-141927143D01*
X148256895Y-141909010D01*
X148256891Y-141909005D01*
X148090992Y-141743106D01*
X148045863Y-141710319D01*
X148003196Y-141654989D01*
X147997216Y-141585376D01*
X148029822Y-141523581D01*
X148045863Y-141509681D01*
X148090992Y-141476893D01*
X148090992Y-141476892D01*
X148090996Y-141476890D01*
X148256890Y-141310996D01*
X148394790Y-141121192D01*
X148501301Y-140912153D01*
X148573799Y-140689026D01*
X148610500Y-140457305D01*
X148610500Y-140222695D01*
X148573799Y-139990974D01*
X148501301Y-139767847D01*
X148394790Y-139558808D01*
X148318184Y-139453368D01*
X148256895Y-139369010D01*
X148256891Y-139369005D01*
X148090992Y-139203106D01*
X148045863Y-139170319D01*
X148003196Y-139114989D01*
X147997216Y-139045376D01*
X148029822Y-138983581D01*
X148045863Y-138969681D01*
X148090992Y-138936893D01*
X148090992Y-138936892D01*
X148090996Y-138936890D01*
X148256890Y-138770996D01*
X148394790Y-138581192D01*
X148501301Y-138372153D01*
X148573799Y-138149026D01*
X148610500Y-137917305D01*
X148610500Y-137682695D01*
X148573799Y-137450974D01*
X148501301Y-137227847D01*
X148394790Y-137018808D01*
X148377171Y-136994558D01*
X148256895Y-136829010D01*
X148256891Y-136829005D01*
X148090992Y-136663106D01*
X148045863Y-136630319D01*
X148003196Y-136574989D01*
X147997216Y-136505376D01*
X148029822Y-136443581D01*
X148045863Y-136429681D01*
X148090992Y-136396893D01*
X148090992Y-136396892D01*
X148090996Y-136396890D01*
X148256890Y-136230996D01*
X148394790Y-136041192D01*
X148501301Y-135832153D01*
X148573799Y-135609026D01*
X148610500Y-135377305D01*
X148610500Y-135142695D01*
X148573799Y-134910974D01*
X148501301Y-134687847D01*
X148394790Y-134478808D01*
X148366769Y-134440240D01*
X148256895Y-134289010D01*
X148256891Y-134289005D01*
X148090992Y-134123106D01*
X148045863Y-134090319D01*
X148003196Y-134034989D01*
X147997216Y-133965376D01*
X148029822Y-133903581D01*
X148045863Y-133889681D01*
X148090992Y-133856893D01*
X148090992Y-133856892D01*
X148090996Y-133856890D01*
X148256890Y-133690996D01*
X148394790Y-133501192D01*
X148501301Y-133292153D01*
X148573799Y-133069026D01*
X148610500Y-132837305D01*
X148610500Y-132602695D01*
X148573799Y-132370974D01*
X148523434Y-132215965D01*
X148501302Y-132147849D01*
X148479454Y-132104970D01*
X148394790Y-131938808D01*
X148301970Y-131811051D01*
X148256895Y-131749010D01*
X148256891Y-131749005D01*
X148090994Y-131583108D01*
X148090989Y-131583104D01*
X147901195Y-131445212D01*
X147901194Y-131445211D01*
X147901192Y-131445210D01*
X147796672Y-131391954D01*
X147692150Y-131338697D01*
X147469027Y-131266201D01*
X147353165Y-131247850D01*
X147237305Y-131229500D01*
X147002695Y-131229500D01*
X146925454Y-131241733D01*
X146770972Y-131266201D01*
X146547849Y-131338697D01*
X146338804Y-131445212D01*
X146149010Y-131583104D01*
X146149005Y-131583108D01*
X145983104Y-131749009D01*
X145969028Y-131768385D01*
X145913699Y-131811051D01*
X145868710Y-131819500D01*
X142781306Y-131819500D01*
X142607341Y-131854103D01*
X142607332Y-131854106D01*
X142443457Y-131921984D01*
X142443456Y-131921985D01*
X142296374Y-132020262D01*
X142296374Y-132020263D01*
X142296169Y-132020399D01*
X142295966Y-132020535D01*
X142295958Y-132020542D01*
X139993319Y-134323181D01*
X139931996Y-134356666D01*
X139905638Y-134359500D01*
X133131290Y-134359500D01*
X133064251Y-134339815D01*
X133030972Y-134308385D01*
X133016895Y-134289009D01*
X132850992Y-134123106D01*
X132805863Y-134090319D01*
X132763196Y-134034989D01*
X132757216Y-133965376D01*
X132789822Y-133903581D01*
X132805863Y-133889681D01*
X132850992Y-133856893D01*
X132850992Y-133856892D01*
X132850996Y-133856890D01*
X133016890Y-133690996D01*
X133016892Y-133690992D01*
X133016895Y-133690990D01*
X133030972Y-133671615D01*
X133086301Y-133628949D01*
X133131290Y-133620500D01*
X139798693Y-133620500D01*
X139798694Y-133620499D01*
X139972666Y-133585895D01*
X140054606Y-133551953D01*
X140136547Y-133518013D01*
X140254178Y-133439414D01*
X140284036Y-133419464D01*
X145745037Y-127958461D01*
X145806358Y-127924978D01*
X145876050Y-127929962D01*
X145931983Y-127971834D01*
X145955655Y-128029959D01*
X145961161Y-128071785D01*
X146023947Y-128306104D01*
X146116773Y-128530205D01*
X146116776Y-128530212D01*
X146238064Y-128740289D01*
X146238066Y-128740292D01*
X146238067Y-128740293D01*
X146385733Y-128932736D01*
X146385739Y-128932743D01*
X146557256Y-129104260D01*
X146557262Y-129104265D01*
X146749711Y-129251936D01*
X146959788Y-129373224D01*
X147183900Y-129466054D01*
X147418211Y-129528838D01*
X147598586Y-129552584D01*
X147658711Y-129560500D01*
X147658712Y-129560500D01*
X147901289Y-129560500D01*
X147949388Y-129554167D01*
X148141789Y-129528838D01*
X148376100Y-129466054D01*
X148600212Y-129373224D01*
X148810289Y-129251936D01*
X149002738Y-129104265D01*
X149174265Y-128932738D01*
X149321936Y-128740289D01*
X149443224Y-128530212D01*
X149536054Y-128306100D01*
X149598838Y-128071789D01*
X149630500Y-127831288D01*
X149630500Y-127588712D01*
X149628898Y-127576547D01*
X149618111Y-127494606D01*
X149598838Y-127348211D01*
X149536054Y-127113900D01*
X149443224Y-126889788D01*
X149321936Y-126679711D01*
X149174265Y-126487262D01*
X149174260Y-126487256D01*
X149002743Y-126315739D01*
X149002736Y-126315733D01*
X148810293Y-126168067D01*
X148810292Y-126168066D01*
X148810289Y-126168064D01*
X148600212Y-126046776D01*
X148600205Y-126046773D01*
X148376104Y-125953947D01*
X148141785Y-125891161D01*
X147901289Y-125859500D01*
X147901288Y-125859500D01*
X147658712Y-125859500D01*
X147658711Y-125859500D01*
X147418214Y-125891161D01*
X147183895Y-125953947D01*
X146959794Y-126046773D01*
X146959785Y-126046777D01*
X146749706Y-126168067D01*
X146557263Y-126315733D01*
X146557256Y-126315739D01*
X146385739Y-126487256D01*
X146385733Y-126487263D01*
X146238067Y-126679705D01*
X146237608Y-126680394D01*
X146237417Y-126680553D01*
X146235593Y-126682931D01*
X146235061Y-126682522D01*
X146183999Y-126725204D01*
X146114675Y-126733917D01*
X146051645Y-126703767D01*
X146014921Y-126644327D01*
X146010500Y-126611512D01*
X146010500Y-125844361D01*
X146030185Y-125777322D01*
X146046819Y-125756680D01*
X146576680Y-125226819D01*
X146638003Y-125193334D01*
X146664361Y-125190500D01*
X148698693Y-125190500D01*
X148698694Y-125190499D01*
X148872666Y-125155895D01*
X148954606Y-125121953D01*
X149036547Y-125088013D01*
X149042546Y-125084003D01*
X149052928Y-125079525D01*
X149053384Y-125079469D01*
X149054599Y-125078819D01*
X149056547Y-125078013D01*
X149204035Y-124979464D01*
X149329464Y-124854035D01*
X149428013Y-124706547D01*
X149495894Y-124542666D01*
X149530500Y-124368691D01*
X149530500Y-124191309D01*
X149530500Y-124181308D01*
X149530500Y-124181305D01*
X149495895Y-124007339D01*
X149495894Y-124007338D01*
X149495894Y-124007334D01*
X149428012Y-123843454D01*
X149428010Y-123843451D01*
X149428008Y-123843447D01*
X149329463Y-123695965D01*
X149329460Y-123695961D01*
X149204038Y-123570539D01*
X149204034Y-123570536D01*
X149056552Y-123471991D01*
X149056542Y-123471986D01*
X148892666Y-123404106D01*
X148892660Y-123404104D01*
X148718694Y-123369500D01*
X148718692Y-123369500D01*
X148541308Y-123369500D01*
X148541306Y-123369500D01*
X148481142Y-123381467D01*
X148452741Y-123387117D01*
X148428551Y-123389500D01*
X146151306Y-123389500D01*
X146077880Y-123404106D01*
X146077879Y-123404106D01*
X145977341Y-123424103D01*
X145977332Y-123424106D01*
X145813459Y-123491983D01*
X145813446Y-123491990D01*
X145665966Y-123590534D01*
X145665964Y-123590537D01*
X144410538Y-124845960D01*
X144410537Y-124845961D01*
X144375762Y-124898007D01*
X144373235Y-124901789D01*
X144311987Y-124993453D01*
X144288674Y-125049737D01*
X144285755Y-125056783D01*
X144285751Y-125056791D01*
X144244105Y-125157333D01*
X144244103Y-125157341D01*
X144209500Y-125331303D01*
X144209500Y-126895638D01*
X144189815Y-126962677D01*
X144173181Y-126983319D01*
X139373319Y-131783181D01*
X139311996Y-131816666D01*
X139285638Y-131819500D01*
X133131290Y-131819500D01*
X133064251Y-131799815D01*
X133030972Y-131768385D01*
X133016895Y-131749009D01*
X132850994Y-131583108D01*
X132850989Y-131583104D01*
X132661195Y-131445212D01*
X132661194Y-131445211D01*
X132661192Y-131445210D01*
X132556672Y-131391954D01*
X132452150Y-131338697D01*
X132229027Y-131266201D01*
X132113165Y-131247850D01*
X131997305Y-131229500D01*
X131762695Y-131229500D01*
X131685454Y-131241733D01*
X131530972Y-131266201D01*
X131307849Y-131338697D01*
X131098804Y-131445212D01*
X130909010Y-131583104D01*
X130909005Y-131583108D01*
X130743108Y-131749005D01*
X130743104Y-131749010D01*
X130605209Y-131938808D01*
X130605208Y-131938809D01*
X130554984Y-132037379D01*
X130507010Y-132088175D01*
X130439189Y-132104970D01*
X130373054Y-132082432D01*
X130329603Y-132027717D01*
X130320500Y-131981084D01*
X130320500Y-129266117D01*
X130340185Y-129199078D01*
X130392989Y-129153323D01*
X130462147Y-129143379D01*
X130519984Y-129167739D01*
X130629711Y-129251936D01*
X130839788Y-129373224D01*
X131063900Y-129466054D01*
X131298211Y-129528838D01*
X131478586Y-129552584D01*
X131538711Y-129560500D01*
X131538712Y-129560500D01*
X131781289Y-129560500D01*
X131829388Y-129554167D01*
X132021789Y-129528838D01*
X132256100Y-129466054D01*
X132480212Y-129373224D01*
X132690289Y-129251936D01*
X132882738Y-129104265D01*
X133054265Y-128932738D01*
X133201936Y-128740289D01*
X133323224Y-128530212D01*
X133416054Y-128306100D01*
X133478838Y-128071789D01*
X133510500Y-127831288D01*
X133510500Y-127588712D01*
X133508898Y-127576547D01*
X133498111Y-127494606D01*
X133478838Y-127348211D01*
X133416054Y-127113900D01*
X133323224Y-126889788D01*
X133201936Y-126679711D01*
X133054265Y-126487262D01*
X133054260Y-126487256D01*
X132882743Y-126315739D01*
X132882736Y-126315733D01*
X132690293Y-126168067D01*
X132690292Y-126168066D01*
X132690289Y-126168064D01*
X132480212Y-126046776D01*
X132480205Y-126046773D01*
X132256104Y-125953947D01*
X132021785Y-125891161D01*
X131781289Y-125859500D01*
X131781288Y-125859500D01*
X131538712Y-125859500D01*
X131538711Y-125859500D01*
X131298214Y-125891161D01*
X131063895Y-125953947D01*
X130839794Y-126046773D01*
X130839785Y-126046777D01*
X130629706Y-126168067D01*
X130437263Y-126315733D01*
X130437256Y-126315739D01*
X130265739Y-126487256D01*
X130265733Y-126487263D01*
X130118067Y-126679706D01*
X129996777Y-126889785D01*
X129996773Y-126889794D01*
X129903947Y-127113895D01*
X129841161Y-127348214D01*
X129809500Y-127588711D01*
X129809500Y-127756638D01*
X129789815Y-127823677D01*
X129737011Y-127869432D01*
X129667853Y-127879376D01*
X129604297Y-127850351D01*
X129597819Y-127844319D01*
X128566819Y-126813319D01*
X128533334Y-126751996D01*
X128530500Y-126725638D01*
X128530500Y-122001308D01*
X128524525Y-121971268D01*
X128524525Y-121971267D01*
X128495896Y-121827341D01*
X128495895Y-121827334D01*
X128430339Y-121669071D01*
X128428695Y-121664474D01*
X128418728Y-121649558D01*
X128374240Y-121582977D01*
X128329465Y-121515966D01*
X128325335Y-121511836D01*
X128204035Y-121390536D01*
X126893782Y-120080283D01*
X125575819Y-118762319D01*
X125542334Y-118700996D01*
X125539500Y-118674638D01*
X125539500Y-117848046D01*
X125547779Y-117819850D01*
X125553400Y-117791002D01*
X125557510Y-117786708D01*
X125559185Y-117781007D01*
X125581388Y-117761767D01*
X125601718Y-117740533D01*
X125609083Y-117737769D01*
X125611989Y-117735252D01*
X125634511Y-117727482D01*
X125636889Y-117726910D01*
X125773497Y-117699737D01*
X125806150Y-117686211D01*
X125815615Y-117683936D01*
X125824987Y-117684401D01*
X125844604Y-117680500D01*
X128103920Y-117680500D01*
X128210374Y-117659324D01*
X128248913Y-117651658D01*
X128385495Y-117595084D01*
X128452455Y-117550343D01*
X128452458Y-117550340D01*
X128452460Y-117550340D01*
X128502341Y-117517011D01*
X128508416Y-117512952D01*
X129162951Y-116858416D01*
X129245084Y-116735495D01*
X129301071Y-116600328D01*
X129344909Y-116545929D01*
X129411203Y-116523864D01*
X129478902Y-116541143D01*
X129526115Y-116591490D01*
X129530621Y-116600333D01*
X129587283Y-116711538D01*
X129721714Y-116896566D01*
X129883434Y-117058286D01*
X130068462Y-117192717D01*
X130205423Y-117262502D01*
X130272244Y-117296549D01*
X130489751Y-117367221D01*
X130489752Y-117367221D01*
X130489755Y-117367222D01*
X130715646Y-117403000D01*
X130715647Y-117403000D01*
X130944353Y-117403000D01*
X130944354Y-117403000D01*
X131170245Y-117367222D01*
X131170248Y-117367221D01*
X131170249Y-117367221D01*
X131387755Y-117296549D01*
X131387755Y-117296548D01*
X131387758Y-117296548D01*
X131591538Y-117192717D01*
X131776566Y-117058286D01*
X131938286Y-116896566D01*
X131999683Y-116812059D01*
X132055012Y-116769396D01*
X132124625Y-116763417D01*
X132186420Y-116796023D01*
X132200314Y-116812056D01*
X132261714Y-116896566D01*
X132423434Y-117058286D01*
X132608462Y-117192717D01*
X132745423Y-117262502D01*
X132812244Y-117296549D01*
X133029751Y-117367221D01*
X133029752Y-117367221D01*
X133029755Y-117367222D01*
X133255646Y-117403000D01*
X133255647Y-117403000D01*
X133484353Y-117403000D01*
X133484354Y-117403000D01*
X133710245Y-117367222D01*
X133710248Y-117367221D01*
X133710249Y-117367221D01*
X133927755Y-117296549D01*
X133927755Y-117296548D01*
X133927758Y-117296548D01*
X134131538Y-117192717D01*
X134316566Y-117058286D01*
X134478286Y-116896566D01*
X134539683Y-116812059D01*
X134595012Y-116769396D01*
X134664625Y-116763417D01*
X134726420Y-116796023D01*
X134740314Y-116812056D01*
X134801714Y-116896566D01*
X134963434Y-117058286D01*
X135148462Y-117192717D01*
X135285423Y-117262502D01*
X135352244Y-117296549D01*
X135569751Y-117367221D01*
X135569752Y-117367221D01*
X135569755Y-117367222D01*
X135795646Y-117403000D01*
X135795647Y-117403000D01*
X136024353Y-117403000D01*
X136024354Y-117403000D01*
X136250245Y-117367222D01*
X136250248Y-117367221D01*
X136250249Y-117367221D01*
X136467755Y-117296549D01*
X136467755Y-117296548D01*
X136467758Y-117296548D01*
X136671538Y-117192717D01*
X136856566Y-117058286D01*
X137018286Y-116896566D01*
X137079683Y-116812059D01*
X137135012Y-116769396D01*
X137204625Y-116763417D01*
X137266420Y-116796023D01*
X137280314Y-116812056D01*
X137341714Y-116896566D01*
X137503434Y-117058286D01*
X137688462Y-117192717D01*
X137825423Y-117262502D01*
X137892244Y-117296549D01*
X138109751Y-117367221D01*
X138109752Y-117367221D01*
X138109755Y-117367222D01*
X138335646Y-117403000D01*
X138335647Y-117403000D01*
X138564353Y-117403000D01*
X138564354Y-117403000D01*
X138790245Y-117367222D01*
X138790248Y-117367221D01*
X138790249Y-117367221D01*
X139007755Y-117296549D01*
X139007755Y-117296548D01*
X139007758Y-117296548D01*
X139211538Y-117192717D01*
X139396566Y-117058286D01*
X139558286Y-116896566D01*
X139619683Y-116812059D01*
X139675012Y-116769396D01*
X139744625Y-116763417D01*
X139806420Y-116796023D01*
X139820314Y-116812056D01*
X139881714Y-116896566D01*
X140043434Y-117058286D01*
X140228462Y-117192717D01*
X140365423Y-117262502D01*
X140432244Y-117296549D01*
X140649751Y-117367221D01*
X140649752Y-117367221D01*
X140649755Y-117367222D01*
X140875646Y-117403000D01*
X140875647Y-117403000D01*
X141104353Y-117403000D01*
X141104354Y-117403000D01*
X141330245Y-117367222D01*
X141330248Y-117367221D01*
X141330249Y-117367221D01*
X141547755Y-117296549D01*
X141547755Y-117296548D01*
X141547758Y-117296548D01*
X141751538Y-117192717D01*
X141936566Y-117058286D01*
X142098286Y-116896566D01*
X142159683Y-116812059D01*
X142215012Y-116769396D01*
X142284625Y-116763417D01*
X142346420Y-116796023D01*
X142360314Y-116812056D01*
X142421714Y-116896566D01*
X142583434Y-117058286D01*
X142768462Y-117192717D01*
X142905423Y-117262502D01*
X142972244Y-117296549D01*
X143189751Y-117367221D01*
X143189752Y-117367221D01*
X143189755Y-117367222D01*
X143415646Y-117403000D01*
X143415647Y-117403000D01*
X143644353Y-117403000D01*
X143644354Y-117403000D01*
X143870245Y-117367222D01*
X143870248Y-117367221D01*
X143870249Y-117367221D01*
X144087755Y-117296549D01*
X144087755Y-117296548D01*
X144087758Y-117296548D01*
X144291538Y-117192717D01*
X144476566Y-117058286D01*
X144638286Y-116896566D01*
X144699991Y-116811635D01*
X144755321Y-116768970D01*
X144824934Y-116762991D01*
X144864290Y-116783756D01*
X144881347Y-116785099D01*
X145480439Y-116186007D01*
X145507271Y-116250785D01*
G37*
%TD.AperFunction*%
%TA.AperFunction,Conductor*%
G36*
X140301257Y-141360185D02*
G01*
X140321899Y-141376819D01*
X142133181Y-143188101D01*
X142166666Y-143249424D01*
X142169500Y-143275782D01*
X142169500Y-145374519D01*
X142149815Y-145441558D01*
X142097011Y-145487313D01*
X142027853Y-145497257D01*
X141964297Y-145468232D01*
X141944510Y-145445805D01*
X141944383Y-145445904D01*
X141942950Y-145444036D01*
X141942399Y-145443412D01*
X141941914Y-145442687D01*
X141941912Y-145442683D01*
X141770300Y-145219035D01*
X141770298Y-145219033D01*
X141770295Y-145219029D01*
X141570970Y-145019704D01*
X141570965Y-145019700D01*
X141347317Y-144848088D01*
X141347311Y-144848084D01*
X141347309Y-144848083D01*
X141103190Y-144707140D01*
X141103179Y-144707135D01*
X140842743Y-144599259D01*
X140570439Y-144526295D01*
X140290958Y-144489500D01*
X140290951Y-144489500D01*
X140009049Y-144489500D01*
X140009041Y-144489500D01*
X139729560Y-144526295D01*
X139457256Y-144599259D01*
X139196820Y-144707135D01*
X139196809Y-144707140D01*
X138952690Y-144848083D01*
X138952682Y-144848089D01*
X138729029Y-145019704D01*
X138529704Y-145219029D01*
X138465505Y-145302695D01*
X138363661Y-145435421D01*
X138358089Y-145442682D01*
X138358083Y-145442690D01*
X138217140Y-145686809D01*
X138217135Y-145686820D01*
X138109259Y-145947256D01*
X138036295Y-146219560D01*
X137999500Y-146499041D01*
X137999500Y-146780958D01*
X138036295Y-147060439D01*
X138109259Y-147332743D01*
X138217135Y-147593179D01*
X138217140Y-147593190D01*
X138357578Y-147836434D01*
X138358088Y-147837317D01*
X138471671Y-147985340D01*
X138529704Y-148060970D01*
X138729029Y-148260295D01*
X138729033Y-148260298D01*
X138729035Y-148260300D01*
X138952683Y-148431912D01*
X138952690Y-148431916D01*
X139196809Y-148572859D01*
X139196814Y-148572861D01*
X139196817Y-148572863D01*
X139457261Y-148680742D01*
X139729558Y-148753704D01*
X140009049Y-148790500D01*
X140009056Y-148790500D01*
X140290944Y-148790500D01*
X140290951Y-148790500D01*
X140570442Y-148753704D01*
X140842739Y-148680742D01*
X141103183Y-148572863D01*
X141347317Y-148431912D01*
X141570965Y-148260300D01*
X141770300Y-148060965D01*
X141941912Y-147837317D01*
X141941918Y-147837307D01*
X141942392Y-147836599D01*
X141942588Y-147836434D01*
X141944383Y-147834096D01*
X141944906Y-147834497D01*
X141996000Y-147791789D01*
X142065324Y-147783075D01*
X142128354Y-147813224D01*
X142165079Y-147872664D01*
X142169500Y-147905480D01*
X142169500Y-153200789D01*
X142149815Y-153267828D01*
X142097011Y-153313583D01*
X142027853Y-153323527D01*
X142007182Y-153318720D01*
X141924069Y-153291715D01*
X141920000Y-153291070D01*
X141920000Y-154342042D01*
X141837904Y-154294644D01*
X141727269Y-154265000D01*
X141612731Y-154265000D01*
X141502096Y-154294644D01*
X141420000Y-154342042D01*
X141420000Y-153291071D01*
X141419999Y-153291070D01*
X141415930Y-153291715D01*
X141253502Y-153344492D01*
X141101332Y-153422027D01*
X140993310Y-153500509D01*
X140927503Y-153523989D01*
X140859450Y-153508163D01*
X140847540Y-153500509D01*
X140738929Y-153421599D01*
X140738928Y-153421598D01*
X140738926Y-153421597D01*
X140586688Y-153344027D01*
X140424189Y-153291228D01*
X140423191Y-153291070D01*
X140255436Y-153264500D01*
X140255431Y-153264500D01*
X140084569Y-153264500D01*
X140084564Y-153264500D01*
X139915810Y-153291228D01*
X139753314Y-153344026D01*
X139601070Y-153421599D01*
X139492885Y-153500200D01*
X139427079Y-153523680D01*
X139359025Y-153507854D01*
X139347115Y-153500200D01*
X139238929Y-153421599D01*
X139238928Y-153421598D01*
X139238926Y-153421597D01*
X139086688Y-153344027D01*
X138924189Y-153291228D01*
X138923191Y-153291070D01*
X138755436Y-153264500D01*
X138755431Y-153264500D01*
X138584569Y-153264500D01*
X138584564Y-153264500D01*
X138415810Y-153291228D01*
X138253314Y-153344026D01*
X138101070Y-153421599D01*
X137992885Y-153500200D01*
X137927079Y-153523680D01*
X137859025Y-153507854D01*
X137847115Y-153500200D01*
X137738929Y-153421599D01*
X137738928Y-153421598D01*
X137738926Y-153421597D01*
X137586688Y-153344027D01*
X137424189Y-153291228D01*
X137423191Y-153291070D01*
X137255436Y-153264500D01*
X137255431Y-153264500D01*
X137084569Y-153264500D01*
X137084564Y-153264500D01*
X136915810Y-153291228D01*
X136832818Y-153318194D01*
X136762977Y-153320189D01*
X136703144Y-153284109D01*
X136672316Y-153221408D01*
X136670500Y-153200263D01*
X136670500Y-143794388D01*
X136679942Y-143746929D01*
X136682050Y-143741839D01*
X136682052Y-143741835D01*
X136720500Y-143548540D01*
X136720500Y-143351459D01*
X136682052Y-143158164D01*
X136606632Y-142976085D01*
X136606631Y-142976084D01*
X136606628Y-142976078D01*
X136497140Y-142812218D01*
X136497137Y-142812214D01*
X136354686Y-142669763D01*
X136354655Y-142669734D01*
X135934209Y-142249289D01*
X135934206Y-142249285D01*
X135934206Y-142249286D01*
X135927139Y-142242219D01*
X135927139Y-142242218D01*
X135787782Y-142102861D01*
X135787781Y-142102860D01*
X135787780Y-142102859D01*
X135623920Y-141993371D01*
X135623907Y-141993364D01*
X135464033Y-141927143D01*
X135464029Y-141927142D01*
X135454918Y-141923368D01*
X135441836Y-141917949D01*
X135345188Y-141898724D01*
X135342879Y-141898264D01*
X135342876Y-141898264D01*
X135248544Y-141879500D01*
X135248541Y-141879500D01*
X133038748Y-141879500D01*
X133012020Y-141871651D01*
X132984548Y-141867027D01*
X132976325Y-141861170D01*
X132971709Y-141859815D01*
X132955323Y-141847240D01*
X132953149Y-141845263D01*
X132850996Y-141743110D01*
X132800358Y-141706320D01*
X132795322Y-141701740D01*
X132780543Y-141677484D01*
X132763196Y-141654989D01*
X132762598Y-141648033D01*
X132758967Y-141642073D01*
X132759647Y-141613680D01*
X132757216Y-141585376D01*
X132760473Y-141579201D01*
X132760641Y-141572224D01*
X132776566Y-141548703D01*
X132789822Y-141523581D01*
X132798905Y-141515709D01*
X132799814Y-141514368D01*
X132801078Y-141513826D01*
X132805863Y-141509681D01*
X132850992Y-141476893D01*
X132850992Y-141476892D01*
X132850996Y-141476890D01*
X132951067Y-141376819D01*
X133012390Y-141343334D01*
X133038748Y-141340500D01*
X140234218Y-141340500D01*
X140301257Y-141360185D01*
G37*
%TD.AperFunction*%
%TA.AperFunction,Conductor*%
G36*
X130436242Y-135739831D02*
G01*
X130483853Y-135790967D01*
X130490901Y-135808155D01*
X130498697Y-135832150D01*
X130551954Y-135936672D01*
X130602717Y-136036300D01*
X130605212Y-136041195D01*
X130743104Y-136230989D01*
X130743108Y-136230994D01*
X130743110Y-136230996D01*
X130909004Y-136396890D01*
X130969940Y-136441162D01*
X131012606Y-136496492D01*
X131020673Y-136551210D01*
X131018053Y-136584499D01*
X131624858Y-137191304D01*
X131567373Y-137215116D01*
X131459275Y-137287345D01*
X131367345Y-137379275D01*
X131295116Y-137487373D01*
X131271304Y-137544858D01*
X130664499Y-136938053D01*
X130664498Y-136938053D01*
X130605639Y-137019068D01*
X130499164Y-137228034D01*
X130426689Y-137451090D01*
X130390000Y-137682734D01*
X130390000Y-137917265D01*
X130426689Y-138148909D01*
X130499164Y-138371965D01*
X130605640Y-138580933D01*
X130664498Y-138661945D01*
X130664499Y-138661945D01*
X131271304Y-138055140D01*
X131295116Y-138112627D01*
X131367345Y-138220725D01*
X131459275Y-138312655D01*
X131567373Y-138384884D01*
X131624858Y-138408695D01*
X131018053Y-139015499D01*
X131020673Y-139048789D01*
X131006309Y-139117166D01*
X130969942Y-139158835D01*
X130909004Y-139203109D01*
X130743108Y-139369005D01*
X130743104Y-139369010D01*
X130605212Y-139558804D01*
X130498697Y-139767849D01*
X130426201Y-139990972D01*
X130389500Y-140222695D01*
X130389500Y-140457304D01*
X130426201Y-140689027D01*
X130498697Y-140912150D01*
X130605212Y-141121195D01*
X130743104Y-141310989D01*
X130743108Y-141310994D01*
X130909005Y-141476891D01*
X130909010Y-141476895D01*
X130954137Y-141509682D01*
X130996803Y-141565012D01*
X131002782Y-141634625D01*
X130970176Y-141696420D01*
X130954137Y-141710318D01*
X130909010Y-141743104D01*
X130909005Y-141743108D01*
X130743108Y-141909005D01*
X130743104Y-141909010D01*
X130605212Y-142098804D01*
X130498697Y-142307849D01*
X130426201Y-142530972D01*
X130389500Y-142762695D01*
X130389500Y-142997304D01*
X130426201Y-143229027D01*
X130498697Y-143452150D01*
X130605212Y-143661195D01*
X130743104Y-143850989D01*
X130743108Y-143850994D01*
X130909005Y-144016891D01*
X130909010Y-144016895D01*
X130954137Y-144049682D01*
X130967300Y-144066752D01*
X130983931Y-144080479D01*
X130988215Y-144093876D01*
X130996803Y-144105012D01*
X130998647Y-144126492D01*
X131005216Y-144147028D01*
X131001578Y-144160612D01*
X131002782Y-144174625D01*
X130992720Y-144193693D01*
X130987144Y-144214520D01*
X130974490Y-144228243D01*
X130970176Y-144236420D01*
X130964678Y-144241740D01*
X130959642Y-144246319D01*
X130909004Y-144283110D01*
X130806840Y-144385273D01*
X130804678Y-144387240D01*
X130775781Y-144401283D01*
X130747610Y-144416666D01*
X130743139Y-144417146D01*
X130741836Y-144417780D01*
X130739662Y-144417520D01*
X130721252Y-144419500D01*
X128995782Y-144419500D01*
X128928743Y-144399815D01*
X128908101Y-144383181D01*
X128776819Y-144251899D01*
X128743334Y-144190576D01*
X128740500Y-144164218D01*
X128740500Y-136330983D01*
X128760185Y-136263944D01*
X128812989Y-136218189D01*
X128882147Y-136208245D01*
X128933391Y-136227881D01*
X128987363Y-136263944D01*
X128993453Y-136268013D01*
X128993455Y-136268014D01*
X128993459Y-136268016D01*
X129116363Y-136318923D01*
X129157334Y-136335894D01*
X129157336Y-136335894D01*
X129157341Y-136335896D01*
X129331304Y-136370499D01*
X129331307Y-136370500D01*
X129331309Y-136370500D01*
X129508693Y-136370500D01*
X129508694Y-136370499D01*
X129566682Y-136358964D01*
X129682658Y-136335896D01*
X129682661Y-136335894D01*
X129682666Y-136335894D01*
X129846547Y-136268013D01*
X129994035Y-136169464D01*
X130119464Y-136044035D01*
X130218013Y-135896547D01*
X130258410Y-135799018D01*
X130302249Y-135744618D01*
X130368543Y-135722552D01*
X130436242Y-135739831D01*
G37*
%TD.AperFunction*%
%TA.AperFunction,Conductor*%
G36*
X121246334Y-110941099D02*
G01*
X121302267Y-110982971D01*
X121326684Y-111048435D01*
X121327000Y-111057281D01*
X121327000Y-112407870D01*
X121327001Y-112407876D01*
X121333408Y-112467483D01*
X121383702Y-112602328D01*
X121383706Y-112602335D01*
X121469952Y-112717544D01*
X121469955Y-112717547D01*
X121585164Y-112803793D01*
X121585171Y-112803797D01*
X121720017Y-112854091D01*
X121720016Y-112854091D01*
X121726944Y-112854835D01*
X121779627Y-112860500D01*
X123780372Y-112860499D01*
X123839983Y-112854091D01*
X123974831Y-112803796D01*
X124090046Y-112717546D01*
X124176296Y-112602331D01*
X124186690Y-112574460D01*
X124228560Y-112518527D01*
X124294023Y-112494108D01*
X124362297Y-112508958D01*
X124375746Y-112517465D01*
X124558462Y-112650217D01*
X124642250Y-112692909D01*
X124762244Y-112754049D01*
X124979751Y-112824721D01*
X124979752Y-112824721D01*
X124979755Y-112824722D01*
X125205646Y-112860500D01*
X125205647Y-112860500D01*
X125434353Y-112860500D01*
X125434354Y-112860500D01*
X125660245Y-112824722D01*
X125660248Y-112824721D01*
X125660249Y-112824721D01*
X125877755Y-112754049D01*
X125877755Y-112754048D01*
X125877758Y-112754048D01*
X126081538Y-112650217D01*
X126266566Y-112515786D01*
X126428286Y-112354066D01*
X126489992Y-112269134D01*
X126545319Y-112226470D01*
X126614932Y-112220491D01*
X126676727Y-112253096D01*
X126690626Y-112269135D01*
X126752097Y-112353741D01*
X126752097Y-112353742D01*
X126913757Y-112515402D01*
X126913763Y-112515407D01*
X127081918Y-112637579D01*
X127124584Y-112692909D01*
X127130563Y-112762522D01*
X127097957Y-112824317D01*
X127096714Y-112825578D01*
X123939538Y-115982753D01*
X123939537Y-115982754D01*
X123910959Y-116025524D01*
X123910952Y-116025535D01*
X123908743Y-116028842D01*
X123840987Y-116130246D01*
X123820586Y-116179500D01*
X123817451Y-116187066D01*
X123817448Y-116187073D01*
X123773105Y-116294126D01*
X123773103Y-116294134D01*
X123741321Y-116453912D01*
X123741322Y-116453913D01*
X123738500Y-116468103D01*
X123738500Y-119187696D01*
X123773103Y-119361659D01*
X123773106Y-119361669D01*
X123784101Y-119388211D01*
X123803040Y-119433933D01*
X123840987Y-119525547D01*
X123869049Y-119567544D01*
X123912785Y-119633000D01*
X123939537Y-119673038D01*
X124011851Y-119745352D01*
X124045336Y-119806675D01*
X124040352Y-119876367D01*
X123998480Y-119932300D01*
X123933016Y-119956717D01*
X123907985Y-119955972D01*
X123630961Y-119919501D01*
X123630956Y-119919500D01*
X123630951Y-119919500D01*
X123349049Y-119919500D01*
X123349041Y-119919500D01*
X123069560Y-119956295D01*
X122797256Y-120029259D01*
X122536820Y-120137135D01*
X122536809Y-120137140D01*
X122292690Y-120278083D01*
X122292682Y-120278089D01*
X122069029Y-120449704D01*
X121869704Y-120649029D01*
X121698089Y-120872682D01*
X121698083Y-120872690D01*
X121557140Y-121116809D01*
X121557135Y-121116820D01*
X121449259Y-121377256D01*
X121376295Y-121649560D01*
X121339500Y-121929041D01*
X121339500Y-122095719D01*
X121319815Y-122162758D01*
X121267011Y-122208513D01*
X121197853Y-122218457D01*
X121134297Y-122189432D01*
X121127819Y-122183400D01*
X120756819Y-121812400D01*
X120723334Y-121751077D01*
X120720500Y-121724719D01*
X120720500Y-111415781D01*
X120740185Y-111348742D01*
X120756815Y-111328104D01*
X121115319Y-110969599D01*
X121176642Y-110936115D01*
X121246334Y-110941099D01*
G37*
%TD.AperFunction*%
%TA.AperFunction,Conductor*%
G36*
X155309237Y-90181950D02*
G01*
X155373014Y-90187657D01*
X155428192Y-90230519D01*
X155451437Y-90296408D01*
X155450088Y-90322444D01*
X155439500Y-90389295D01*
X155439500Y-90623905D01*
X155445089Y-90659192D01*
X155476201Y-90855627D01*
X155548697Y-91078750D01*
X155601954Y-91183272D01*
X155650821Y-91279179D01*
X155655212Y-91287795D01*
X155793104Y-91477589D01*
X155793108Y-91477594D01*
X155959005Y-91643491D01*
X155959010Y-91643495D01*
X156004137Y-91676282D01*
X156046803Y-91731612D01*
X156052782Y-91801225D01*
X156020176Y-91863020D01*
X156004137Y-91876918D01*
X155959010Y-91909704D01*
X155959005Y-91909708D01*
X155793104Y-92075609D01*
X155779028Y-92094985D01*
X155723699Y-92137651D01*
X155678710Y-92146100D01*
X152874706Y-92146100D01*
X152700741Y-92180703D01*
X152700732Y-92180706D01*
X152536857Y-92248584D01*
X152536856Y-92248585D01*
X152431710Y-92318842D01*
X152389364Y-92347136D01*
X152389360Y-92347139D01*
X151810540Y-92925958D01*
X151810534Y-92925965D01*
X151777252Y-92975776D01*
X151777245Y-92975787D01*
X151774624Y-92979711D01*
X151711987Y-93073453D01*
X151686373Y-93135291D01*
X151683517Y-93142184D01*
X151683514Y-93142191D01*
X151644105Y-93237332D01*
X151644105Y-93237334D01*
X151609530Y-93411158D01*
X151609527Y-93411171D01*
X151609500Y-93411308D01*
X151609500Y-98078695D01*
X151644103Y-98252658D01*
X151644106Y-98252667D01*
X151711983Y-98416540D01*
X151711990Y-98416553D01*
X151810535Y-98564034D01*
X151810538Y-98564038D01*
X151935961Y-98689461D01*
X151935965Y-98689464D01*
X152083446Y-98788009D01*
X152083459Y-98788016D01*
X152157594Y-98818723D01*
X152247334Y-98855894D01*
X152247336Y-98855894D01*
X152247341Y-98855896D01*
X152421304Y-98890499D01*
X152421307Y-98890500D01*
X152421309Y-98890500D01*
X152598693Y-98890500D01*
X152598694Y-98890499D01*
X152662739Y-98877760D01*
X152772658Y-98855896D01*
X152772661Y-98855894D01*
X152772666Y-98855894D01*
X152936547Y-98788013D01*
X153084035Y-98689464D01*
X153209464Y-98564035D01*
X153308013Y-98416547D01*
X153310616Y-98410264D01*
X153341817Y-98334935D01*
X153375894Y-98252666D01*
X153387616Y-98193739D01*
X153401642Y-98123225D01*
X153410500Y-98078691D01*
X153410500Y-94071100D01*
X153430185Y-94004061D01*
X153482989Y-93958306D01*
X153534500Y-93947100D01*
X155678710Y-93947100D01*
X155745749Y-93966785D01*
X155779028Y-93998215D01*
X155793104Y-94017590D01*
X155793110Y-94017596D01*
X155959004Y-94183490D01*
X156019940Y-94227762D01*
X156062606Y-94283092D01*
X156070673Y-94337810D01*
X156068053Y-94371099D01*
X156674858Y-94977904D01*
X156617373Y-95001716D01*
X156509275Y-95073945D01*
X156417345Y-95165875D01*
X156345116Y-95273973D01*
X156321304Y-95331458D01*
X155714499Y-94724653D01*
X155714498Y-94724653D01*
X155655639Y-94805668D01*
X155549164Y-95014634D01*
X155476689Y-95237690D01*
X155440000Y-95469334D01*
X155440000Y-95703865D01*
X155476689Y-95935509D01*
X155549164Y-96158565D01*
X155655640Y-96367533D01*
X155714498Y-96448545D01*
X155714499Y-96448545D01*
X156321304Y-95841740D01*
X156345116Y-95899227D01*
X156417345Y-96007325D01*
X156509275Y-96099255D01*
X156617373Y-96171484D01*
X156674858Y-96195295D01*
X156068053Y-96802099D01*
X156070673Y-96835389D01*
X156056309Y-96903766D01*
X156019942Y-96945435D01*
X155959004Y-96989709D01*
X155793108Y-97155605D01*
X155793104Y-97155610D01*
X155655212Y-97345404D01*
X155548697Y-97554449D01*
X155476201Y-97777572D01*
X155459714Y-97881666D01*
X155439500Y-98009295D01*
X155439500Y-98243905D01*
X155442892Y-98265321D01*
X155476201Y-98475627D01*
X155548697Y-98698750D01*
X155568956Y-98738510D01*
X155654721Y-98906833D01*
X155655212Y-98907795D01*
X155793104Y-99097589D01*
X155793108Y-99097594D01*
X155959005Y-99263491D01*
X155959010Y-99263495D01*
X156004137Y-99296282D01*
X156046803Y-99351612D01*
X156052782Y-99421225D01*
X156020176Y-99483020D01*
X156004137Y-99496918D01*
X155959010Y-99529704D01*
X155959005Y-99529708D01*
X155793108Y-99695605D01*
X155793104Y-99695610D01*
X155655212Y-99885404D01*
X155548697Y-100094449D01*
X155476201Y-100317572D01*
X155472447Y-100341276D01*
X155439500Y-100549295D01*
X155439500Y-100783905D01*
X155447550Y-100834729D01*
X155476201Y-101015627D01*
X155548697Y-101238750D01*
X155594388Y-101328422D01*
X155627495Y-101393399D01*
X155655212Y-101447795D01*
X155793104Y-101637589D01*
X155793108Y-101637594D01*
X155959005Y-101803491D01*
X155959010Y-101803495D01*
X156004137Y-101836282D01*
X156046803Y-101891612D01*
X156052782Y-101961225D01*
X156020176Y-102023020D01*
X156004137Y-102036918D01*
X155959010Y-102069704D01*
X155959005Y-102069708D01*
X155793108Y-102235605D01*
X155793104Y-102235610D01*
X155655212Y-102425404D01*
X155548697Y-102634449D01*
X155476201Y-102857572D01*
X155439500Y-103089295D01*
X155439500Y-103323904D01*
X155476201Y-103555627D01*
X155548697Y-103778750D01*
X155655212Y-103987795D01*
X155793104Y-104177589D01*
X155793108Y-104177594D01*
X155959005Y-104343491D01*
X155959010Y-104343495D01*
X156004137Y-104376282D01*
X156046803Y-104431612D01*
X156052782Y-104501225D01*
X156020176Y-104563020D01*
X156004137Y-104576918D01*
X155959010Y-104609704D01*
X155959005Y-104609708D01*
X155793108Y-104775605D01*
X155793104Y-104775610D01*
X155655212Y-104965404D01*
X155548697Y-105174449D01*
X155476201Y-105397572D01*
X155439500Y-105629295D01*
X155439500Y-105863902D01*
X155439499Y-105863902D01*
X155476201Y-106095627D01*
X155548697Y-106318750D01*
X155596049Y-106411683D01*
X155624876Y-106468259D01*
X155655212Y-106527795D01*
X155793104Y-106717589D01*
X155793108Y-106717594D01*
X155793110Y-106717596D01*
X155959004Y-106883490D01*
X156019940Y-106927762D01*
X156062606Y-106983092D01*
X156070673Y-107037810D01*
X156068053Y-107071099D01*
X156674858Y-107677904D01*
X156617373Y-107701716D01*
X156509275Y-107773945D01*
X156417345Y-107865875D01*
X156345116Y-107973973D01*
X156321304Y-108031458D01*
X155714499Y-107424653D01*
X155714498Y-107424653D01*
X155655639Y-107505668D01*
X155549164Y-107714634D01*
X155476689Y-107937690D01*
X155440000Y-108169334D01*
X155440000Y-108403865D01*
X155476689Y-108635509D01*
X155549164Y-108858565D01*
X155655640Y-109067533D01*
X155714498Y-109148545D01*
X155714499Y-109148545D01*
X156321304Y-108541740D01*
X156345116Y-108599227D01*
X156417345Y-108707325D01*
X156509275Y-108799255D01*
X156617373Y-108871484D01*
X156674858Y-108895295D01*
X156068052Y-109502099D01*
X156068053Y-109502100D01*
X156149066Y-109560959D01*
X156358034Y-109667435D01*
X156581090Y-109739910D01*
X156812735Y-109776600D01*
X157047265Y-109776600D01*
X157278909Y-109739910D01*
X157501965Y-109667435D01*
X157710930Y-109560961D01*
X157791945Y-109502099D01*
X157791946Y-109502099D01*
X157185141Y-108895295D01*
X157242627Y-108871484D01*
X157350725Y-108799255D01*
X157442655Y-108707325D01*
X157514884Y-108599227D01*
X157538695Y-108541741D01*
X158145499Y-109148546D01*
X158145499Y-109148545D01*
X158204361Y-109067530D01*
X158310835Y-108858565D01*
X158383310Y-108635509D01*
X158420000Y-108403865D01*
X158420000Y-108169334D01*
X158383310Y-107937690D01*
X158310835Y-107714634D01*
X158204359Y-107505666D01*
X158145500Y-107424653D01*
X158145499Y-107424652D01*
X157538694Y-108031457D01*
X157514884Y-107973973D01*
X157442655Y-107865875D01*
X157350725Y-107773945D01*
X157242627Y-107701716D01*
X157185141Y-107677904D01*
X157791945Y-107071099D01*
X157789325Y-107037811D01*
X157803689Y-106969434D01*
X157840056Y-106927764D01*
X157900996Y-106883490D01*
X158066890Y-106717596D01*
X158204790Y-106527792D01*
X158311301Y-106318753D01*
X158383799Y-106095626D01*
X158420500Y-105863905D01*
X158420500Y-105629295D01*
X158383799Y-105397574D01*
X158314947Y-105185668D01*
X158311302Y-105174449D01*
X158290103Y-105132844D01*
X158204790Y-104965408D01*
X158166196Y-104912288D01*
X158066895Y-104775610D01*
X158066891Y-104775605D01*
X157900992Y-104609706D01*
X157855863Y-104576919D01*
X157813196Y-104521589D01*
X157807216Y-104451976D01*
X157839822Y-104390181D01*
X157855863Y-104376281D01*
X157900992Y-104343493D01*
X157900992Y-104343492D01*
X157900996Y-104343490D01*
X158066890Y-104177596D01*
X158204790Y-103987792D01*
X158311301Y-103778753D01*
X158311514Y-103778099D01*
X158335753Y-103703497D01*
X158383799Y-103555626D01*
X158420500Y-103323905D01*
X158420500Y-103089295D01*
X158383799Y-102857574D01*
X158335870Y-102710062D01*
X158311302Y-102634449D01*
X158269044Y-102551513D01*
X158204790Y-102425408D01*
X158142350Y-102339466D01*
X158066895Y-102235610D01*
X158066891Y-102235605D01*
X157900992Y-102069706D01*
X157855863Y-102036919D01*
X157813196Y-101981589D01*
X157807216Y-101911976D01*
X157839822Y-101850181D01*
X157855863Y-101836281D01*
X157900992Y-101803493D01*
X157900992Y-101803492D01*
X157900996Y-101803490D01*
X158066890Y-101637596D01*
X158204790Y-101447792D01*
X158311301Y-101238753D01*
X158383799Y-101015626D01*
X158420500Y-100783905D01*
X158420500Y-100549295D01*
X158383799Y-100317574D01*
X158331122Y-100155451D01*
X158311302Y-100094449D01*
X158244080Y-99962519D01*
X158204790Y-99885408D01*
X158135794Y-99790442D01*
X158066895Y-99695610D01*
X158066891Y-99695605D01*
X157900992Y-99529706D01*
X157855863Y-99496919D01*
X157813196Y-99441589D01*
X157807216Y-99371976D01*
X157839822Y-99310181D01*
X157855863Y-99296281D01*
X157900992Y-99263493D01*
X157900992Y-99263492D01*
X157900996Y-99263490D01*
X158066890Y-99097596D01*
X158204790Y-98907792D01*
X158311301Y-98698753D01*
X158383799Y-98475626D01*
X158420500Y-98243905D01*
X158420500Y-98009295D01*
X158383799Y-97777574D01*
X158318983Y-97578089D01*
X158311302Y-97554449D01*
X158264105Y-97461820D01*
X158204790Y-97345408D01*
X158187171Y-97321158D01*
X158066895Y-97155610D01*
X158066891Y-97155605D01*
X157900998Y-96989712D01*
X157900994Y-96989709D01*
X157900992Y-96989707D01*
X157840058Y-96945436D01*
X157797392Y-96890106D01*
X157789325Y-96835388D01*
X157791945Y-96802099D01*
X157185141Y-96195295D01*
X157242627Y-96171484D01*
X157350725Y-96099255D01*
X157442655Y-96007325D01*
X157514884Y-95899227D01*
X157538695Y-95841741D01*
X158145499Y-96448546D01*
X158145499Y-96448545D01*
X158204361Y-96367530D01*
X158310835Y-96158565D01*
X158383310Y-95935509D01*
X158420000Y-95703865D01*
X158420000Y-95469334D01*
X158383310Y-95237690D01*
X158310835Y-95014634D01*
X158204359Y-94805666D01*
X158145500Y-94724653D01*
X158145499Y-94724652D01*
X157538694Y-95331457D01*
X157514884Y-95273973D01*
X157442655Y-95165875D01*
X157350725Y-95073945D01*
X157242627Y-95001716D01*
X157185141Y-94977904D01*
X157791945Y-94371099D01*
X157789325Y-94337811D01*
X157803689Y-94269434D01*
X157840056Y-94227764D01*
X157900996Y-94183490D01*
X158066890Y-94017596D01*
X158066892Y-94017592D01*
X158066895Y-94017590D01*
X158080972Y-93998215D01*
X158136301Y-93955549D01*
X158181290Y-93947100D01*
X164972238Y-93947100D01*
X165039277Y-93966785D01*
X165059919Y-93983419D01*
X166553181Y-95476680D01*
X166586666Y-95538003D01*
X166589500Y-95564361D01*
X166589500Y-97768872D01*
X166569815Y-97835911D01*
X166517011Y-97881666D01*
X166447853Y-97891610D01*
X166384297Y-97862585D01*
X166377819Y-97856553D01*
X166270970Y-97749704D01*
X166245405Y-97730087D01*
X166047317Y-97578088D01*
X166047311Y-97578084D01*
X166047309Y-97578083D01*
X165803190Y-97437140D01*
X165803179Y-97437135D01*
X165542743Y-97329259D01*
X165270439Y-97256295D01*
X164990958Y-97219500D01*
X164990951Y-97219500D01*
X164709049Y-97219500D01*
X164709041Y-97219500D01*
X164429560Y-97256295D01*
X164157256Y-97329259D01*
X163896820Y-97437135D01*
X163896809Y-97437140D01*
X163652690Y-97578083D01*
X163652682Y-97578089D01*
X163429029Y-97749704D01*
X163229704Y-97949029D01*
X163146251Y-98057787D01*
X163078343Y-98146287D01*
X163058089Y-98172682D01*
X163058083Y-98172690D01*
X162917140Y-98416809D01*
X162917135Y-98416820D01*
X162809259Y-98677256D01*
X162736295Y-98949560D01*
X162699500Y-99229041D01*
X162699500Y-99510958D01*
X162736295Y-99790439D01*
X162809259Y-100062743D01*
X162917135Y-100323179D01*
X162917140Y-100323190D01*
X163040884Y-100537519D01*
X163058088Y-100567317D01*
X163225503Y-100785495D01*
X163229704Y-100790970D01*
X163429029Y-100990295D01*
X163429033Y-100990298D01*
X163429035Y-100990300D01*
X163652683Y-101161912D01*
X163652690Y-101161916D01*
X163896809Y-101302859D01*
X163896814Y-101302861D01*
X163896817Y-101302863D01*
X164157261Y-101410742D01*
X164429558Y-101483704D01*
X164709049Y-101520500D01*
X164709056Y-101520500D01*
X164990944Y-101520500D01*
X164990951Y-101520500D01*
X165270442Y-101483704D01*
X165542739Y-101410742D01*
X165803183Y-101302863D01*
X165814208Y-101296498D01*
X165847875Y-101277060D01*
X166047317Y-101161912D01*
X166270965Y-100990300D01*
X166298983Y-100962282D01*
X166377819Y-100883447D01*
X166439142Y-100849962D01*
X166508834Y-100854946D01*
X166564767Y-100896818D01*
X166589184Y-100962282D01*
X166589500Y-100971128D01*
X166589500Y-106398689D01*
X166589575Y-106399451D01*
X166589575Y-106423741D01*
X166589500Y-106424503D01*
X166589500Y-110248696D01*
X166624103Y-110422659D01*
X166624104Y-110422663D01*
X166624105Y-110422666D01*
X166630002Y-110436902D01*
X166644899Y-110472867D01*
X166644903Y-110472875D01*
X166646233Y-110476086D01*
X166691987Y-110586547D01*
X166714674Y-110620500D01*
X166719507Y-110627733D01*
X166719509Y-110627737D01*
X166790532Y-110734031D01*
X166790538Y-110734039D01*
X170912129Y-114855628D01*
X170945614Y-114916951D01*
X170948448Y-114943309D01*
X170948448Y-116494434D01*
X170931835Y-116556434D01*
X170315560Y-117623853D01*
X170264993Y-117672069D01*
X170196386Y-117685292D01*
X170131521Y-117659324D01*
X170094895Y-117612291D01*
X170007779Y-117416627D01*
X169887718Y-117231747D01*
X169887715Y-117231744D01*
X169887714Y-117231742D01*
X169740213Y-117067927D01*
X169568899Y-116929199D01*
X169568892Y-116929194D01*
X167819143Y-115918976D01*
X167819134Y-115918971D01*
X167613339Y-115839975D01*
X167397712Y-115794141D01*
X167397708Y-115794140D01*
X167177576Y-115782605D01*
X167177566Y-115782605D01*
X167074572Y-115793430D01*
X166958334Y-115805647D01*
X166958331Y-115805647D01*
X166958329Y-115805648D01*
X166745405Y-115862700D01*
X166544015Y-115952366D01*
X166359132Y-116072429D01*
X166195317Y-116219930D01*
X166056589Y-116391244D01*
X166056584Y-116391251D01*
X165946366Y-116582154D01*
X165946361Y-116582163D01*
X165867365Y-116787958D01*
X165867304Y-116788247D01*
X165867249Y-116788347D01*
X165865982Y-116792628D01*
X165865082Y-116792361D01*
X165834105Y-116849725D01*
X165772939Y-116883496D01*
X165746016Y-116886454D01*
X161689126Y-116886454D01*
X161544138Y-116915294D01*
X161544128Y-116915297D01*
X161407557Y-116971866D01*
X161407544Y-116971873D01*
X161284630Y-117054002D01*
X161284626Y-117054005D01*
X159965451Y-118373181D01*
X159904128Y-118406666D01*
X159877770Y-118409500D01*
X156726947Y-118409500D01*
X156702755Y-118407117D01*
X156563920Y-118379500D01*
X156563918Y-118379500D01*
X151569808Y-118379500D01*
X151502769Y-118359815D01*
X151457014Y-118307011D01*
X151447070Y-118237853D01*
X151476095Y-118174297D01*
X151482127Y-118167819D01*
X153745271Y-115904675D01*
X153745276Y-115904670D01*
X153811440Y-115805648D01*
X153816464Y-115798129D01*
X153818116Y-115794140D01*
X153865501Y-115679744D01*
X153879423Y-115609755D01*
X153890500Y-115554069D01*
X153890500Y-109905931D01*
X153890500Y-106075931D01*
X153890500Y-106075928D01*
X153865502Y-105950261D01*
X153865501Y-105950260D01*
X153865501Y-105950256D01*
X153829733Y-105863905D01*
X153816466Y-105831874D01*
X153745277Y-105725331D01*
X153745272Y-105725325D01*
X152720350Y-104700403D01*
X152720327Y-104700382D01*
X150916819Y-102896873D01*
X150883334Y-102835550D01*
X150880500Y-102809192D01*
X150880500Y-94664935D01*
X150900185Y-94597896D01*
X150901366Y-94596090D01*
X150939394Y-94539179D01*
X150999737Y-94393497D01*
X151030500Y-94238842D01*
X151030500Y-94081158D01*
X151030500Y-94081155D01*
X151030499Y-94081153D01*
X151025944Y-94058253D01*
X150999737Y-93926503D01*
X150999735Y-93926498D01*
X150939397Y-93780827D01*
X150939390Y-93780814D01*
X150851789Y-93649711D01*
X150851786Y-93649707D01*
X150740292Y-93538213D01*
X150740288Y-93538210D01*
X150609185Y-93450609D01*
X150609172Y-93450602D01*
X150463501Y-93390264D01*
X150463491Y-93390261D01*
X150378369Y-93373329D01*
X150316458Y-93340944D01*
X150281884Y-93280228D01*
X150285625Y-93210458D01*
X150288000Y-93204259D01*
X150304715Y-93163905D01*
X150329737Y-93103497D01*
X150360500Y-92948842D01*
X150360500Y-92791158D01*
X150360500Y-92791155D01*
X150360499Y-92791153D01*
X150352371Y-92750292D01*
X150329737Y-92636503D01*
X150300327Y-92565500D01*
X150269397Y-92490827D01*
X150269390Y-92490814D01*
X150181789Y-92359711D01*
X150181786Y-92359707D01*
X150070292Y-92248213D01*
X150070288Y-92248210D01*
X149939185Y-92160609D01*
X149939175Y-92160604D01*
X149912754Y-92149660D01*
X149858350Y-92105818D01*
X149836286Y-92039524D01*
X149853566Y-91971825D01*
X149872522Y-91947421D01*
X150945897Y-90874046D01*
X150964681Y-90858631D01*
X150984669Y-90845277D01*
X151612127Y-90217819D01*
X151673450Y-90184334D01*
X151699808Y-90181500D01*
X155303070Y-90181500D01*
X155303422Y-90181430D01*
X155303610Y-90181446D01*
X155309134Y-90180903D01*
X155309237Y-90181950D01*
G37*
%TD.AperFunction*%
%TA.AperFunction,Conductor*%
G36*
X145174070Y-114676304D02*
G01*
X145220761Y-114728281D01*
X145225085Y-114751533D01*
X145833991Y-115360439D01*
X145769215Y-115387271D01*
X145665211Y-115456764D01*
X145576764Y-115545211D01*
X145507271Y-115649215D01*
X145480439Y-115713991D01*
X144881347Y-115114899D01*
X144868621Y-115115901D01*
X144861294Y-115123443D01*
X144852468Y-115125496D01*
X144845293Y-115131029D01*
X144818970Y-115133289D01*
X144793242Y-115139275D01*
X144784709Y-115136231D01*
X144775679Y-115137007D01*
X144752308Y-115124674D01*
X144727433Y-115115802D01*
X144718424Y-115106794D01*
X144713885Y-115104399D01*
X144702120Y-115091207D01*
X144701032Y-115089797D01*
X144638286Y-115003434D01*
X144621395Y-114986543D01*
X144616526Y-114980230D01*
X144606623Y-114954804D01*
X144593548Y-114930858D01*
X144594129Y-114922723D01*
X144591170Y-114915124D01*
X144596585Y-114888381D01*
X144598532Y-114861166D01*
X144603419Y-114854637D01*
X144605038Y-114846644D01*
X144624054Y-114827073D01*
X144640404Y-114805233D01*
X144648044Y-114802383D01*
X144653728Y-114796534D01*
X144680302Y-114790351D01*
X144705868Y-114780816D01*
X144714714Y-114780500D01*
X144733920Y-114780500D01*
X144831462Y-114761096D01*
X144878913Y-114751658D01*
X145015495Y-114695084D01*
X145040015Y-114678699D01*
X145106689Y-114657821D01*
X145174070Y-114676304D01*
G37*
%TD.AperFunction*%
%TA.AperFunction,Conductor*%
G36*
X150470000Y-112878508D02*
G01*
X150560128Y-112864234D01*
X150777570Y-112793582D01*
X150981276Y-112689788D01*
X151166242Y-112555402D01*
X151327902Y-112393742D01*
X151327907Y-112393736D01*
X151385182Y-112314905D01*
X151440512Y-112272239D01*
X151510125Y-112266260D01*
X151571920Y-112298866D01*
X151606277Y-112359704D01*
X151609500Y-112387790D01*
X151609500Y-114837060D01*
X151589815Y-114904099D01*
X151573181Y-114924741D01*
X151384741Y-115113181D01*
X151323418Y-115146666D01*
X151297060Y-115149500D01*
X149887590Y-115149500D01*
X149820551Y-115129815D01*
X149787272Y-115098385D01*
X149718288Y-115003437D01*
X149718283Y-115003431D01*
X149556568Y-114841716D01*
X149556566Y-114841714D01*
X149371538Y-114707283D01*
X149315443Y-114678701D01*
X149167755Y-114603450D01*
X148950248Y-114532778D01*
X148780826Y-114505944D01*
X148724354Y-114497000D01*
X148495646Y-114497000D01*
X148420349Y-114508926D01*
X148269753Y-114532778D01*
X148269750Y-114532778D01*
X148052244Y-114603450D01*
X147848461Y-114707283D01*
X147747688Y-114780500D01*
X147663434Y-114841714D01*
X147663432Y-114841716D01*
X147663431Y-114841716D01*
X147501716Y-115003431D01*
X147501709Y-115003440D01*
X147440007Y-115088364D01*
X147384677Y-115131030D01*
X147315063Y-115137008D01*
X147275710Y-115116242D01*
X147258651Y-115114899D01*
X146659560Y-115713990D01*
X146632729Y-115649215D01*
X146563236Y-115545211D01*
X146474789Y-115456764D01*
X146370785Y-115387271D01*
X146306006Y-115360438D01*
X146905099Y-114761347D01*
X146831276Y-114707711D01*
X146627568Y-114603917D01*
X146410124Y-114533265D01*
X146184313Y-114497500D01*
X145955687Y-114497500D01*
X145729875Y-114533265D01*
X145729874Y-114533265D01*
X145512430Y-114603917D01*
X145465865Y-114627643D01*
X145397196Y-114640538D01*
X145332456Y-114614261D01*
X145292200Y-114557154D01*
X145289208Y-114487348D01*
X145321890Y-114429477D01*
X145722952Y-114028415D01*
X145771408Y-113955895D01*
X145805084Y-113905495D01*
X145855880Y-113782863D01*
X145861659Y-113768912D01*
X145890500Y-113623917D01*
X145890500Y-113476082D01*
X145890500Y-113024499D01*
X145910185Y-112957460D01*
X145962989Y-112911705D01*
X146014500Y-112900499D01*
X146140371Y-112900499D01*
X146140372Y-112900499D01*
X146199983Y-112894091D01*
X146334831Y-112843796D01*
X146450046Y-112757546D01*
X146536296Y-112642331D01*
X146546690Y-112614460D01*
X146588560Y-112558527D01*
X146654023Y-112534108D01*
X146722297Y-112548958D01*
X146735746Y-112557465D01*
X146918462Y-112690217D01*
X147050599Y-112757544D01*
X147122244Y-112794049D01*
X147339751Y-112864721D01*
X147339752Y-112864721D01*
X147339755Y-112864722D01*
X147565646Y-112900500D01*
X147565647Y-112900500D01*
X147794353Y-112900500D01*
X147794354Y-112900500D01*
X148020245Y-112864722D01*
X148020248Y-112864721D01*
X148020249Y-112864721D01*
X148237755Y-112794049D01*
X148237755Y-112794048D01*
X148237758Y-112794048D01*
X148441538Y-112690217D01*
X148626566Y-112555786D01*
X148788286Y-112394066D01*
X148849992Y-112309134D01*
X148905319Y-112266470D01*
X148974932Y-112260491D01*
X149036727Y-112293096D01*
X149050626Y-112309135D01*
X149112097Y-112393741D01*
X149112097Y-112393742D01*
X149273757Y-112555402D01*
X149458723Y-112689788D01*
X149662429Y-112793582D01*
X149879871Y-112864234D01*
X149970000Y-112878509D01*
X149970000Y-111890747D01*
X150007708Y-111912518D01*
X150147591Y-111950000D01*
X150292409Y-111950000D01*
X150432292Y-111912518D01*
X150470000Y-111890747D01*
X150470000Y-112878508D01*
G37*
%TD.AperFunction*%
%TA.AperFunction,Conductor*%
G36*
X132169809Y-110415185D02*
G01*
X132190451Y-110431819D01*
X132660681Y-110902049D01*
X132694166Y-110963372D01*
X132697000Y-110989730D01*
X132697000Y-111561854D01*
X132697001Y-112065500D01*
X132677317Y-112132539D01*
X132624513Y-112178294D01*
X132573001Y-112189500D01*
X129294079Y-112189500D01*
X129227040Y-112169815D01*
X129181285Y-112117011D01*
X129171341Y-112047853D01*
X129183594Y-112009205D01*
X129206082Y-111965070D01*
X129276734Y-111747628D01*
X129298532Y-111610000D01*
X128350748Y-111610000D01*
X128372518Y-111572292D01*
X128410000Y-111432409D01*
X128410000Y-111287591D01*
X128372518Y-111147708D01*
X128350748Y-111110000D01*
X129298532Y-111110000D01*
X129276734Y-110972371D01*
X129206082Y-110754929D01*
X129114808Y-110575795D01*
X129101912Y-110507126D01*
X129128188Y-110442385D01*
X129185295Y-110402128D01*
X129225293Y-110395500D01*
X132102770Y-110395500D01*
X132169809Y-110415185D01*
G37*
%TD.AperFunction*%
%TA.AperFunction,Conductor*%
G36*
X126044122Y-105532141D02*
G01*
X126045747Y-105531956D01*
X126079304Y-105542890D01*
X126086610Y-105546490D01*
X126150821Y-105589394D01*
X126290634Y-105647306D01*
X126296503Y-105649737D01*
X126296507Y-105649737D01*
X126296508Y-105649738D01*
X126451154Y-105680500D01*
X126451157Y-105680500D01*
X126451158Y-105680500D01*
X150287060Y-105680500D01*
X150354099Y-105700185D01*
X150374741Y-105716819D01*
X151573181Y-106915259D01*
X151606666Y-106976582D01*
X151609500Y-107002940D01*
X151609500Y-110412209D01*
X151589815Y-110479248D01*
X151537011Y-110525003D01*
X151467853Y-110534947D01*
X151404297Y-110505922D01*
X151385182Y-110485095D01*
X151327903Y-110406258D01*
X151166242Y-110244597D01*
X150981276Y-110110211D01*
X150777568Y-110006417D01*
X150560124Y-109935765D01*
X150470000Y-109921490D01*
X150470000Y-110909252D01*
X150432292Y-110887482D01*
X150292409Y-110850000D01*
X150147591Y-110850000D01*
X150007708Y-110887482D01*
X149970000Y-110909252D01*
X149970000Y-109921490D01*
X149969999Y-109921490D01*
X149879875Y-109935765D01*
X149662431Y-110006417D01*
X149458723Y-110110211D01*
X149273757Y-110244597D01*
X149112097Y-110406257D01*
X149112097Y-110406258D01*
X149074818Y-110457568D01*
X149019488Y-110500233D01*
X148949874Y-110506212D01*
X148888079Y-110473606D01*
X148853722Y-110412767D01*
X148850500Y-110384682D01*
X148850500Y-109341308D01*
X148846162Y-109319502D01*
X148846162Y-109319500D01*
X148815895Y-109167334D01*
X148774728Y-109067949D01*
X148748013Y-109003453D01*
X148688936Y-108915040D01*
X148675212Y-108894500D01*
X148649466Y-108855966D01*
X148069035Y-108275535D01*
X148069030Y-108275531D01*
X148014622Y-108239178D01*
X148014616Y-108239175D01*
X148009959Y-108236063D01*
X147921547Y-108176987D01*
X147839606Y-108143046D01*
X147757666Y-108109105D01*
X147757658Y-108109103D01*
X147583696Y-108074500D01*
X147583692Y-108074500D01*
X147583691Y-108074500D01*
X144103692Y-108074500D01*
X143926308Y-108074500D01*
X143926303Y-108074500D01*
X143752341Y-108109103D01*
X143752329Y-108109106D01*
X143670392Y-108143045D01*
X143670393Y-108143046D01*
X143588455Y-108176985D01*
X143500040Y-108236063D01*
X143500039Y-108236064D01*
X143440961Y-108275537D01*
X143440960Y-108275538D01*
X142210536Y-109505963D01*
X142203639Y-109516285D01*
X142203628Y-109516303D01*
X142202032Y-109518692D01*
X142111987Y-109653453D01*
X142095745Y-109692666D01*
X142092191Y-109701245D01*
X142092189Y-109701249D01*
X142044105Y-109817333D01*
X142044103Y-109817341D01*
X142010169Y-109987936D01*
X142010170Y-109987937D01*
X142009500Y-109991307D01*
X142009500Y-111125638D01*
X141989815Y-111192677D01*
X141973181Y-111213319D01*
X141033319Y-112153181D01*
X140971996Y-112186666D01*
X140945638Y-112189500D01*
X140648793Y-112189500D01*
X140581754Y-112169815D01*
X140535999Y-112117011D01*
X140526055Y-112047853D01*
X140538308Y-112009205D01*
X140576082Y-111935070D01*
X140646734Y-111717628D01*
X140668532Y-111580000D01*
X139720748Y-111580000D01*
X139742518Y-111542292D01*
X139780000Y-111402409D01*
X139780000Y-111257591D01*
X139742518Y-111117708D01*
X139720748Y-111080000D01*
X140668532Y-111080000D01*
X140646734Y-110942371D01*
X140576082Y-110724929D01*
X140472288Y-110521223D01*
X140337902Y-110336257D01*
X140176242Y-110174597D01*
X139991276Y-110040211D01*
X139787568Y-109936417D01*
X139570124Y-109865765D01*
X139480000Y-109851490D01*
X139480000Y-110839252D01*
X139442292Y-110817482D01*
X139302409Y-110780000D01*
X139157591Y-110780000D01*
X139017708Y-110817482D01*
X138980000Y-110839252D01*
X138980000Y-109851490D01*
X138979999Y-109851490D01*
X138889875Y-109865765D01*
X138672431Y-109936417D01*
X138468723Y-110040211D01*
X138283757Y-110174597D01*
X138122097Y-110336257D01*
X138060627Y-110420864D01*
X138005297Y-110463529D01*
X137935684Y-110469508D01*
X137873889Y-110436902D01*
X137859991Y-110420864D01*
X137855865Y-110415185D01*
X137798286Y-110335934D01*
X137636566Y-110174214D01*
X137451538Y-110039783D01*
X137418486Y-110022942D01*
X137247755Y-109935950D01*
X137030248Y-109865278D01*
X136844812Y-109835908D01*
X136804354Y-109829500D01*
X136575646Y-109829500D01*
X136514081Y-109839251D01*
X136349753Y-109865278D01*
X136349750Y-109865278D01*
X136132244Y-109935950D01*
X135928461Y-110039783D01*
X135745759Y-110172525D01*
X135679952Y-110196005D01*
X135611898Y-110180180D01*
X135563203Y-110130074D01*
X135556690Y-110115538D01*
X135554703Y-110110211D01*
X135546296Y-110087669D01*
X135546293Y-110087664D01*
X135460047Y-109972455D01*
X135460044Y-109972452D01*
X135344835Y-109886206D01*
X135344828Y-109886202D01*
X135209982Y-109835908D01*
X135209983Y-109835908D01*
X135150383Y-109829501D01*
X135150381Y-109829500D01*
X135150373Y-109829500D01*
X135150365Y-109829500D01*
X133762230Y-109829500D01*
X133695191Y-109809815D01*
X133674549Y-109793181D01*
X132943421Y-109062052D01*
X132943414Y-109062046D01*
X132869729Y-109012812D01*
X132869729Y-109012813D01*
X132820491Y-108979913D01*
X132683917Y-108923343D01*
X132683907Y-108923340D01*
X132538920Y-108894500D01*
X132538918Y-108894500D01*
X125696230Y-108894500D01*
X125629191Y-108874815D01*
X125583436Y-108822011D01*
X125573492Y-108752853D01*
X125602517Y-108689297D01*
X125608549Y-108682819D01*
X125732948Y-108558419D01*
X125732951Y-108558416D01*
X125815084Y-108435495D01*
X125871658Y-108298913D01*
X125893764Y-108187782D01*
X125900500Y-108153920D01*
X125900500Y-105654122D01*
X125901033Y-105652306D01*
X125900554Y-105650478D01*
X125910834Y-105618926D01*
X125920185Y-105587083D01*
X125921613Y-105585844D01*
X125922200Y-105584046D01*
X125947922Y-105563048D01*
X125972989Y-105541328D01*
X125974859Y-105541059D01*
X125976326Y-105539862D01*
X126009306Y-105536105D01*
X126042147Y-105531384D01*
X126044122Y-105532141D01*
G37*
%TD.AperFunction*%
%TA.AperFunction,Conductor*%
G36*
X137886075Y-96710185D02*
G01*
X137931830Y-96762989D01*
X137941774Y-96832147D01*
X137912749Y-96895703D01*
X137891921Y-96914819D01*
X137878282Y-96924727D01*
X137878282Y-96924728D01*
X138640000Y-97686446D01*
X138640001Y-97686446D01*
X139401716Y-96924728D01*
X139401716Y-96924727D01*
X139388077Y-96914818D01*
X139345411Y-96859489D01*
X139339432Y-96789875D01*
X139372037Y-96728080D01*
X139432876Y-96693723D01*
X139460962Y-96690500D01*
X140245500Y-96690500D01*
X140246435Y-96690774D01*
X140247376Y-96690514D01*
X140279899Y-96700600D01*
X140312539Y-96710185D01*
X140313177Y-96710921D01*
X140314110Y-96711211D01*
X140336031Y-96737296D01*
X140358294Y-96762989D01*
X140358639Y-96764199D01*
X140359061Y-96764701D01*
X140359830Y-96768371D01*
X140368491Y-96798712D01*
X140369500Y-96806572D01*
X140369500Y-96828842D01*
X140377560Y-96869365D01*
X140378104Y-96873598D01*
X140373251Y-96904063D01*
X140370502Y-96934787D01*
X140367803Y-96938273D01*
X140367115Y-96942598D01*
X140347224Y-96964863D01*
X140328001Y-96989702D01*
X140300211Y-97009893D01*
X140300205Y-97009898D01*
X140149890Y-97160213D01*
X140024949Y-97332182D01*
X140020202Y-97341499D01*
X139972227Y-97392293D01*
X139904405Y-97409087D01*
X139838271Y-97386548D01*
X139799234Y-97341495D01*
X139794626Y-97332452D01*
X139755270Y-97278282D01*
X139755269Y-97278282D01*
X138993554Y-98039999D01*
X138993554Y-98040000D01*
X139755270Y-98801717D01*
X139755270Y-98801716D01*
X139794622Y-98747555D01*
X139799232Y-98738507D01*
X139847205Y-98687709D01*
X139915025Y-98670912D01*
X139981161Y-98693447D01*
X140020204Y-98738504D01*
X140024949Y-98747817D01*
X140149890Y-98919786D01*
X140300213Y-99070109D01*
X140472179Y-99195048D01*
X140472181Y-99195049D01*
X140472184Y-99195051D01*
X140661588Y-99291557D01*
X140863757Y-99357246D01*
X141073713Y-99390500D01*
X141073714Y-99390500D01*
X141286286Y-99390500D01*
X141286287Y-99390500D01*
X141496243Y-99357246D01*
X141698412Y-99291557D01*
X141887816Y-99195051D01*
X141974138Y-99132335D01*
X142059786Y-99070109D01*
X142059788Y-99070106D01*
X142059792Y-99070104D01*
X142210104Y-98919792D01*
X142210106Y-98919788D01*
X142210109Y-98919786D01*
X142335048Y-98747820D01*
X142335047Y-98747820D01*
X142335051Y-98747816D01*
X142339514Y-98739054D01*
X142387488Y-98688259D01*
X142455308Y-98671463D01*
X142521444Y-98693999D01*
X142560486Y-98739056D01*
X142564951Y-98747820D01*
X142689890Y-98919786D01*
X142840213Y-99070109D01*
X143012179Y-99195048D01*
X143012181Y-99195049D01*
X143012184Y-99195051D01*
X143201588Y-99291557D01*
X143403757Y-99357246D01*
X143613713Y-99390500D01*
X143613714Y-99390500D01*
X143826286Y-99390500D01*
X143826287Y-99390500D01*
X144036243Y-99357246D01*
X144238412Y-99291557D01*
X144427816Y-99195051D01*
X144514138Y-99132335D01*
X144599786Y-99070109D01*
X144599788Y-99070106D01*
X144599792Y-99070104D01*
X144750104Y-98919792D01*
X144750106Y-98919788D01*
X144750109Y-98919786D01*
X144875048Y-98747820D01*
X144875047Y-98747820D01*
X144875051Y-98747816D01*
X144971557Y-98558412D01*
X145037246Y-98356243D01*
X145070500Y-98146287D01*
X145070500Y-97933713D01*
X145037246Y-97723757D01*
X144971557Y-97521588D01*
X144875051Y-97332184D01*
X144875049Y-97332181D01*
X144875048Y-97332179D01*
X144750109Y-97160213D01*
X144647255Y-97057359D01*
X144643693Y-97050836D01*
X144637630Y-97046538D01*
X144627176Y-97020588D01*
X144613770Y-96996036D01*
X144613652Y-96987016D01*
X144611523Y-96981729D01*
X144613156Y-96948761D01*
X144613127Y-96946471D01*
X144613201Y-96946078D01*
X144640500Y-96808842D01*
X144640500Y-96802793D01*
X144642691Y-96791293D01*
X144653507Y-96770200D01*
X144660185Y-96747461D01*
X144669155Y-96739688D01*
X144674574Y-96729122D01*
X144695079Y-96717224D01*
X144712989Y-96701706D01*
X144727127Y-96698630D01*
X144735008Y-96694058D01*
X144745872Y-96694552D01*
X144764500Y-96690500D01*
X148675065Y-96690500D01*
X148742104Y-96710185D01*
X148743909Y-96711366D01*
X148800821Y-96749394D01*
X148800823Y-96749395D01*
X148800827Y-96749397D01*
X148944342Y-96808842D01*
X148946503Y-96809737D01*
X149076982Y-96835691D01*
X149101153Y-96840499D01*
X149101156Y-96840500D01*
X149101158Y-96840500D01*
X149258844Y-96840500D01*
X149258845Y-96840499D01*
X149413497Y-96809737D01*
X149413509Y-96809731D01*
X149419324Y-96807969D01*
X149420158Y-96810720D01*
X149477359Y-96804497D01*
X149539878Y-96835691D01*
X149575608Y-96895734D01*
X149579500Y-96926555D01*
X149579500Y-102936628D01*
X149559815Y-103003667D01*
X149507011Y-103049422D01*
X149437853Y-103059366D01*
X149374297Y-103030341D01*
X149352398Y-103005520D01*
X149321786Y-102959707D01*
X149210292Y-102848213D01*
X149210288Y-102848210D01*
X149079185Y-102760609D01*
X149079172Y-102760602D01*
X148933501Y-102700264D01*
X148933489Y-102700261D01*
X148778845Y-102669500D01*
X148778842Y-102669500D01*
X148621158Y-102669500D01*
X148621155Y-102669500D01*
X148466511Y-102700260D01*
X148466506Y-102700262D01*
X148466504Y-102700262D01*
X148466503Y-102700263D01*
X148442844Y-102710062D01*
X148395396Y-102719500D01*
X135111826Y-102719500D01*
X135044787Y-102699815D01*
X134999032Y-102647011D01*
X134990209Y-102619692D01*
X134959738Y-102466508D01*
X134959737Y-102466507D01*
X134959737Y-102466503D01*
X134948964Y-102440495D01*
X134899397Y-102320827D01*
X134899390Y-102320814D01*
X134811789Y-102189711D01*
X134811786Y-102189707D01*
X134700292Y-102078213D01*
X134700284Y-102078207D01*
X134569181Y-101990607D01*
X134569179Y-101990606D01*
X134545521Y-101980806D01*
X134538589Y-101976174D01*
X134533549Y-101975078D01*
X134505295Y-101953927D01*
X134346819Y-101795451D01*
X134313334Y-101734128D01*
X134310500Y-101707770D01*
X134310500Y-99514499D01*
X134330185Y-99447460D01*
X134382989Y-99401705D01*
X134434500Y-99390499D01*
X134457871Y-99390499D01*
X134457872Y-99390499D01*
X134517483Y-99384091D01*
X134652331Y-99333796D01*
X134767546Y-99247546D01*
X134853796Y-99132331D01*
X134902810Y-99000916D01*
X134944681Y-98944984D01*
X135010145Y-98920566D01*
X135078418Y-98935417D01*
X135106673Y-98956569D01*
X135220213Y-99070109D01*
X135392179Y-99195048D01*
X135392181Y-99195049D01*
X135392184Y-99195051D01*
X135581588Y-99291557D01*
X135783757Y-99357246D01*
X135993713Y-99390500D01*
X135993714Y-99390500D01*
X136206286Y-99390500D01*
X136206287Y-99390500D01*
X136416243Y-99357246D01*
X136618412Y-99291557D01*
X136807816Y-99195051D01*
X136862572Y-99155269D01*
X137878282Y-99155269D01*
X137878282Y-99155270D01*
X137932449Y-99194624D01*
X138121782Y-99291095D01*
X138323870Y-99356757D01*
X138533754Y-99390000D01*
X138746246Y-99390000D01*
X138956127Y-99356757D01*
X138956130Y-99356757D01*
X139158217Y-99291095D01*
X139347554Y-99194622D01*
X139401716Y-99155270D01*
X139401717Y-99155270D01*
X138640000Y-98393554D01*
X137878282Y-99155269D01*
X136862572Y-99155269D01*
X136894138Y-99132335D01*
X136979786Y-99070109D01*
X136979788Y-99070106D01*
X136979792Y-99070104D01*
X137130104Y-98919792D01*
X137130106Y-98919788D01*
X137130109Y-98919786D01*
X137215890Y-98801717D01*
X137255051Y-98747816D01*
X137259793Y-98738508D01*
X137307763Y-98687711D01*
X137375583Y-98670911D01*
X137441719Y-98693445D01*
X137480763Y-98738500D01*
X137485373Y-98747547D01*
X137524728Y-98801716D01*
X138286446Y-98040000D01*
X137524728Y-97278282D01*
X137524727Y-97278282D01*
X137485380Y-97332440D01*
X137485376Y-97332446D01*
X137480760Y-97341505D01*
X137432781Y-97392297D01*
X137364959Y-97409087D01*
X137298826Y-97386543D01*
X137259794Y-97341493D01*
X137255051Y-97332184D01*
X137255049Y-97332181D01*
X137255048Y-97332179D01*
X137130109Y-97160213D01*
X136979788Y-97009892D01*
X136955477Y-96992230D01*
X136949113Y-96983977D01*
X136940006Y-96978913D01*
X136928144Y-96956785D01*
X136912811Y-96936901D01*
X136911042Y-96924882D01*
X136906996Y-96917333D01*
X136906891Y-96896666D01*
X136904750Y-96882111D01*
X136905325Y-96874855D01*
X136910500Y-96848842D01*
X136910500Y-96809592D01*
X136910888Y-96804699D01*
X136921670Y-96776459D01*
X136930185Y-96747461D01*
X136934005Y-96744150D01*
X136935810Y-96739425D01*
X136960151Y-96721494D01*
X136982989Y-96701706D01*
X136988704Y-96700462D01*
X136992065Y-96697987D01*
X137003409Y-96697263D01*
X137034500Y-96690500D01*
X137819036Y-96690500D01*
X137886075Y-96710185D01*
G37*
%TD.AperFunction*%
%TA.AperFunction,Conductor*%
G36*
X121089689Y-94260185D02*
G01*
X121135444Y-94312989D01*
X121145388Y-94382147D01*
X121125752Y-94433391D01*
X121040609Y-94560814D01*
X121040602Y-94560827D01*
X120980264Y-94706498D01*
X120980261Y-94706510D01*
X120949500Y-94861153D01*
X120949500Y-95018846D01*
X120980261Y-95173489D01*
X120980264Y-95173501D01*
X121040602Y-95319172D01*
X121040609Y-95319185D01*
X121128210Y-95450288D01*
X121128213Y-95450292D01*
X121239710Y-95561789D01*
X121330987Y-95622778D01*
X121370821Y-95649394D01*
X121394475Y-95659191D01*
X121434703Y-95686071D01*
X122261606Y-96512974D01*
X123073181Y-97324548D01*
X123106666Y-97385871D01*
X123109500Y-97412229D01*
X123109500Y-100503918D01*
X123109500Y-100503920D01*
X123109499Y-100503920D01*
X123138340Y-100648907D01*
X123138343Y-100648917D01*
X123194914Y-100785492D01*
X123194915Y-100785494D01*
X123194916Y-100785495D01*
X123218378Y-100820609D01*
X123227812Y-100834727D01*
X123227813Y-100834730D01*
X123277046Y-100908414D01*
X123277052Y-100908421D01*
X124816452Y-102447819D01*
X124849937Y-102509142D01*
X124844953Y-102578833D01*
X124803081Y-102634767D01*
X124737617Y-102659184D01*
X124728771Y-102659500D01*
X122672940Y-102659500D01*
X122605901Y-102639815D01*
X122585259Y-102623181D01*
X121790292Y-101828213D01*
X121790288Y-101828210D01*
X121659185Y-101740609D01*
X121659175Y-101740604D01*
X121636735Y-101731309D01*
X121596507Y-101704429D01*
X121256819Y-101364741D01*
X121223334Y-101303418D01*
X121220500Y-101277060D01*
X121220500Y-99101155D01*
X121220499Y-99101153D01*
X121213801Y-99067482D01*
X121189737Y-98946503D01*
X121152206Y-98855894D01*
X121129397Y-98800827D01*
X121129390Y-98800814D01*
X121041789Y-98669711D01*
X121041786Y-98669707D01*
X120930292Y-98558213D01*
X120930288Y-98558210D01*
X120799185Y-98470609D01*
X120799172Y-98470602D01*
X120653501Y-98410264D01*
X120653489Y-98410261D01*
X120498845Y-98379500D01*
X120498842Y-98379500D01*
X120424500Y-98379500D01*
X120357461Y-98359815D01*
X120311706Y-98307011D01*
X120300500Y-98255500D01*
X120300500Y-94372230D01*
X120309144Y-94342789D01*
X120315668Y-94312803D01*
X120319422Y-94307787D01*
X120320185Y-94305191D01*
X120336819Y-94284549D01*
X120344549Y-94276819D01*
X120405872Y-94243334D01*
X120432230Y-94240500D01*
X121022650Y-94240500D01*
X121089689Y-94260185D01*
G37*
%TD.AperFunction*%
%TA.AperFunction,Conductor*%
G36*
X132507210Y-84634185D02*
G01*
X132552965Y-84686989D01*
X132562909Y-84756147D01*
X132533884Y-84819703D01*
X132509062Y-84841602D01*
X132375965Y-84930535D01*
X132375961Y-84930538D01*
X132250538Y-85055961D01*
X132250535Y-85055965D01*
X132151990Y-85203446D01*
X132151983Y-85203459D01*
X132084106Y-85367332D01*
X132084103Y-85367341D01*
X132049500Y-85541304D01*
X132049500Y-85718695D01*
X132084103Y-85892658D01*
X132084106Y-85892667D01*
X132151983Y-86056540D01*
X132151990Y-86056553D01*
X132250535Y-86204034D01*
X132250538Y-86204038D01*
X132375961Y-86329461D01*
X132375965Y-86329464D01*
X132523446Y-86428009D01*
X132523459Y-86428016D01*
X132598531Y-86459111D01*
X132687334Y-86495894D01*
X132687336Y-86495894D01*
X132687341Y-86495896D01*
X132861304Y-86530499D01*
X132861307Y-86530500D01*
X132861309Y-86530500D01*
X133345500Y-86530500D01*
X133412539Y-86550185D01*
X133458294Y-86602989D01*
X133469500Y-86654500D01*
X133469500Y-87625396D01*
X133460062Y-87672844D01*
X133454159Y-87687097D01*
X133450262Y-87696506D01*
X133450260Y-87696511D01*
X133419500Y-87851153D01*
X133419500Y-88008846D01*
X133450261Y-88163489D01*
X133450264Y-88163501D01*
X133510602Y-88309172D01*
X133510609Y-88309185D01*
X133598210Y-88440288D01*
X133598213Y-88440292D01*
X133709707Y-88551786D01*
X133709711Y-88551789D01*
X133840814Y-88639390D01*
X133840827Y-88639397D01*
X133935157Y-88678469D01*
X133986503Y-88699737D01*
X134141153Y-88730499D01*
X134141156Y-88730500D01*
X134141158Y-88730500D01*
X134298844Y-88730500D01*
X134298845Y-88730499D01*
X134453497Y-88699737D01*
X134599179Y-88639394D01*
X134730289Y-88551789D01*
X134841789Y-88440289D01*
X134929394Y-88309179D01*
X134989737Y-88163497D01*
X135020500Y-88008842D01*
X135020500Y-87851158D01*
X135020500Y-87851155D01*
X135020499Y-87851153D01*
X134989739Y-87696511D01*
X134989738Y-87696508D01*
X134989737Y-87696503D01*
X134979937Y-87672844D01*
X134970500Y-87625396D01*
X134970500Y-86654500D01*
X134990185Y-86587461D01*
X135042989Y-86541706D01*
X135094500Y-86530500D01*
X144421729Y-86530500D01*
X144488768Y-86550185D01*
X144534523Y-86602989D01*
X144544467Y-86672147D01*
X144536290Y-86701953D01*
X144530263Y-86716502D01*
X144530261Y-86716510D01*
X144499500Y-86871153D01*
X144499500Y-87028846D01*
X144530261Y-87183489D01*
X144530264Y-87183501D01*
X144590602Y-87329172D01*
X144590609Y-87329185D01*
X144678210Y-87460288D01*
X144678213Y-87460292D01*
X144789707Y-87571786D01*
X144789711Y-87571789D01*
X144920814Y-87659390D01*
X144920827Y-87659397D01*
X145056271Y-87715499D01*
X145066503Y-87719737D01*
X145221153Y-87750499D01*
X145221156Y-87750500D01*
X145221158Y-87750500D01*
X145378844Y-87750500D01*
X145378845Y-87750499D01*
X145533497Y-87719737D01*
X145566688Y-87705988D01*
X145636156Y-87698519D01*
X145698636Y-87729793D01*
X145734289Y-87789881D01*
X145731796Y-87859706D01*
X145701822Y-87908230D01*
X145364726Y-88245326D01*
X145293534Y-88351874D01*
X145244499Y-88470255D01*
X145244497Y-88470261D01*
X145219500Y-88595928D01*
X145219500Y-90395064D01*
X145199815Y-90462103D01*
X145198603Y-90463954D01*
X145160608Y-90520817D01*
X145160602Y-90520828D01*
X145100264Y-90666498D01*
X145100261Y-90666510D01*
X145069500Y-90821153D01*
X145069500Y-90978846D01*
X145100261Y-91133489D01*
X145100264Y-91133501D01*
X145160602Y-91279172D01*
X145160609Y-91279185D01*
X145248210Y-91410288D01*
X145248213Y-91410292D01*
X145359707Y-91521786D01*
X145359711Y-91521789D01*
X145490814Y-91609390D01*
X145490827Y-91609397D01*
X145621530Y-91663535D01*
X145636503Y-91669737D01*
X145791153Y-91700499D01*
X145791156Y-91700500D01*
X145791158Y-91700500D01*
X145948844Y-91700500D01*
X145948845Y-91700499D01*
X146103497Y-91669737D01*
X146249179Y-91609394D01*
X146380289Y-91521789D01*
X146491789Y-91410289D01*
X146579394Y-91279179D01*
X146639737Y-91133497D01*
X146670500Y-90978842D01*
X146670500Y-90821158D01*
X146670500Y-90821155D01*
X146670499Y-90821153D01*
X146667297Y-90805058D01*
X146639737Y-90666503D01*
X146630229Y-90643549D01*
X146579397Y-90520828D01*
X146579396Y-90520827D01*
X146579394Y-90520821D01*
X146541396Y-90463953D01*
X146520520Y-90397276D01*
X146520500Y-90395064D01*
X146520500Y-89034500D01*
X146540185Y-88967461D01*
X146592989Y-88921706D01*
X146644500Y-88910500D01*
X149490192Y-88910500D01*
X149557231Y-88930185D01*
X149602986Y-88982989D01*
X149612930Y-89052147D01*
X149583905Y-89115703D01*
X149577873Y-89122181D01*
X145876873Y-92823181D01*
X145815550Y-92856666D01*
X145789192Y-92859500D01*
X135470807Y-92859500D01*
X135403768Y-92839815D01*
X135383126Y-92823181D01*
X134294674Y-91734727D01*
X134294673Y-91734726D01*
X134294669Y-91734723D01*
X134188127Y-91663535D01*
X134139746Y-91643495D01*
X134069744Y-91614499D01*
X134069738Y-91614497D01*
X133944071Y-91589500D01*
X133944069Y-91589500D01*
X132844935Y-91589500D01*
X132777896Y-91569815D01*
X132776090Y-91568633D01*
X132719179Y-91530606D01*
X132719172Y-91530602D01*
X132573501Y-91470264D01*
X132573489Y-91470261D01*
X132418845Y-91439500D01*
X132418842Y-91439500D01*
X132261158Y-91439500D01*
X132261155Y-91439500D01*
X132106510Y-91470261D01*
X132106498Y-91470264D01*
X131960827Y-91530602D01*
X131960814Y-91530609D01*
X131829711Y-91618210D01*
X131829707Y-91618213D01*
X131718213Y-91729707D01*
X131718210Y-91729711D01*
X131630609Y-91860814D01*
X131630602Y-91860827D01*
X131570264Y-92006498D01*
X131570261Y-92006510D01*
X131539500Y-92161153D01*
X131539500Y-92318846D01*
X131570261Y-92473489D01*
X131570264Y-92473501D01*
X131630602Y-92619172D01*
X131630609Y-92619185D01*
X131718210Y-92750288D01*
X131718213Y-92750292D01*
X131829707Y-92861786D01*
X131829711Y-92861789D01*
X131960814Y-92949390D01*
X131960827Y-92949397D01*
X132034013Y-92979711D01*
X132106503Y-93009737D01*
X132261153Y-93040499D01*
X132261156Y-93040500D01*
X132261158Y-93040500D01*
X132418844Y-93040500D01*
X132418845Y-93040499D01*
X132573497Y-93009737D01*
X132719179Y-92949394D01*
X132776044Y-92911397D01*
X132842721Y-92890520D01*
X132844935Y-92890500D01*
X133559192Y-92890500D01*
X133626231Y-92910185D01*
X133646873Y-92926819D01*
X133883959Y-93163905D01*
X133967874Y-93247819D01*
X134001359Y-93309142D01*
X133996375Y-93378833D01*
X133954504Y-93434767D01*
X133889039Y-93459184D01*
X133880193Y-93459500D01*
X130945929Y-93459500D01*
X130820261Y-93484497D01*
X130820255Y-93484499D01*
X130701870Y-93533535D01*
X130595331Y-93604722D01*
X130595324Y-93604728D01*
X129524726Y-94675326D01*
X129524723Y-94675331D01*
X129483876Y-94736465D01*
X129467817Y-94760499D01*
X129467815Y-94760502D01*
X129453536Y-94781870D01*
X129453533Y-94781875D01*
X129404499Y-94900255D01*
X129404497Y-94900261D01*
X129379500Y-95025928D01*
X129379500Y-100668297D01*
X129359815Y-100735336D01*
X129307011Y-100781091D01*
X129237853Y-100791035D01*
X129208048Y-100782858D01*
X129153501Y-100760264D01*
X129153489Y-100760261D01*
X128998845Y-100729500D01*
X128998842Y-100729500D01*
X128841158Y-100729500D01*
X128841155Y-100729500D01*
X128686510Y-100760261D01*
X128686498Y-100760264D01*
X128540827Y-100820602D01*
X128540814Y-100820609D01*
X128409711Y-100908210D01*
X128409707Y-100908213D01*
X128298213Y-101019707D01*
X128298210Y-101019711D01*
X128210609Y-101150814D01*
X128210602Y-101150827D01*
X128150264Y-101296498D01*
X128150261Y-101296510D01*
X128119500Y-101451153D01*
X128119500Y-101608846D01*
X128150261Y-101763489D01*
X128150264Y-101763501D01*
X128210602Y-101909172D01*
X128210609Y-101909185D01*
X128236184Y-101947460D01*
X128243120Y-101969613D01*
X128254247Y-101989987D01*
X128253364Y-102002329D01*
X128257062Y-102014137D01*
X128250920Y-102036523D01*
X128249266Y-102059679D01*
X128241851Y-102069584D01*
X128238578Y-102081518D01*
X128221306Y-102097031D01*
X128207397Y-102115615D01*
X128195804Y-102119939D01*
X128186599Y-102128208D01*
X128163685Y-102131920D01*
X128141934Y-102140035D01*
X128129841Y-102137405D01*
X128117629Y-102139384D01*
X128096345Y-102130119D01*
X128073660Y-102125186D01*
X128057891Y-102113382D01*
X128053565Y-102111499D01*
X128045405Y-102104036D01*
X128034741Y-102093373D01*
X128028416Y-102087048D01*
X128028413Y-102087046D01*
X127715819Y-101774451D01*
X127682334Y-101713128D01*
X127679500Y-101686770D01*
X127679500Y-95718046D01*
X127699185Y-95651007D01*
X127751989Y-95605252D01*
X127779309Y-95596429D01*
X127808848Y-95590552D01*
X127913497Y-95569737D01*
X128059179Y-95509394D01*
X128190289Y-95421789D01*
X128301789Y-95310289D01*
X128389394Y-95179179D01*
X128449737Y-95033497D01*
X128480500Y-94878842D01*
X128480500Y-94721158D01*
X128480500Y-94721155D01*
X128480499Y-94721153D01*
X128449739Y-94566511D01*
X128449738Y-94566508D01*
X128449737Y-94566503D01*
X128439937Y-94542844D01*
X128430500Y-94495396D01*
X128430500Y-86392229D01*
X128450185Y-86325190D01*
X128466819Y-86304548D01*
X130120548Y-84650819D01*
X130181871Y-84617334D01*
X130208229Y-84614500D01*
X132440171Y-84614500D01*
X132507210Y-84634185D01*
G37*
%TD.AperFunction*%
%TD*%
M02*
