M48
; DRILL file {KiCad 9.0.5} date 2026-06-19T15:20:54+0530
; FORMAT={-:-/ absolute / metric / decimal}
; #@! TF.CreationDate,2026-06-19T15:20:54+05:30
; #@! TF.GenerationSoftware,Kicad,Pcbnew,9.0.5
; #@! TF.FileFunction,Plated,1,2,PTH
FMAT,2
METRIC
; #@! TA.AperFunction,Plated,PTH,ComponentDrill
T1C0.200
; #@! TA.AperFunction,Plated,PTH,ViaDrill
T2C0.300
; #@! TA.AperFunction,Plated,PTH,ViaDrill
T3C0.600
; #@! TA.AperFunction,Plated,PTH,ComponentDrill
T4C0.870
; #@! TA.AperFunction,Plated,PTH,ComponentDrill
T5C1.100
; #@! TA.AperFunction,Plated,PTH,ComponentDrill
T6C1.200
; #@! TA.AperFunction,Plated,PTH,ComponentDrill
T7C1.270
; #@! TA.AperFunction,Plated,PTH,ComponentDrill
T8C1.320
; #@! TA.AperFunction,Plated,PTH,ComponentDrill
T9C2.200
; #@! TA.AperFunction,Plated,PTH,ComponentDrill
T10C4.500
%
G90
G05
T1
X136.565Y-89.927
X136.565Y-91.453
X137.327Y-89.165
X137.327Y-90.69
X137.327Y-92.215
X138.09Y-89.927
X138.09Y-91.453
X138.852Y-89.165
X138.852Y-90.69
X138.852Y-92.215
X139.615Y-89.927
X139.615Y-91.453
T2
X108.52Y-99.91
X112.99Y-94.71
X120.42Y-99.18
X120.46Y-95.28
X120.92Y-115.6
X121.75Y-94.94
X122.21Y-100.27
X123.74Y-85.68
X125.54Y-116.93
X126.09Y-93.49
X126.25Y-85.53
X126.98Y-103.55
X127.02Y-119.19
X127.68Y-94.8
X128.92Y-101.53
X129.88Y-111.33
X130.03Y-101.51
X130.89Y-101.58
X132.34Y-92.24
X133.88Y-108.63
X134.19Y-102.7
X134.21Y-104.82
X134.22Y-87.93
X135.36Y-108.61
X135.45Y-99.78
X136.11Y-96.77
X136.35Y-99.81
X137.54Y-99.82
X138.65Y-99.86
X139.79Y-99.82
X140.97Y-99.85
X141.17Y-96.75
X142.34Y-99.82
X143.84Y-96.73
X144.11Y-99.82
X145.3Y-86.95
X145.87Y-90.9
X148.54Y-119.13
X148.7Y-103.47
X149.18Y-96.04
X149.56Y-92.87
X150.23Y-94.16
X151.23Y-88.26
X152.51Y-97.99
X153.53Y-132.79
X153.705Y-86.915
T3
X129.42Y-135.43
X132.95Y-85.63
X148.63Y-124.28
X169.42Y-101.64
T4
X115.74Y-106.19
X117.24Y-106.19
X118.74Y-106.19
X120.24Y-106.19
X121.74Y-106.19
X123.24Y-106.19
X135.67Y-154.7
X137.17Y-154.7
X138.67Y-154.7
X140.17Y-154.7
X141.67Y-154.7
X143.17Y-154.7
X161.15Y-85.25
X162.65Y-85.25
X164.15Y-85.25
X165.65Y-85.25
X167.15Y-85.25
X168.65Y-85.25
T5
X111.0Y-97.04
X111.0Y-99.58
X111.0Y-102.12
X122.78Y-111.36
X125.32Y-111.36
X127.86Y-111.36
X134.15Y-111.33
X136.69Y-111.33
X139.23Y-111.33
X145.14Y-111.4
X147.68Y-111.4
X150.22Y-111.4
T6
X110.834Y-118.094
X112.584Y-121.126
X118.83Y-132.6
X120.58Y-135.631
X166.244Y-120.668
X167.994Y-117.637
T7
X130.83Y-115.95
X133.37Y-115.95
X135.91Y-115.95
X138.45Y-115.95
X140.99Y-115.95
X143.53Y-115.95
X146.07Y-115.95
X148.61Y-115.95
T8
X131.88Y-132.72
X131.88Y-135.26
X131.88Y-137.8
X131.88Y-140.34
X131.88Y-142.88
X131.88Y-145.42
X131.88Y-147.96
X131.88Y-150.5
X147.12Y-132.72
X147.12Y-135.26
X147.12Y-137.8
X147.12Y-140.34
X147.12Y-142.88
X147.12Y-145.42
X147.12Y-147.96
X147.12Y-150.5
X156.93Y-90.507
X156.93Y-93.047
X156.93Y-95.587
X156.93Y-98.127
X156.93Y-100.667
X156.93Y-103.207
X156.93Y-105.747
X156.93Y-108.287
X172.17Y-90.507
X172.17Y-93.047
X172.17Y-95.587
X172.17Y-98.127
X172.17Y-100.667
X172.17Y-103.207
X172.17Y-105.747
X172.17Y-108.287
T9
X103.21Y-93.37
X103.21Y-98.07
X103.21Y-102.77
T10
X110.35Y-87.18
X117.55Y-87.18
M30
